%TF.GenerationSoftware,KiCad,Pcbnew,9.0.4*%
%TF.CreationDate,2026-07-18T11:46:13-04:00*%
%TF.ProjectId,motor_control,6d6f746f-725f-4636-9f6e-74726f6c2e6b,rev?*%
%TF.SameCoordinates,Original*%
%TF.FileFunction,Soldermask,Top*%
%TF.FilePolarity,Negative*%
%FSLAX46Y46*%
G04 Gerber Fmt 4.6, Leading zero omitted, Abs format (unit mm)*
G04 Created by KiCad (PCBNEW 9.0.4) date 2026-07-18 11:46:13*
%MOMM*%
%LPD*%
G01*
G04 APERTURE LIST*
G04 Aperture macros list*
%AMRoundRect*
0 Rectangle with rounded corners*
0 $1 Rounding radius*
0 $2 $3 $4 $5 $6 $7 $8 $9 X,Y pos of 4 corners*
0 Add a 4 corners polygon primitive as box body*
4,1,4,$2,$3,$4,$5,$6,$7,$8,$9,$2,$3,0*
0 Add four circle primitives for the rounded corners*
1,1,$1+$1,$2,$3*
1,1,$1+$1,$4,$5*
1,1,$1+$1,$6,$7*
1,1,$1+$1,$8,$9*
0 Add four rect primitives between the rounded corners*
20,1,$1+$1,$2,$3,$4,$5,0*
20,1,$1+$1,$4,$5,$6,$7,0*
20,1,$1+$1,$6,$7,$8,$9,0*
20,1,$1+$1,$8,$9,$2,$3,0*%
G04 Aperture macros list end*
%ADD10O,1.905000X2.000000*%
%ADD11R,1.905000X2.000000*%
%ADD12C,1.440000*%
%ADD13C,1.600000*%
%ADD14C,3.200000*%
%ADD15RoundRect,0.250000X-0.550000X-0.550000X0.550000X-0.550000X0.550000X0.550000X-0.550000X0.550000X0*%
%ADD16C,2.600000*%
%ADD17RoundRect,0.250000X-1.050000X-1.050000X1.050000X-1.050000X1.050000X1.050000X-1.050000X1.050000X0*%
%ADD18R,2.032000X2.032000*%
%ADD19C,2.032000*%
G04 APERTURE END LIST*
D10*
%TO.C,Q1*%
X147500000Y-68000000D03*
X150040000Y-68000000D03*
D11*
X152580000Y-68000000D03*
%TD*%
D12*
%TO.C,RV1*%
X135015000Y-97540000D03*
X137555000Y-95000000D03*
X135015000Y-92460000D03*
%TD*%
%TO.C,RV2*%
X135015000Y-107460000D03*
X137555000Y-110000000D03*
X135015000Y-112540000D03*
%TD*%
D13*
%TO.C,R8*%
X207620000Y-93020000D03*
X217780000Y-93020000D03*
%TD*%
%TO.C,R1*%
X175920000Y-117000000D03*
X186080000Y-117000000D03*
%TD*%
D14*
%TO.C,H1*%
X125000000Y-65000000D03*
%TD*%
D15*
%TO.C,D4*%
X162380000Y-104000000D03*
D13*
X170000000Y-104000000D03*
%TD*%
D15*
%TO.C,D1*%
X148000000Y-111000000D03*
D13*
X155620000Y-111000000D03*
%TD*%
D10*
%TO.C,Q3*%
X147500000Y-86000000D03*
X150040000Y-86000000D03*
D11*
X152580000Y-86000000D03*
%TD*%
D10*
%TO.C,Q2*%
X147500000Y-77000000D03*
X150040000Y-77000000D03*
D11*
X152580000Y-77000000D03*
%TD*%
D15*
%TO.C,D5*%
X162380000Y-118000000D03*
D13*
X170000000Y-118000000D03*
%TD*%
%TO.C,R10*%
X207620000Y-101120000D03*
X217780000Y-101120000D03*
%TD*%
%TO.C,R5*%
X207620000Y-80870000D03*
X217780000Y-80870000D03*
%TD*%
D15*
%TO.C,D3*%
X162380000Y-111000000D03*
D13*
X170000000Y-111000000D03*
%TD*%
D15*
%TO.C,C1*%
X177620000Y-99920000D03*
D13*
X180120000Y-99920000D03*
%TD*%
D14*
%TO.C,H3*%
X125000000Y-120000000D03*
%TD*%
D15*
%TO.C,U1*%
X132380000Y-68380000D03*
D13*
X132380000Y-70920000D03*
X132380000Y-73460000D03*
X132380000Y-76000000D03*
X132380000Y-78540000D03*
X132380000Y-81080000D03*
X132380000Y-83620000D03*
X140000000Y-83620000D03*
X140000000Y-81080000D03*
X140000000Y-78540000D03*
X140000000Y-76000000D03*
X140000000Y-73460000D03*
X140000000Y-70920000D03*
X140000000Y-68380000D03*
%TD*%
D10*
%TO.C,Q4*%
X147500000Y-95050000D03*
X150040000Y-95050000D03*
D11*
X152580000Y-95050000D03*
%TD*%
D13*
%TO.C,R6*%
X207620000Y-84920000D03*
X217780000Y-84920000D03*
%TD*%
D15*
%TO.C,C2*%
X187620000Y-99920000D03*
D13*
X190120000Y-99920000D03*
%TD*%
D15*
%TO.C,C3*%
X197620000Y-99920000D03*
D13*
X200120000Y-99920000D03*
%TD*%
D15*
%TO.C,D2*%
X148000000Y-104000000D03*
D13*
X155620000Y-104000000D03*
%TD*%
%TO.C,R4*%
X207620000Y-76820000D03*
X217780000Y-76820000D03*
%TD*%
%TO.C,R2*%
X207620000Y-68720000D03*
X217780000Y-68720000D03*
%TD*%
%TO.C,R9*%
X207620000Y-97070000D03*
X217780000Y-97070000D03*
%TD*%
%TO.C,R3*%
X207620000Y-72770000D03*
X217780000Y-72770000D03*
%TD*%
%TO.C,R11*%
X207620000Y-105170000D03*
X217780000Y-105170000D03*
%TD*%
D16*
%TO.C,J2*%
X169000000Y-72000000D03*
D17*
X163920000Y-72000000D03*
%TD*%
D13*
%TO.C,R7*%
X207620000Y-88970000D03*
X217780000Y-88970000D03*
%TD*%
D18*
%TO.C,BAR1*%
X192500000Y-67300000D03*
D19*
X192500000Y-69840000D03*
X192500000Y-72380000D03*
X192500000Y-74920000D03*
X192500000Y-77460000D03*
X192500000Y-80000000D03*
X192500000Y-82540000D03*
X192500000Y-85080000D03*
X192500000Y-87620000D03*
X192500000Y-90160000D03*
X200120000Y-90160000D03*
X200120000Y-87620000D03*
X200120000Y-85080000D03*
X200120000Y-82540000D03*
X200120000Y-80000000D03*
X200120000Y-77460000D03*
X200120000Y-74920000D03*
X200120000Y-72380000D03*
X200120000Y-69840000D03*
X200120000Y-67300000D03*
%TD*%
D13*
%TO.C,R12*%
X175920000Y-110000000D03*
X186080000Y-110000000D03*
%TD*%
D14*
%TO.C,H4*%
X225000000Y-120000000D03*
%TD*%
%TO.C,H2*%
X225000000Y-65000000D03*
%TD*%
D15*
%TO.C,U2*%
X178000000Y-68300000D03*
D13*
X178000000Y-70840000D03*
X178000000Y-73380000D03*
X178000000Y-75920000D03*
X178000000Y-78460000D03*
X178000000Y-81000000D03*
X178000000Y-83540000D03*
X178000000Y-86080000D03*
X178000000Y-88620000D03*
X185620000Y-88620000D03*
X185620000Y-86080000D03*
X185620000Y-83540000D03*
X185620000Y-81000000D03*
X185620000Y-78460000D03*
X185620000Y-75920000D03*
X185620000Y-73380000D03*
X185620000Y-70840000D03*
X185620000Y-68300000D03*
%TD*%
D17*
%TO.C,J1*%
X163920000Y-89000000D03*
D16*
X169000000Y-89000000D03*
%TD*%
D13*
%TO.C,D6*%
X155810000Y-118000000D03*
D15*
X148190000Y-118000000D03*
%TD*%
M02*
