%TF.GenerationSoftware,KiCad,Pcbnew,9.0.4*%
%TF.CreationDate,2026-07-18T11:46:12-04:00*%
%TF.ProjectId,motor_control,6d6f746f-725f-4636-9f6e-74726f6c2e6b,rev?*%
%TF.SameCoordinates,Original*%
%TF.FileFunction,Copper,L1,Top*%
%TF.FilePolarity,Positive*%
%FSLAX46Y46*%
G04 Gerber Fmt 4.6, Leading zero omitted, Abs format (unit mm)*
G04 Created by KiCad (PCBNEW 9.0.4) date 2026-07-18 11:46:12*
%MOMM*%
%LPD*%
G01*
G04 APERTURE LIST*
G04 Aperture macros list*
%AMRoundRect*
0 Rectangle with rounded corners*
0 $1 Rounding radius*
0 $2 $3 $4 $5 $6 $7 $8 $9 X,Y pos of 4 corners*
0 Add a 4 corners polygon primitive as box body*
4,1,4,$2,$3,$4,$5,$6,$7,$8,$9,$2,$3,0*
0 Add four circle primitives for the rounded corners*
1,1,$1+$1,$2,$3*
1,1,$1+$1,$4,$5*
1,1,$1+$1,$6,$7*
1,1,$1+$1,$8,$9*
0 Add four rect primitives between the rounded corners*
20,1,$1+$1,$2,$3,$4,$5,0*
20,1,$1+$1,$4,$5,$6,$7,0*
20,1,$1+$1,$6,$7,$8,$9,0*
20,1,$1+$1,$8,$9,$2,$3,0*%
G04 Aperture macros list end*
%TA.AperFunction,ComponentPad*%
%ADD10O,1.905000X2.000000*%
%TD*%
%TA.AperFunction,ComponentPad*%
%ADD11R,1.905000X2.000000*%
%TD*%
%TA.AperFunction,ComponentPad*%
%ADD12C,1.440000*%
%TD*%
%TA.AperFunction,ComponentPad*%
%ADD13C,1.600000*%
%TD*%
%TA.AperFunction,ComponentPad*%
%ADD14RoundRect,0.250000X-0.550000X-0.550000X0.550000X-0.550000X0.550000X0.550000X-0.550000X0.550000X0*%
%TD*%
%TA.AperFunction,ComponentPad*%
%ADD15C,2.600000*%
%TD*%
%TA.AperFunction,ComponentPad*%
%ADD16RoundRect,0.250000X-1.050000X-1.050000X1.050000X-1.050000X1.050000X1.050000X-1.050000X1.050000X0*%
%TD*%
%TA.AperFunction,ComponentPad*%
%ADD17R,2.032000X2.032000*%
%TD*%
%TA.AperFunction,ComponentPad*%
%ADD18C,2.032000*%
%TD*%
%TA.AperFunction,ViaPad*%
%ADD19C,0.600000*%
%TD*%
%TA.AperFunction,Conductor*%
%ADD20C,0.200000*%
%TD*%
G04 APERTURE END LIST*
D10*
%TO.P,Q1,3,S*%
%TO.N,GND*%
X147500000Y-68000000D03*
%TO.P,Q1,2,D*%
%TO.N,Net-(Q1-D)*%
X150040000Y-68000000D03*
D11*
%TO.P,Q1,1,G*%
%TO.N,Net-(Q1-G)*%
X152580000Y-68000000D03*
%TD*%
D12*
%TO.P,RV1,1,1*%
%TO.N,Net-(D1-A)*%
X135015000Y-97540000D03*
%TO.P,RV1,2,2*%
%TO.N,Net-(C1-Pad1)*%
X137555000Y-95000000D03*
%TO.P,RV1,3,3*%
%TO.N,Net-(D2-K)*%
X135015000Y-92460000D03*
%TD*%
%TO.P,RV2,3,3*%
%TO.N,Net-(D6-K)*%
X135015000Y-107460000D03*
%TO.P,RV2,2,2*%
%TO.N,Net-(C2-Pad1)*%
X137555000Y-110000000D03*
%TO.P,RV2,1,1*%
%TO.N,Net-(D5-A)*%
X135015000Y-112540000D03*
%TD*%
D13*
%TO.P,R8,1*%
%TO.N,Net-(BAR1-K-Pad14)*%
X207620000Y-93020000D03*
%TO.P,R8,2*%
%TO.N,GND*%
X217780000Y-93020000D03*
%TD*%
%TO.P,R1,1*%
%TO.N,Net-(Q2-G)*%
X175920000Y-117000000D03*
%TO.P,R1,2*%
%TO.N,Net-(U2-SIG)*%
X186080000Y-117000000D03*
%TD*%
D14*
%TO.P,D4,1,K*%
%TO.N,VDD*%
X162380000Y-104000000D03*
D13*
%TO.P,D4,2,A*%
%TO.N,Net-(D4-A)*%
X170000000Y-104000000D03*
%TD*%
D14*
%TO.P,D1,1,K*%
%TO.N,Net-(D1-K)*%
X148000000Y-111000000D03*
D13*
%TO.P,D1,2,A*%
%TO.N,Net-(D1-A)*%
X155620000Y-111000000D03*
%TD*%
D10*
%TO.P,Q3,3,S*%
%TO.N,GND*%
X147500000Y-86000000D03*
%TO.P,Q3,2,D*%
%TO.N,Net-(Q3-D)*%
X150040000Y-86000000D03*
D11*
%TO.P,Q3,1,G*%
%TO.N,Net-(Q3-G)*%
X152580000Y-86000000D03*
%TD*%
D10*
%TO.P,Q2,3,S*%
%TO.N,Net-(Q1-D)*%
X147500000Y-77000000D03*
%TO.P,Q2,2,D*%
%TO.N,Net-(D3-A)*%
X150040000Y-77000000D03*
D11*
%TO.P,Q2,1,G*%
%TO.N,Net-(Q2-G)*%
X152580000Y-77000000D03*
%TD*%
D14*
%TO.P,D5,1,K*%
%TO.N,Net-(D5-K)*%
X162380000Y-118000000D03*
D13*
%TO.P,D5,2,A*%
%TO.N,Net-(D5-A)*%
X170000000Y-118000000D03*
%TD*%
%TO.P,R10,1*%
%TO.N,Net-(BAR1-K-Pad12)*%
X207620000Y-101120000D03*
%TO.P,R10,2*%
%TO.N,GND*%
X217780000Y-101120000D03*
%TD*%
%TO.P,R5,1*%
%TO.N,Net-(BAR1-K-Pad17)*%
X207620000Y-80870000D03*
%TO.P,R5,2*%
%TO.N,GND*%
X217780000Y-80870000D03*
%TD*%
D14*
%TO.P,D3,1,K*%
%TO.N,VDD*%
X162380000Y-111000000D03*
D13*
%TO.P,D3,2,A*%
%TO.N,Net-(D3-A)*%
X170000000Y-111000000D03*
%TD*%
D14*
%TO.P,C1,1*%
%TO.N,Net-(C1-Pad1)*%
X177620000Y-99920000D03*
D13*
%TO.P,C1,2*%
%TO.N,GND*%
X180120000Y-99920000D03*
%TD*%
D14*
%TO.P,U1,1*%
%TO.N,Net-(C1-Pad1)*%
X132380000Y-68380000D03*
D13*
%TO.P,U1,2*%
%TO.N,Net-(D1-K)*%
X132380000Y-70920000D03*
%TO.P,U1,3*%
X132380000Y-73460000D03*
%TO.P,U1,4*%
%TO.N,Net-(Q1-G)*%
X132380000Y-76000000D03*
%TO.P,U1,5*%
X132380000Y-78540000D03*
%TO.P,U1,6*%
%TO.N,Net-(Q3-G)*%
X132380000Y-81080000D03*
%TO.P,U1,7,VSS*%
%TO.N,GND*%
X132380000Y-83620000D03*
%TO.P,U1,8*%
%TO.N,Net-(D5-K)*%
X140000000Y-83620000D03*
%TO.P,U1,9*%
%TO.N,Net-(C2-Pad1)*%
X140000000Y-81080000D03*
%TO.P,U1,10*%
%TO.N,Net-(Q2-G)*%
X140000000Y-78540000D03*
%TO.P,U1,11*%
%TO.N,Net-(D5-K)*%
X140000000Y-76000000D03*
%TO.P,U1,12*%
%TO.N,unconnected-(U1-Pad12)*%
X140000000Y-73460000D03*
%TO.P,U1,13*%
%TO.N,unconnected-(U1-Pad13)*%
X140000000Y-70920000D03*
%TO.P,U1,14,VDD*%
%TO.N,VDD*%
X140000000Y-68380000D03*
%TD*%
D10*
%TO.P,Q4,3,S*%
%TO.N,Net-(Q3-D)*%
X147500000Y-95050000D03*
%TO.P,Q4,2,D*%
%TO.N,Net-(D4-A)*%
X150040000Y-95050000D03*
D11*
%TO.P,Q4,1,G*%
%TO.N,Net-(Q2-G)*%
X152580000Y-95050000D03*
%TD*%
D13*
%TO.P,R6,1*%
%TO.N,Net-(BAR1-K-Pad16)*%
X207620000Y-84920000D03*
%TO.P,R6,2*%
%TO.N,GND*%
X217780000Y-84920000D03*
%TD*%
D14*
%TO.P,C2,1*%
%TO.N,Net-(C2-Pad1)*%
X187620000Y-99920000D03*
D13*
%TO.P,C2,2*%
%TO.N,GND*%
X190120000Y-99920000D03*
%TD*%
D14*
%TO.P,C3,1*%
%TO.N,Net-(U2-SIG)*%
X197620000Y-99920000D03*
D13*
%TO.P,C3,2*%
%TO.N,GND*%
X200120000Y-99920000D03*
%TD*%
D14*
%TO.P,D2,1,K*%
%TO.N,Net-(D2-K)*%
X148000000Y-104000000D03*
D13*
%TO.P,D2,2,A*%
%TO.N,Net-(D1-K)*%
X155620000Y-104000000D03*
%TD*%
%TO.P,R4,1*%
%TO.N,Net-(BAR1-K-Pad18)*%
X207620000Y-76820000D03*
%TO.P,R4,2*%
%TO.N,GND*%
X217780000Y-76820000D03*
%TD*%
%TO.P,R2,1*%
%TO.N,Net-(BAR1-K-Pad20)*%
X207620000Y-68720000D03*
%TO.P,R2,2*%
%TO.N,GND*%
X217780000Y-68720000D03*
%TD*%
%TO.P,R9,1*%
%TO.N,Net-(BAR1-K-Pad13)*%
X207620000Y-97070000D03*
%TO.P,R9,2*%
%TO.N,GND*%
X217780000Y-97070000D03*
%TD*%
%TO.P,R3,1*%
%TO.N,Net-(BAR1-K-Pad19)*%
X207620000Y-72770000D03*
%TO.P,R3,2*%
%TO.N,GND*%
X217780000Y-72770000D03*
%TD*%
%TO.P,R11,1*%
%TO.N,Net-(BAR1-K-Pad11)*%
X207620000Y-105170000D03*
%TO.P,R11,2*%
%TO.N,GND*%
X217780000Y-105170000D03*
%TD*%
D15*
%TO.P,J2,2,Pin_2*%
%TO.N,Net-(D4-A)*%
X169000000Y-72000000D03*
D16*
%TO.P,J2,1,Pin_1*%
%TO.N,VDD*%
X163920000Y-72000000D03*
%TD*%
D13*
%TO.P,R7,1*%
%TO.N,Net-(BAR1-K-Pad15)*%
X207620000Y-88970000D03*
%TO.P,R7,2*%
%TO.N,GND*%
X217780000Y-88970000D03*
%TD*%
D17*
%TO.P,BAR1,1,A*%
%TO.N,Net-(U2-LED1)*%
X192500000Y-67300000D03*
D18*
%TO.P,BAR1,2,A*%
%TO.N,Net-(U2-LED2)*%
X192500000Y-69840000D03*
%TO.P,BAR1,3,A*%
%TO.N,Net-(U2-LED3)*%
X192500000Y-72380000D03*
%TO.P,BAR1,4,A*%
%TO.N,Net-(U2-LED4)*%
X192500000Y-74920000D03*
%TO.P,BAR1,5,A*%
%TO.N,Net-(U2-LED5)*%
X192500000Y-77460000D03*
%TO.P,BAR1,6,A*%
%TO.N,Net-(U2-LED6)*%
X192500000Y-80000000D03*
%TO.P,BAR1,7,A*%
%TO.N,Net-(U2-LED7)*%
X192500000Y-82540000D03*
%TO.P,BAR1,8,A*%
%TO.N,Net-(U2-LED8)*%
X192500000Y-85080000D03*
%TO.P,BAR1,9,A*%
%TO.N,Net-(U2-LED9)*%
X192500000Y-87620000D03*
%TO.P,BAR1,10,A*%
%TO.N,Net-(U2-LED10)*%
X192500000Y-90160000D03*
%TO.P,BAR1,11,K*%
%TO.N,Net-(BAR1-K-Pad11)*%
X200120000Y-90160000D03*
%TO.P,BAR1,12,K*%
%TO.N,Net-(BAR1-K-Pad12)*%
X200120000Y-87620000D03*
%TO.P,BAR1,13,K*%
%TO.N,Net-(BAR1-K-Pad13)*%
X200120000Y-85080000D03*
%TO.P,BAR1,14,K*%
%TO.N,Net-(BAR1-K-Pad14)*%
X200120000Y-82540000D03*
%TO.P,BAR1,15,K*%
%TO.N,Net-(BAR1-K-Pad15)*%
X200120000Y-80000000D03*
%TO.P,BAR1,16,K*%
%TO.N,Net-(BAR1-K-Pad16)*%
X200120000Y-77460000D03*
%TO.P,BAR1,17,K*%
%TO.N,Net-(BAR1-K-Pad17)*%
X200120000Y-74920000D03*
%TO.P,BAR1,18,K*%
%TO.N,Net-(BAR1-K-Pad18)*%
X200120000Y-72380000D03*
%TO.P,BAR1,19,K*%
%TO.N,Net-(BAR1-K-Pad19)*%
X200120000Y-69840000D03*
%TO.P,BAR1,20,K*%
%TO.N,Net-(BAR1-K-Pad20)*%
X200120000Y-67300000D03*
%TD*%
D13*
%TO.P,R12,1*%
%TO.N,Net-(U2-REFOUT)*%
X175920000Y-110000000D03*
%TO.P,R12,2*%
%TO.N,GND*%
X186080000Y-110000000D03*
%TD*%
D14*
%TO.P,U2,1,LED1*%
%TO.N,Net-(U2-LED1)*%
X178000000Y-68300000D03*
D13*
%TO.P,U2,2,V-*%
%TO.N,GND*%
X178000000Y-70840000D03*
%TO.P,U2,3,V+*%
%TO.N,VDD*%
X178000000Y-73380000D03*
%TO.P,U2,4,RLO*%
%TO.N,GND*%
X178000000Y-75920000D03*
%TO.P,U2,5,SIG*%
%TO.N,Net-(U2-SIG)*%
X178000000Y-78460000D03*
%TO.P,U2,6,RHI*%
%TO.N,VDD*%
X178000000Y-81000000D03*
%TO.P,U2,7,REFOUT*%
%TO.N,Net-(U2-REFOUT)*%
X178000000Y-83540000D03*
%TO.P,U2,8,REFADJ*%
%TO.N,GND*%
X178000000Y-86080000D03*
%TO.P,U2,9,MODE*%
%TO.N,VDD*%
X178000000Y-88620000D03*
%TO.P,U2,10,LED10*%
%TO.N,Net-(U2-LED10)*%
X185620000Y-88620000D03*
%TO.P,U2,11,LED9*%
%TO.N,Net-(U2-LED9)*%
X185620000Y-86080000D03*
%TO.P,U2,12,LED8*%
%TO.N,Net-(U2-LED8)*%
X185620000Y-83540000D03*
%TO.P,U2,13,LED7*%
%TO.N,Net-(U2-LED7)*%
X185620000Y-81000000D03*
%TO.P,U2,14,LED6*%
%TO.N,Net-(U2-LED6)*%
X185620000Y-78460000D03*
%TO.P,U2,15,LED5*%
%TO.N,Net-(U2-LED5)*%
X185620000Y-75920000D03*
%TO.P,U2,16,LED4*%
%TO.N,Net-(U2-LED4)*%
X185620000Y-73380000D03*
%TO.P,U2,17,LED3*%
%TO.N,Net-(U2-LED3)*%
X185620000Y-70840000D03*
%TO.P,U2,18,LED2*%
%TO.N,Net-(U2-LED2)*%
X185620000Y-68300000D03*
%TD*%
D16*
%TO.P,J1,1,Pin_1*%
%TO.N,VDD*%
X163920000Y-89000000D03*
D15*
%TO.P,J1,2,Pin_2*%
%TO.N,Net-(D3-A)*%
X169000000Y-89000000D03*
%TD*%
D13*
%TO.P,D6,2,A*%
%TO.N,Net-(D5-K)*%
X155810000Y-118000000D03*
D14*
%TO.P,D6,1,K*%
%TO.N,Net-(D6-K)*%
X148190000Y-118000000D03*
%TD*%
D19*
%TO.N,VDD*%
X177000000Y-90000000D03*
X167000000Y-90000000D03*
X161854260Y-102145740D03*
X160179843Y-106820156D03*
X164000000Y-75000000D03*
X142000000Y-69000000D03*
%TO.N,Net-(C2-Pad1)*%
X185000000Y-102000000D03*
X139000000Y-111000000D03*
%TO.N,Net-(D5-K)*%
X140000000Y-77000000D03*
X139000000Y-83000000D03*
X140000000Y-87000000D03*
X155000000Y-115000000D03*
%TO.N,Net-(C2-Pad1)*%
X141000000Y-110000000D03*
X142000000Y-81581000D03*
%TO.N,Net-(Q2-G)*%
X156000000Y-79000000D03*
X153000000Y-92000000D03*
%TD*%
D20*
%TO.N,Net-(U2-SIG)*%
X186080000Y-117000000D02*
X197620000Y-105460000D01*
X197620000Y-105460000D02*
X197620000Y-99920000D01*
%TO.N,Net-(C1-Pad1)*%
X132380000Y-68380000D02*
X130878000Y-69882000D01*
X130878000Y-69882000D02*
X130878000Y-87724913D01*
X130878000Y-87724913D02*
X134592087Y-91439000D01*
%TO.N,VDD*%
X166000000Y-89000000D02*
X167000000Y-90000000D01*
X163920000Y-89000000D02*
X166000000Y-89000000D01*
X177000000Y-90000000D02*
X177000000Y-89620000D01*
X177000000Y-89620000D02*
X178000000Y-88620000D01*
X162380000Y-102671480D02*
X161854260Y-102145740D01*
X162380000Y-104000000D02*
X162380000Y-102671480D01*
X162380000Y-109020313D02*
X160179843Y-106820156D01*
X162380000Y-111000000D02*
X162380000Y-109020313D01*
X178000000Y-81000000D02*
X180000000Y-83000000D01*
X180000000Y-83000000D02*
X180000000Y-86620000D01*
X180000000Y-86620000D02*
X178000000Y-88620000D01*
X178000000Y-73380000D02*
X176899000Y-74481000D01*
X176899000Y-74481000D02*
X176899000Y-79899000D01*
X176899000Y-79899000D02*
X178000000Y-81000000D01*
X163920000Y-74920000D02*
X164000000Y-75000000D01*
X163920000Y-72000000D02*
X163920000Y-74920000D01*
X141380000Y-68380000D02*
X142000000Y-69000000D01*
X140000000Y-68380000D02*
X141380000Y-68380000D01*
%TO.N,Net-(C2-Pad1)*%
X139000000Y-111000000D02*
X138555000Y-111000000D01*
X138555000Y-111000000D02*
X137555000Y-110000000D01*
X185540000Y-102000000D02*
X185000000Y-102000000D01*
X187620000Y-99920000D02*
X185540000Y-102000000D01*
%TO.N,Net-(U2-SIG)*%
X178000000Y-78460000D02*
X184519000Y-84979000D01*
X184519000Y-84979000D02*
X184519000Y-89076050D01*
X184519000Y-89076050D02*
X195362950Y-99920000D01*
X195362950Y-99920000D02*
X197620000Y-99920000D01*
%TO.N,Net-(Q2-G)*%
X175920000Y-117000000D02*
X178721000Y-114199000D01*
X178721000Y-99134840D02*
X178405160Y-98819000D01*
X178721000Y-114199000D02*
X178721000Y-99134840D01*
X178405160Y-98819000D02*
X176321000Y-98819000D01*
X176321000Y-98819000D02*
X176321000Y-108843950D01*
X177021000Y-110456050D02*
X176376050Y-111101000D01*
X171658050Y-111101000D02*
X155607050Y-95050000D01*
X176321000Y-108843950D02*
X177021000Y-109543950D01*
X176376050Y-111101000D02*
X171658050Y-111101000D01*
X155607050Y-95050000D02*
X152580000Y-95050000D01*
X177021000Y-109543950D02*
X177021000Y-110456050D01*
%TO.N,Net-(U2-REFOUT)*%
X175920000Y-110000000D02*
X175920000Y-85620000D01*
X175920000Y-85620000D02*
X178000000Y-83540000D01*
%TO.N,Net-(D3-A)*%
X170000000Y-111000000D02*
X165208217Y-111000000D01*
X165208217Y-111000000D02*
X150559217Y-96351000D01*
X148786500Y-94483283D02*
X155870783Y-87399000D01*
X155870783Y-87399000D02*
X167399000Y-87399000D01*
X167399000Y-87399000D02*
X169000000Y-89000000D01*
X150559217Y-96351000D02*
X149520783Y-96351000D01*
X149520783Y-96351000D02*
X148786500Y-95616717D01*
X148786500Y-95616717D02*
X148786500Y-94483283D01*
%TO.N,Net-(D4-A)*%
X170000000Y-104000000D02*
X170000000Y-90937844D01*
X170000000Y-90937844D02*
X169663156Y-90601000D01*
%TO.N,Net-(D5-K)*%
X139000000Y-83000000D02*
X139380000Y-83000000D01*
X139380000Y-83000000D02*
X140000000Y-83620000D01*
X140000000Y-76000000D02*
X140000000Y-77000000D01*
%TO.N,Net-(Q2-G)*%
X140000000Y-78540000D02*
X147813217Y-78540000D01*
X147813217Y-78540000D02*
X148786500Y-77566717D01*
X151279000Y-75699000D02*
X152580000Y-77000000D01*
X148786500Y-77566717D02*
X148786500Y-76433283D01*
X148786500Y-76433283D02*
X149520783Y-75699000D01*
X149520783Y-75699000D02*
X151279000Y-75699000D01*
%TO.N,Net-(C1-Pad1)*%
X137555000Y-95000000D02*
X137555000Y-93556087D01*
X137555000Y-93556087D02*
X135437913Y-91439000D01*
X133593000Y-113129013D02*
X139564987Y-119101000D01*
X170456050Y-119101000D02*
X177620000Y-111937050D01*
X177620000Y-111937050D02*
X177620000Y-99920000D01*
X135437913Y-91439000D02*
X134592087Y-91439000D01*
X134592087Y-91439000D02*
X133593000Y-92438087D01*
X133593000Y-92438087D02*
X133593000Y-113129013D01*
X139564987Y-119101000D02*
X170456050Y-119101000D01*
%TO.N,Net-(D2-K)*%
X148000000Y-104000000D02*
X144000000Y-104000000D01*
X144000000Y-104000000D02*
X135015000Y-95015000D01*
X135015000Y-95015000D02*
X135015000Y-92460000D01*
%TO.N,Net-(D1-K)*%
X148000000Y-111000000D02*
X149101000Y-112101000D01*
X156076050Y-112101000D02*
X156721000Y-111456050D01*
X156721000Y-105101000D02*
X155620000Y-104000000D01*
X149101000Y-112101000D02*
X156076050Y-112101000D01*
X156721000Y-111456050D02*
X156721000Y-105101000D01*
%TO.N,Net-(D1-A)*%
X135015000Y-97540000D02*
X142576000Y-105101000D01*
X142576000Y-105101000D02*
X149721000Y-105101000D01*
X149721000Y-105101000D02*
X155620000Y-111000000D01*
%TO.N,Net-(D6-K)*%
X135015000Y-107460000D02*
X133994000Y-108481000D01*
X133994000Y-108481000D02*
X133994000Y-112962913D01*
X133994000Y-112962913D02*
X139031087Y-118000000D01*
X139031087Y-118000000D02*
X148190000Y-118000000D01*
%TO.N,Net-(D5-K)*%
X155810000Y-118000000D02*
X155810000Y-115810000D01*
X140000000Y-87000000D02*
X140000000Y-83620000D01*
X155810000Y-115810000D02*
X155000000Y-115000000D01*
X162380000Y-118000000D02*
X155810000Y-118000000D01*
%TO.N,Net-(D5-A)*%
X135015000Y-112540000D02*
X159540000Y-112540000D01*
X165000000Y-118000000D02*
X170000000Y-118000000D01*
X159540000Y-112540000D02*
X165000000Y-118000000D01*
%TO.N,Net-(C2-Pad1)*%
X140000000Y-81080000D02*
X141499000Y-81080000D01*
X141000000Y-110000000D02*
X137555000Y-110000000D01*
X141499000Y-81080000D02*
X142000000Y-81581000D01*
%TO.N,Net-(Q1-G)*%
X132380000Y-76000000D02*
X136021000Y-72359000D01*
X141320783Y-72359000D02*
X146980783Y-66699000D01*
X151279000Y-66699000D02*
X152580000Y-68000000D01*
X136021000Y-72359000D02*
X141320783Y-72359000D01*
X146980783Y-66699000D02*
X151279000Y-66699000D01*
X132380000Y-76000000D02*
X132380000Y-78540000D01*
%TO.N,Net-(D1-K)*%
X132380000Y-73460000D02*
X131279000Y-74561000D01*
X131279000Y-74561000D02*
X131279000Y-81536050D01*
X131279000Y-81536050D02*
X131923950Y-82181000D01*
X132810783Y-82181000D02*
X154629783Y-104000000D01*
X131923950Y-82181000D02*
X132810783Y-82181000D01*
X154629783Y-104000000D02*
X155620000Y-104000000D01*
X132380000Y-70920000D02*
X132380000Y-73460000D01*
%TO.N,Net-(D4-A)*%
X150040000Y-95050000D02*
X150040000Y-93960000D01*
X150040000Y-93960000D02*
X153399000Y-90601000D01*
X153399000Y-90601000D02*
X169663156Y-90601000D01*
X169663156Y-90601000D02*
X170601000Y-89663156D01*
X170601000Y-89663156D02*
X170601000Y-73601000D01*
X170601000Y-73601000D02*
X169000000Y-72000000D01*
%TO.N,Net-(Q2-G)*%
X156000000Y-79000000D02*
X154000000Y-77000000D01*
X152580000Y-95050000D02*
X152580000Y-92420000D01*
X152580000Y-92420000D02*
X153000000Y-92000000D01*
X154000000Y-77000000D02*
X152580000Y-77000000D01*
%TO.N,Net-(Q3-G)*%
X152580000Y-86000000D02*
X148761000Y-82181000D01*
X133481000Y-82181000D02*
X132380000Y-81080000D01*
X148761000Y-82181000D02*
X133481000Y-82181000D01*
%TO.N,Net-(Q3-D)*%
X150040000Y-86000000D02*
X150040000Y-92510000D01*
X150040000Y-92510000D02*
X147500000Y-95050000D01*
%TO.N,Net-(D3-A)*%
X150040000Y-77000000D02*
X157040000Y-84000000D01*
X157040000Y-84000000D02*
X164000000Y-84000000D01*
X164000000Y-84000000D02*
X169000000Y-89000000D01*
%TO.N,Net-(Q1-D)*%
X150040000Y-68000000D02*
X150040000Y-74460000D01*
X150040000Y-74460000D02*
X147500000Y-77000000D01*
%TO.N,Net-(U2-LED1)*%
X192500000Y-67300000D02*
X192399000Y-67199000D01*
X192399000Y-67199000D02*
X179101000Y-67199000D01*
X179101000Y-67199000D02*
X178000000Y-68300000D01*
%TO.N,Net-(U2-LED2)*%
X185620000Y-68300000D02*
X190960000Y-68300000D01*
X190960000Y-68300000D02*
X192500000Y-69840000D01*
%TO.N,Net-(U2-LED3)*%
X185620000Y-70840000D02*
X190960000Y-70840000D01*
X190960000Y-70840000D02*
X192500000Y-72380000D01*
%TO.N,Net-(U2-LED4)*%
X185620000Y-73380000D02*
X190960000Y-73380000D01*
X190960000Y-73380000D02*
X192500000Y-74920000D01*
%TO.N,Net-(U2-LED5)*%
X185620000Y-75920000D02*
X190960000Y-75920000D01*
X190960000Y-75920000D02*
X192500000Y-77460000D01*
%TO.N,Net-(U2-LED6)*%
X185620000Y-78460000D02*
X190960000Y-78460000D01*
X190960000Y-78460000D02*
X192500000Y-80000000D01*
%TO.N,Net-(U2-LED7)*%
X185620000Y-81000000D02*
X190960000Y-81000000D01*
X190960000Y-81000000D02*
X192500000Y-82540000D01*
%TO.N,Net-(U2-LED8)*%
X185620000Y-83540000D02*
X190960000Y-83540000D01*
X190960000Y-83540000D02*
X192500000Y-85080000D01*
%TO.N,Net-(U2-LED9)*%
X185620000Y-86080000D02*
X190960000Y-86080000D01*
X190960000Y-86080000D02*
X192500000Y-87620000D01*
%TO.N,Net-(U2-LED10)*%
X185620000Y-88620000D02*
X190960000Y-88620000D01*
X190960000Y-88620000D02*
X192500000Y-90160000D01*
%TO.N,Net-(BAR1-K-Pad11)*%
X200120000Y-90160000D02*
X200120000Y-95177050D01*
X200120000Y-95177050D02*
X207620000Y-102677050D01*
X207620000Y-102677050D02*
X207620000Y-105170000D01*
%TO.N,Net-(BAR1-K-Pad12)*%
X200120000Y-87620000D02*
X203599000Y-91099000D01*
X203599000Y-91099000D02*
X203599000Y-97099000D01*
X203599000Y-97099000D02*
X207620000Y-101120000D01*
%TO.N,Net-(BAR1-K-Pad13)*%
X200120000Y-85120000D02*
X204000000Y-89000000D01*
X200120000Y-85080000D02*
X200120000Y-85120000D01*
X204000000Y-89000000D02*
X204000000Y-93450000D01*
X204000000Y-93450000D02*
X207620000Y-97070000D01*
%TO.N,Net-(BAR1-K-Pad14)*%
X200120000Y-82540000D02*
X206519000Y-88939000D01*
X206519000Y-88939000D02*
X206519000Y-91919000D01*
X206519000Y-91919000D02*
X207620000Y-93020000D01*
%TO.N,Net-(BAR1-K-Pad15)*%
X200120000Y-80000000D02*
X207620000Y-87500000D01*
X207620000Y-87500000D02*
X207620000Y-88970000D01*
%TO.N,Net-(BAR1-K-Pad16)*%
X200120000Y-77460000D02*
X207580000Y-84920000D01*
X207580000Y-84920000D02*
X207620000Y-84920000D01*
%TO.N,Net-(BAR1-K-Pad17)*%
X200120000Y-74920000D02*
X201670000Y-74920000D01*
X201670000Y-74920000D02*
X207620000Y-80870000D01*
%TO.N,Net-(BAR1-K-Pad18)*%
X200120000Y-72380000D02*
X204380000Y-72380000D01*
X204380000Y-72380000D02*
X207620000Y-75620000D01*
X207620000Y-75620000D02*
X207620000Y-76820000D01*
%TO.N,Net-(BAR1-K-Pad19)*%
X200120000Y-69840000D02*
X204690000Y-69840000D01*
X204690000Y-69840000D02*
X207620000Y-72770000D01*
%TO.N,Net-(BAR1-K-Pad20)*%
X200120000Y-67300000D02*
X206200000Y-67300000D01*
X206200000Y-67300000D02*
X207620000Y-68720000D01*
%TD*%
%TA.AperFunction,Conductor*%
%TO.N,GND*%
G36*
X133459474Y-84345921D02*
G01*
X133491859Y-84301349D01*
X133584756Y-84119028D01*
X133599432Y-84073860D01*
X133638868Y-84016184D01*
X133703227Y-83988985D01*
X133772073Y-84000899D01*
X133805043Y-84024495D01*
X154261067Y-104480520D01*
X154261069Y-104480521D01*
X154261073Y-104480524D01*
X154366553Y-104541422D01*
X154397999Y-104559577D01*
X154399722Y-104560038D01*
X154401010Y-104560823D01*
X154405506Y-104562686D01*
X154405215Y-104563387D01*
X154459381Y-104596402D01*
X154478112Y-104623517D01*
X154507713Y-104681611D01*
X154628028Y-104847213D01*
X154772786Y-104991971D01*
X154927749Y-105104556D01*
X154938390Y-105112287D01*
X155031840Y-105159902D01*
X155120776Y-105205218D01*
X155120778Y-105205218D01*
X155120781Y-105205220D01*
X155211856Y-105234812D01*
X155315465Y-105268477D01*
X155339931Y-105272352D01*
X155517648Y-105300500D01*
X155517649Y-105300500D01*
X155722351Y-105300500D01*
X155722352Y-105300500D01*
X155924534Y-105268477D01*
X155938842Y-105263827D01*
X155954054Y-105263392D01*
X155968315Y-105258074D01*
X155988268Y-105262414D01*
X156008682Y-105261831D01*
X156022769Y-105269920D01*
X156036588Y-105272926D01*
X156064842Y-105294077D01*
X156084181Y-105313416D01*
X156117666Y-105374739D01*
X156120500Y-105401097D01*
X156120500Y-109624524D01*
X156100815Y-109691563D01*
X156048011Y-109737318D01*
X155978853Y-109747262D01*
X155958183Y-109742455D01*
X155924542Y-109731524D01*
X155924535Y-109731523D01*
X155815144Y-109714197D01*
X155722352Y-109699500D01*
X155517648Y-109699500D01*
X155477211Y-109705904D01*
X155315462Y-109731523D01*
X155315460Y-109731523D01*
X155301149Y-109736173D01*
X155231308Y-109738164D01*
X155175157Y-109705921D01*
X150208590Y-104739355D01*
X150208588Y-104739352D01*
X150089717Y-104620481D01*
X150089716Y-104620480D01*
X149984228Y-104559577D01*
X149984227Y-104559576D01*
X149952783Y-104541422D01*
X149896881Y-104526443D01*
X149800057Y-104500499D01*
X149641943Y-104500499D01*
X149634347Y-104500499D01*
X149634331Y-104500500D01*
X149424500Y-104500500D01*
X149357461Y-104480815D01*
X149311706Y-104428011D01*
X149300500Y-104376500D01*
X149300499Y-103399998D01*
X149300498Y-103399980D01*
X149289999Y-103297203D01*
X149289998Y-103297200D01*
X149234814Y-103130666D01*
X149142712Y-102981344D01*
X149018656Y-102857288D01*
X148917244Y-102794737D01*
X148869336Y-102765187D01*
X148869331Y-102765185D01*
X148867862Y-102764698D01*
X148702797Y-102710001D01*
X148702795Y-102710000D01*
X148600010Y-102699500D01*
X147399998Y-102699500D01*
X147399981Y-102699501D01*
X147297203Y-102710000D01*
X147297200Y-102710001D01*
X147130668Y-102765185D01*
X147130663Y-102765187D01*
X146981342Y-102857289D01*
X146857289Y-102981342D01*
X146765187Y-103130663D01*
X146765185Y-103130668D01*
X146710000Y-103297204D01*
X146709088Y-103301467D01*
X146675801Y-103362898D01*
X146614586Y-103396581D01*
X146587837Y-103399500D01*
X144300097Y-103399500D01*
X144233058Y-103379815D01*
X144212416Y-103363181D01*
X137266343Y-96417108D01*
X137232858Y-96355785D01*
X137237842Y-96286093D01*
X137279714Y-96230160D01*
X137345178Y-96205743D01*
X137373418Y-96206953D01*
X137458945Y-96220500D01*
X137458946Y-96220500D01*
X137651054Y-96220500D01*
X137651055Y-96220500D01*
X137840801Y-96190447D01*
X138023509Y-96131082D01*
X138194681Y-96043865D01*
X138350102Y-95930945D01*
X138485945Y-95795102D01*
X138598865Y-95639681D01*
X138686082Y-95468509D01*
X138745447Y-95285801D01*
X138775500Y-95096055D01*
X138775500Y-94903945D01*
X138745447Y-94714199D01*
X138686082Y-94531491D01*
X138598865Y-94360319D01*
X138485945Y-94204898D01*
X138350102Y-94069055D01*
X138271533Y-94011971D01*
X138206614Y-93964804D01*
X138163949Y-93909473D01*
X138155500Y-93864486D01*
X138155500Y-93477032D01*
X138155500Y-93477030D01*
X138132434Y-93390945D01*
X138114577Y-93324302D01*
X138072709Y-93251785D01*
X138035520Y-93187371D01*
X137923716Y-93075567D01*
X137923715Y-93075566D01*
X137919385Y-93071236D01*
X137919374Y-93071226D01*
X135925503Y-91077355D01*
X135925501Y-91077352D01*
X135806630Y-90958481D01*
X135806629Y-90958480D01*
X135719817Y-90908360D01*
X135719817Y-90908359D01*
X135719813Y-90908358D01*
X135669698Y-90879423D01*
X135516970Y-90838499D01*
X135358856Y-90838499D01*
X135351260Y-90838499D01*
X135351244Y-90838500D01*
X134892184Y-90838500D01*
X134825145Y-90818815D01*
X134804503Y-90802181D01*
X131514819Y-87512497D01*
X131481334Y-87451174D01*
X131478500Y-87424816D01*
X131478500Y-84815274D01*
X131498185Y-84748235D01*
X131550989Y-84702480D01*
X131620147Y-84692536D01*
X131675388Y-84714958D01*
X131698648Y-84731858D01*
X131880968Y-84824755D01*
X132075582Y-84887990D01*
X132277683Y-84920000D01*
X132482317Y-84920000D01*
X132684417Y-84887990D01*
X132879031Y-84824755D01*
X133061349Y-84731859D01*
X133105921Y-84699474D01*
X132426447Y-84020000D01*
X132432661Y-84020000D01*
X132534394Y-83992741D01*
X132625606Y-83940080D01*
X132700080Y-83865606D01*
X132752741Y-83774394D01*
X132780000Y-83672661D01*
X132780000Y-83666447D01*
X133459474Y-84345921D01*
G37*
%TD.AperFunction*%
%TA.AperFunction,Conductor*%
G36*
X138090937Y-82785756D02*
G01*
X138106032Y-82785082D01*
X138123784Y-82795401D01*
X138143481Y-82801185D01*
X138153373Y-82812601D01*
X138166438Y-82820196D01*
X138175793Y-82838475D01*
X138189236Y-82853989D01*
X138191892Y-82869932D01*
X138198270Y-82882393D01*
X138199845Y-82917652D01*
X138199500Y-82921155D01*
X138199500Y-83078846D01*
X138230261Y-83233489D01*
X138230264Y-83233501D01*
X138290602Y-83379172D01*
X138290609Y-83379185D01*
X138378210Y-83510288D01*
X138378213Y-83510292D01*
X138489707Y-83621786D01*
X138489711Y-83621789D01*
X138620814Y-83709390D01*
X138620821Y-83709394D01*
X138638669Y-83716786D01*
X138693072Y-83760626D01*
X138713690Y-83811949D01*
X138731522Y-83924531D01*
X138731523Y-83924534D01*
X138794780Y-84119219D01*
X138880686Y-84287819D01*
X138887715Y-84301613D01*
X139008028Y-84467213D01*
X139008034Y-84467219D01*
X139152781Y-84611966D01*
X139318390Y-84732287D01*
X139331793Y-84739116D01*
X139382589Y-84787088D01*
X139399500Y-84849601D01*
X139399500Y-86420234D01*
X139379815Y-86487273D01*
X139378602Y-86489125D01*
X139290609Y-86620814D01*
X139290602Y-86620827D01*
X139230264Y-86766498D01*
X139230261Y-86766510D01*
X139199500Y-86921153D01*
X139199500Y-87078846D01*
X139230261Y-87233489D01*
X139230264Y-87233501D01*
X139290602Y-87379172D01*
X139290609Y-87379185D01*
X139378210Y-87510288D01*
X139378213Y-87510292D01*
X139489707Y-87621786D01*
X139489711Y-87621789D01*
X139620814Y-87709390D01*
X139620827Y-87709397D01*
X139695669Y-87740397D01*
X139766503Y-87769737D01*
X139921153Y-87800499D01*
X139921156Y-87800500D01*
X139921158Y-87800500D01*
X140078844Y-87800500D01*
X140078845Y-87800499D01*
X140233497Y-87769737D01*
X140379179Y-87709394D01*
X140510289Y-87621789D01*
X140621789Y-87510289D01*
X140709394Y-87379179D01*
X140711862Y-87373222D01*
X140745755Y-87291394D01*
X140769737Y-87233497D01*
X140800500Y-87078842D01*
X140800500Y-86921158D01*
X140800500Y-86921155D01*
X140800499Y-86921153D01*
X140769737Y-86766503D01*
X140749578Y-86717834D01*
X140709397Y-86620827D01*
X140709390Y-86620814D01*
X140621398Y-86489125D01*
X140615747Y-86471078D01*
X140605523Y-86455169D01*
X140601071Y-86424207D01*
X140600520Y-86422447D01*
X140600500Y-86420234D01*
X140600500Y-84849601D01*
X140620185Y-84782562D01*
X140668206Y-84739116D01*
X140681610Y-84732287D01*
X140847219Y-84611966D01*
X140991966Y-84467219D01*
X140991968Y-84467215D01*
X140991971Y-84467213D01*
X141063534Y-84368713D01*
X141112287Y-84301610D01*
X141205220Y-84119219D01*
X141268477Y-83924534D01*
X141300500Y-83722352D01*
X141300500Y-83517648D01*
X141278567Y-83379172D01*
X141268477Y-83315465D01*
X141205660Y-83122136D01*
X141205220Y-83120781D01*
X141205218Y-83120778D01*
X141205218Y-83120776D01*
X141124212Y-82961795D01*
X141111316Y-82893126D01*
X141137592Y-82828386D01*
X141194698Y-82788128D01*
X141234697Y-82781500D01*
X148460903Y-82781500D01*
X148527942Y-82801185D01*
X148548584Y-82817819D01*
X150018584Y-84287819D01*
X150052069Y-84349142D01*
X150047085Y-84418834D01*
X150005213Y-84474767D01*
X149939749Y-84499184D01*
X149930903Y-84499500D01*
X149925646Y-84499500D01*
X149850349Y-84511426D01*
X149699753Y-84535278D01*
X149699750Y-84535278D01*
X149482244Y-84605950D01*
X149278461Y-84709783D01*
X149172896Y-84786480D01*
X149093434Y-84844214D01*
X149093432Y-84844216D01*
X149093431Y-84844216D01*
X148931716Y-85005931D01*
X148931709Y-85005940D01*
X148870007Y-85090864D01*
X148814677Y-85133530D01*
X148745063Y-85139508D01*
X148683269Y-85106901D01*
X148669372Y-85090863D01*
X148607907Y-85006263D01*
X148607902Y-85006257D01*
X148446242Y-84844597D01*
X148261276Y-84710211D01*
X148057568Y-84606417D01*
X147840124Y-84535765D01*
X147750000Y-84521490D01*
X147750000Y-85509252D01*
X147712292Y-85487482D01*
X147572409Y-85450000D01*
X147427591Y-85450000D01*
X147287708Y-85487482D01*
X147250000Y-85509252D01*
X147250000Y-84521490D01*
X147249999Y-84521490D01*
X147159875Y-84535765D01*
X146942431Y-84606417D01*
X146738723Y-84710211D01*
X146553757Y-84844597D01*
X146392097Y-85006257D01*
X146257711Y-85191223D01*
X146153917Y-85394929D01*
X146083265Y-85612371D01*
X146061468Y-85750000D01*
X147009252Y-85750000D01*
X146987482Y-85787708D01*
X146950000Y-85927591D01*
X146950000Y-86072409D01*
X146987482Y-86212292D01*
X147009252Y-86250000D01*
X146061468Y-86250000D01*
X146083265Y-86387628D01*
X146153917Y-86605070D01*
X146257711Y-86808776D01*
X146392097Y-86993742D01*
X146553757Y-87155402D01*
X146738723Y-87289788D01*
X146942429Y-87393582D01*
X147159871Y-87464234D01*
X147250000Y-87478509D01*
X147250000Y-86490747D01*
X147287708Y-86512518D01*
X147427591Y-86550000D01*
X147572409Y-86550000D01*
X147712292Y-86512518D01*
X147750000Y-86490747D01*
X147750000Y-87478508D01*
X147840128Y-87464234D01*
X148057570Y-87393582D01*
X148261276Y-87289788D01*
X148446242Y-87155402D01*
X148607905Y-86993739D01*
X148669371Y-86909137D01*
X148724701Y-86866470D01*
X148794314Y-86860491D01*
X148856109Y-86893096D01*
X148870007Y-86909134D01*
X148931714Y-86994066D01*
X149093434Y-87155786D01*
X149278462Y-87290217D01*
X149371795Y-87337772D01*
X149422590Y-87385745D01*
X149439500Y-87448256D01*
X149439500Y-92209902D01*
X149419815Y-92276941D01*
X149403181Y-92297583D01*
X148101718Y-93599045D01*
X148040395Y-93632530D01*
X147975720Y-93629295D01*
X147840247Y-93585278D01*
X147840248Y-93585278D01*
X147654812Y-93555908D01*
X147614354Y-93549500D01*
X147385646Y-93549500D01*
X147345188Y-93555908D01*
X147159753Y-93585278D01*
X147159750Y-93585278D01*
X146942244Y-93655950D01*
X146738461Y-93759783D01*
X146672550Y-93807671D01*
X146553434Y-93894214D01*
X146553432Y-93894216D01*
X146553431Y-93894216D01*
X146391716Y-94055931D01*
X146391716Y-94055932D01*
X146391714Y-94055934D01*
X146360080Y-94099474D01*
X146257281Y-94240963D01*
X146153403Y-94444834D01*
X146105429Y-94495629D01*
X146037608Y-94512424D01*
X145971473Y-94489886D01*
X145955238Y-94476219D01*
X140247228Y-88768209D01*
X134472198Y-82993180D01*
X134438714Y-82931858D01*
X134443698Y-82862166D01*
X134485570Y-82806233D01*
X134551034Y-82781816D01*
X134559880Y-82781500D01*
X138076442Y-82781500D01*
X138090937Y-82785756D01*
G37*
%TD.AperFunction*%
%TA.AperFunction,Conductor*%
G36*
X177600000Y-86132661D02*
G01*
X177627259Y-86234394D01*
X177679920Y-86325606D01*
X177754394Y-86400080D01*
X177845606Y-86452741D01*
X177947339Y-86480000D01*
X177953553Y-86480000D01*
X177274076Y-87159474D01*
X177318652Y-87191861D01*
X177411628Y-87239234D01*
X177462425Y-87287208D01*
X177479220Y-87355029D01*
X177456683Y-87421164D01*
X177411630Y-87460203D01*
X177318388Y-87507713D01*
X177152786Y-87628028D01*
X177008028Y-87772786D01*
X176887715Y-87938386D01*
X176794781Y-88120776D01*
X176762431Y-88220341D01*
X176722993Y-88278016D01*
X176658634Y-88305214D01*
X176589788Y-88293299D01*
X176538312Y-88246055D01*
X176520500Y-88182022D01*
X176520500Y-86516361D01*
X176540185Y-86449322D01*
X176592989Y-86403567D01*
X176662147Y-86393623D01*
X176725703Y-86422648D01*
X176762431Y-86478042D01*
X176795244Y-86579031D01*
X176888141Y-86761350D01*
X176888147Y-86761359D01*
X176920523Y-86805921D01*
X176920524Y-86805922D01*
X177600000Y-86126446D01*
X177600000Y-86132661D01*
G37*
%TD.AperFunction*%
%TA.AperFunction,Conductor*%
G36*
X179346945Y-84073071D02*
G01*
X179390397Y-84127786D01*
X179399500Y-84174420D01*
X179399500Y-85446679D01*
X179379815Y-85513718D01*
X179327011Y-85559473D01*
X179257853Y-85569417D01*
X179194297Y-85540392D01*
X179165015Y-85502974D01*
X179111859Y-85398650D01*
X179079474Y-85354077D01*
X179079474Y-85354076D01*
X178400000Y-86033553D01*
X178400000Y-86027339D01*
X178372741Y-85925606D01*
X178320080Y-85834394D01*
X178245606Y-85759920D01*
X178154394Y-85707259D01*
X178052661Y-85680000D01*
X178046446Y-85680000D01*
X178725922Y-85000524D01*
X178725921Y-85000523D01*
X178681359Y-84968147D01*
X178681350Y-84968141D01*
X178588369Y-84920765D01*
X178537573Y-84872790D01*
X178520778Y-84804969D01*
X178543315Y-84738835D01*
X178588370Y-84699795D01*
X178589000Y-84699474D01*
X178681610Y-84652287D01*
X178753688Y-84599920D01*
X178847213Y-84531971D01*
X178847215Y-84531968D01*
X178847219Y-84531966D01*
X178991966Y-84387219D01*
X178991968Y-84387215D01*
X178991971Y-84387213D01*
X179112284Y-84221614D01*
X179112283Y-84221614D01*
X179112287Y-84221610D01*
X179165015Y-84118124D01*
X179212989Y-84067329D01*
X179280810Y-84050534D01*
X179346945Y-84073071D01*
G37*
%TD.AperFunction*%
%TA.AperFunction,Conductor*%
G36*
X184311563Y-67819185D02*
G01*
X184357318Y-67871989D01*
X184367262Y-67941147D01*
X184362455Y-67961817D01*
X184351524Y-67995457D01*
X184351523Y-67995464D01*
X184338852Y-68075465D01*
X184319500Y-68197648D01*
X184319500Y-68402352D01*
X184322847Y-68423482D01*
X184351522Y-68604534D01*
X184414781Y-68799223D01*
X184466135Y-68900009D01*
X184506897Y-68980009D01*
X184507715Y-68981613D01*
X184628028Y-69147213D01*
X184772786Y-69291971D01*
X184919628Y-69398656D01*
X184938390Y-69412287D01*
X185008983Y-69448256D01*
X185031080Y-69459515D01*
X185081876Y-69507490D01*
X185098671Y-69575311D01*
X185076134Y-69641446D01*
X185031080Y-69680485D01*
X184938386Y-69727715D01*
X184772786Y-69848028D01*
X184628028Y-69992786D01*
X184507715Y-70158386D01*
X184414781Y-70340776D01*
X184351522Y-70535465D01*
X184319500Y-70737648D01*
X184319500Y-70942351D01*
X184351522Y-71144534D01*
X184414781Y-71339223D01*
X184466385Y-71440500D01*
X184507585Y-71521359D01*
X184507715Y-71521613D01*
X184628028Y-71687213D01*
X184772786Y-71831971D01*
X184882891Y-71911965D01*
X184938390Y-71952287D01*
X185029840Y-71998883D01*
X185031080Y-71999515D01*
X185081876Y-72047490D01*
X185098671Y-72115311D01*
X185076134Y-72181446D01*
X185031080Y-72220485D01*
X184938386Y-72267715D01*
X184772786Y-72388028D01*
X184628028Y-72532786D01*
X184507715Y-72698386D01*
X184414781Y-72880776D01*
X184351522Y-73075465D01*
X184326684Y-73232290D01*
X184319500Y-73277648D01*
X184319500Y-73482352D01*
X184323878Y-73509995D01*
X184351522Y-73684534D01*
X184414781Y-73879223D01*
X184507715Y-74061613D01*
X184628028Y-74227213D01*
X184772786Y-74371971D01*
X184882892Y-74451966D01*
X184938390Y-74492287D01*
X185029840Y-74538883D01*
X185031080Y-74539515D01*
X185081876Y-74587490D01*
X185098671Y-74655311D01*
X185076134Y-74721446D01*
X185031080Y-74760485D01*
X184938386Y-74807715D01*
X184772786Y-74928028D01*
X184628028Y-75072786D01*
X184507715Y-75238386D01*
X184414781Y-75420776D01*
X184351522Y-75615465D01*
X184319500Y-75817648D01*
X184319500Y-76022351D01*
X184351522Y-76224534D01*
X184414781Y-76419223D01*
X184507715Y-76601613D01*
X184628028Y-76767213D01*
X184772786Y-76911971D01*
X184887240Y-76995125D01*
X184938390Y-77032287D01*
X185025124Y-77076480D01*
X185031080Y-77079515D01*
X185081876Y-77127490D01*
X185098671Y-77195311D01*
X185076134Y-77261446D01*
X185031080Y-77300485D01*
X184938386Y-77347715D01*
X184772786Y-77468028D01*
X184628028Y-77612786D01*
X184507715Y-77778386D01*
X184414781Y-77960776D01*
X184351522Y-78155465D01*
X184319500Y-78357648D01*
X184319500Y-78562351D01*
X184351522Y-78764534D01*
X184414781Y-78959223D01*
X184466385Y-79060499D01*
X184507147Y-79140500D01*
X184507715Y-79141613D01*
X184628028Y-79307213D01*
X184772786Y-79451971D01*
X184882892Y-79531966D01*
X184938390Y-79572287D01*
X185029840Y-79618883D01*
X185031080Y-79619515D01*
X185081876Y-79667490D01*
X185098671Y-79735311D01*
X185076134Y-79801446D01*
X185031080Y-79840485D01*
X184938386Y-79887715D01*
X184772786Y-80008028D01*
X184628028Y-80152786D01*
X184507715Y-80318386D01*
X184414781Y-80500776D01*
X184351522Y-80695465D01*
X184319500Y-80897648D01*
X184319500Y-81102351D01*
X184351522Y-81304534D01*
X184414781Y-81499223D01*
X184466385Y-81600500D01*
X184491790Y-81650360D01*
X184507715Y-81681613D01*
X184628028Y-81847213D01*
X184772786Y-81991971D01*
X184886731Y-82074755D01*
X184938390Y-82112287D01*
X185029840Y-82158883D01*
X185031080Y-82159515D01*
X185081876Y-82207490D01*
X185098671Y-82275311D01*
X185076134Y-82341446D01*
X185031080Y-82380485D01*
X184938386Y-82427715D01*
X184772786Y-82548028D01*
X184772782Y-82548032D01*
X184628035Y-82692780D01*
X184628028Y-82692786D01*
X184507715Y-82858386D01*
X184414781Y-83040776D01*
X184351522Y-83235465D01*
X184319500Y-83437648D01*
X184319500Y-83630903D01*
X184299815Y-83697942D01*
X184247011Y-83743697D01*
X184177853Y-83753641D01*
X184114297Y-83724616D01*
X184107819Y-83718584D01*
X179294077Y-78904842D01*
X179260592Y-78843519D01*
X179263828Y-78778841D01*
X179268477Y-78764534D01*
X179300500Y-78562352D01*
X179300500Y-78357648D01*
X179277272Y-78210992D01*
X179268477Y-78155465D01*
X179231653Y-78042134D01*
X179205220Y-77960781D01*
X179205218Y-77960778D01*
X179205218Y-77960776D01*
X179159879Y-77871795D01*
X179112287Y-77778390D01*
X179093937Y-77753133D01*
X178991971Y-77612786D01*
X178847213Y-77468028D01*
X178681611Y-77347713D01*
X178588369Y-77300203D01*
X178537574Y-77252229D01*
X178520779Y-77184407D01*
X178543317Y-77118273D01*
X178588371Y-77079234D01*
X178681346Y-77031861D01*
X178681347Y-77031861D01*
X178725921Y-76999474D01*
X178046447Y-76320000D01*
X178052661Y-76320000D01*
X178154394Y-76292741D01*
X178245606Y-76240080D01*
X178320080Y-76165606D01*
X178372741Y-76074394D01*
X178400000Y-75972661D01*
X178400000Y-75966447D01*
X179079474Y-76645921D01*
X179111859Y-76601349D01*
X179204755Y-76419031D01*
X179267990Y-76224417D01*
X179300000Y-76022317D01*
X179300000Y-75817682D01*
X179267990Y-75615582D01*
X179204755Y-75420968D01*
X179111859Y-75238650D01*
X179079474Y-75194077D01*
X179079474Y-75194076D01*
X178400000Y-75873551D01*
X178400000Y-75867339D01*
X178372741Y-75765606D01*
X178320080Y-75674394D01*
X178245606Y-75599920D01*
X178154394Y-75547259D01*
X178052661Y-75520000D01*
X178046446Y-75520000D01*
X178725922Y-74840524D01*
X178725921Y-74840523D01*
X178681359Y-74808147D01*
X178681350Y-74808141D01*
X178588369Y-74760765D01*
X178537573Y-74712790D01*
X178520778Y-74644969D01*
X178543315Y-74578835D01*
X178588370Y-74539795D01*
X178588920Y-74539515D01*
X178681610Y-74492287D01*
X178754297Y-74439477D01*
X178847213Y-74371971D01*
X178847215Y-74371968D01*
X178847219Y-74371966D01*
X178991966Y-74227219D01*
X178991968Y-74227215D01*
X178991971Y-74227213D01*
X179075472Y-74112282D01*
X179112287Y-74061610D01*
X179205220Y-73879219D01*
X179268477Y-73684534D01*
X179300500Y-73482352D01*
X179300500Y-73277648D01*
X179281147Y-73155457D01*
X179268477Y-73075465D01*
X179231388Y-72961317D01*
X179205220Y-72880781D01*
X179205218Y-72880778D01*
X179205218Y-72880776D01*
X179163064Y-72798045D01*
X179112287Y-72698390D01*
X179089952Y-72667648D01*
X178991971Y-72532786D01*
X178847213Y-72388028D01*
X178681611Y-72267713D01*
X178588369Y-72220203D01*
X178537574Y-72172229D01*
X178520779Y-72104407D01*
X178543317Y-72038273D01*
X178588371Y-71999234D01*
X178681346Y-71951861D01*
X178681347Y-71951861D01*
X178725921Y-71919474D01*
X178046447Y-71240000D01*
X178052661Y-71240000D01*
X178154394Y-71212741D01*
X178245606Y-71160080D01*
X178320080Y-71085606D01*
X178372741Y-70994394D01*
X178400000Y-70892661D01*
X178400000Y-70886447D01*
X179079474Y-71565921D01*
X179111859Y-71521349D01*
X179204755Y-71339031D01*
X179267990Y-71144417D01*
X179300000Y-70942317D01*
X179300000Y-70737682D01*
X179267990Y-70535582D01*
X179204755Y-70340968D01*
X179111859Y-70158650D01*
X179079474Y-70114077D01*
X179079474Y-70114076D01*
X178400000Y-70793551D01*
X178400000Y-70787339D01*
X178372741Y-70685606D01*
X178320080Y-70594394D01*
X178245606Y-70519920D01*
X178154394Y-70467259D01*
X178052661Y-70440000D01*
X178046446Y-70440000D01*
X178725922Y-69760524D01*
X178724570Y-69743349D01*
X178710299Y-69724842D01*
X178704320Y-69655229D01*
X178736925Y-69593433D01*
X178786845Y-69562148D01*
X178869334Y-69534814D01*
X179018656Y-69442712D01*
X179142712Y-69318656D01*
X179234814Y-69169334D01*
X179289999Y-69002797D01*
X179300500Y-68900009D01*
X179300499Y-67923499D01*
X179320183Y-67856461D01*
X179372987Y-67810706D01*
X179424499Y-67799500D01*
X184244524Y-67799500D01*
X184311563Y-67819185D01*
G37*
%TD.AperFunction*%
%TA.AperFunction,Conductor*%
G36*
X147750000Y-69478508D02*
G01*
X147840128Y-69464234D01*
X148057570Y-69393582D01*
X148261276Y-69289788D01*
X148446242Y-69155402D01*
X148607905Y-68993739D01*
X148669371Y-68909137D01*
X148724701Y-68866470D01*
X148794314Y-68860491D01*
X148856109Y-68893096D01*
X148870007Y-68909134D01*
X148931714Y-68994066D01*
X149093434Y-69155786D01*
X149278462Y-69290217D01*
X149371795Y-69337772D01*
X149422590Y-69385745D01*
X149439500Y-69448256D01*
X149439500Y-74159902D01*
X149419815Y-74226941D01*
X149403181Y-74247583D01*
X148101718Y-75549045D01*
X148040395Y-75582530D01*
X147975720Y-75579295D01*
X147840247Y-75535278D01*
X147840248Y-75535278D01*
X147654812Y-75505908D01*
X147614354Y-75499500D01*
X147385646Y-75499500D01*
X147345188Y-75505908D01*
X147159753Y-75535278D01*
X147159750Y-75535278D01*
X146942244Y-75605950D01*
X146738461Y-75709783D01*
X146655941Y-75769738D01*
X146553434Y-75844214D01*
X146553432Y-75844216D01*
X146553431Y-75844216D01*
X146391716Y-76005931D01*
X146391716Y-76005932D01*
X146391714Y-76005934D01*
X146379786Y-76022352D01*
X146257283Y-76190961D01*
X146153450Y-76394744D01*
X146082778Y-76612250D01*
X146082778Y-76612253D01*
X146047000Y-76838146D01*
X146047000Y-77161853D01*
X146082778Y-77387746D01*
X146082778Y-77387749D01*
X146153450Y-77605255D01*
X146231892Y-77759205D01*
X146244788Y-77827874D01*
X146218512Y-77892615D01*
X146161405Y-77932872D01*
X146121407Y-77939500D01*
X141229602Y-77939500D01*
X141162563Y-77919815D01*
X141119117Y-77871795D01*
X141112287Y-77858390D01*
X141112285Y-77858387D01*
X141112284Y-77858385D01*
X140991971Y-77692786D01*
X140847213Y-77548028D01*
X140766598Y-77489459D01*
X140723932Y-77434130D01*
X140717953Y-77364516D01*
X140724918Y-77341698D01*
X140769737Y-77233497D01*
X140800500Y-77078842D01*
X140800500Y-77078832D01*
X140800655Y-77077262D01*
X140800970Y-77076480D01*
X140801689Y-77072868D01*
X140802373Y-77073004D01*
X140826812Y-77012473D01*
X140843526Y-76995120D01*
X140847210Y-76991972D01*
X140847219Y-76991966D01*
X140991966Y-76847219D01*
X140991968Y-76847215D01*
X140991971Y-76847213D01*
X141086104Y-76717648D01*
X141112287Y-76681610D01*
X141205220Y-76499219D01*
X141268477Y-76304534D01*
X141300500Y-76102352D01*
X141300500Y-75897648D01*
X141279586Y-75765606D01*
X141268477Y-75695465D01*
X141223227Y-75556202D01*
X141205220Y-75500781D01*
X141205218Y-75500778D01*
X141205218Y-75500776D01*
X141164455Y-75420776D01*
X141112287Y-75318390D01*
X141080844Y-75275112D01*
X140991971Y-75152786D01*
X140847213Y-75008028D01*
X140681614Y-74887715D01*
X140675006Y-74884348D01*
X140588917Y-74840483D01*
X140538123Y-74792511D01*
X140521328Y-74724690D01*
X140543865Y-74658555D01*
X140588917Y-74619516D01*
X140681610Y-74572287D01*
X140727348Y-74539057D01*
X140847213Y-74451971D01*
X140847215Y-74451968D01*
X140847219Y-74451966D01*
X140991966Y-74307219D01*
X140991968Y-74307215D01*
X140991971Y-74307213D01*
X141061680Y-74211265D01*
X141112287Y-74141610D01*
X141205220Y-73959219D01*
X141268477Y-73764534D01*
X141300500Y-73562352D01*
X141300500Y-73357648D01*
X141268477Y-73155466D01*
X141268476Y-73155462D01*
X141268476Y-73155461D01*
X141257545Y-73121819D01*
X141255550Y-73051978D01*
X141291630Y-72992145D01*
X141354331Y-72961317D01*
X141375476Y-72959501D01*
X141399837Y-72959501D01*
X141399840Y-72959501D01*
X141552568Y-72918577D01*
X141623623Y-72877553D01*
X141689499Y-72839520D01*
X141801303Y-72727716D01*
X141801303Y-72727714D01*
X141811507Y-72717511D01*
X141811510Y-72717506D01*
X145955613Y-68573405D01*
X146016933Y-68539922D01*
X146086625Y-68544906D01*
X146142558Y-68586778D01*
X146153776Y-68604793D01*
X146257711Y-68808776D01*
X146392097Y-68993742D01*
X146553757Y-69155402D01*
X146738723Y-69289788D01*
X146942429Y-69393582D01*
X147159871Y-69464234D01*
X147250000Y-69478509D01*
X147250000Y-68490747D01*
X147287708Y-68512518D01*
X147427591Y-68550000D01*
X147572409Y-68550000D01*
X147712292Y-68512518D01*
X147750000Y-68490747D01*
X147750000Y-69478508D01*
G37*
%TD.AperFunction*%
%TA.AperFunction,Conductor*%
G36*
X225002702Y-60500617D02*
G01*
X225386771Y-60517386D01*
X225397506Y-60518326D01*
X225775971Y-60568152D01*
X225786597Y-60570025D01*
X226159284Y-60652648D01*
X226169710Y-60655442D01*
X226533765Y-60770227D01*
X226543911Y-60773920D01*
X226896578Y-60920000D01*
X226906369Y-60924566D01*
X227244942Y-61100816D01*
X227254310Y-61106224D01*
X227576244Y-61311318D01*
X227585105Y-61317523D01*
X227887930Y-61549889D01*
X227896217Y-61556843D01*
X228177635Y-61814715D01*
X228185284Y-61822364D01*
X228443156Y-62103782D01*
X228450110Y-62112069D01*
X228682476Y-62414894D01*
X228688681Y-62423755D01*
X228893775Y-62745689D01*
X228899183Y-62755057D01*
X229075430Y-63093623D01*
X229080002Y-63103427D01*
X229226075Y-63456078D01*
X229229775Y-63466244D01*
X229344554Y-63830278D01*
X229347354Y-63840727D01*
X229429971Y-64213389D01*
X229431849Y-64224042D01*
X229481671Y-64602473D01*
X229482614Y-64613249D01*
X229499382Y-64997297D01*
X229499500Y-65002706D01*
X229499500Y-119997293D01*
X229499382Y-120002702D01*
X229482614Y-120386750D01*
X229481671Y-120397526D01*
X229431849Y-120775957D01*
X229429971Y-120786610D01*
X229347354Y-121159272D01*
X229344554Y-121169721D01*
X229229775Y-121533755D01*
X229226075Y-121543921D01*
X229080002Y-121896572D01*
X229075430Y-121906376D01*
X228899183Y-122244942D01*
X228893775Y-122254310D01*
X228688681Y-122576244D01*
X228682476Y-122585105D01*
X228450110Y-122887930D01*
X228443156Y-122896217D01*
X228185284Y-123177635D01*
X228177635Y-123185284D01*
X227896217Y-123443156D01*
X227887930Y-123450110D01*
X227585105Y-123682476D01*
X227576244Y-123688681D01*
X227254310Y-123893775D01*
X227244942Y-123899183D01*
X226906376Y-124075430D01*
X226896572Y-124080002D01*
X226543921Y-124226075D01*
X226533755Y-124229775D01*
X226169721Y-124344554D01*
X226159272Y-124347354D01*
X225786610Y-124429971D01*
X225775957Y-124431849D01*
X225397526Y-124481671D01*
X225386750Y-124482614D01*
X225002703Y-124499382D01*
X224997294Y-124499500D01*
X125002706Y-124499500D01*
X124997297Y-124499382D01*
X124613249Y-124482614D01*
X124602473Y-124481671D01*
X124224042Y-124431849D01*
X124213389Y-124429971D01*
X123840727Y-124347354D01*
X123830278Y-124344554D01*
X123466244Y-124229775D01*
X123456078Y-124226075D01*
X123103427Y-124080002D01*
X123093623Y-124075430D01*
X122755057Y-123899183D01*
X122745689Y-123893775D01*
X122423755Y-123688681D01*
X122414894Y-123682476D01*
X122112069Y-123450110D01*
X122103782Y-123443156D01*
X121822364Y-123185284D01*
X121814715Y-123177635D01*
X121556843Y-122896217D01*
X121549889Y-122887930D01*
X121317523Y-122585105D01*
X121311318Y-122576244D01*
X121106224Y-122254310D01*
X121100816Y-122244942D01*
X120924569Y-121906376D01*
X120919997Y-121896572D01*
X120773920Y-121543911D01*
X120770224Y-121533755D01*
X120655442Y-121169710D01*
X120652648Y-121159284D01*
X120570025Y-120786597D01*
X120568152Y-120775971D01*
X120518326Y-120397506D01*
X120517386Y-120386771D01*
X120500618Y-120002702D01*
X120500500Y-119997293D01*
X120500500Y-119878711D01*
X123149500Y-119878711D01*
X123149500Y-120121288D01*
X123181161Y-120361785D01*
X123243947Y-120596104D01*
X123336773Y-120820205D01*
X123336776Y-120820212D01*
X123458064Y-121030289D01*
X123458066Y-121030292D01*
X123458067Y-121030293D01*
X123605733Y-121222736D01*
X123605739Y-121222743D01*
X123777256Y-121394260D01*
X123777262Y-121394265D01*
X123969711Y-121541936D01*
X124179788Y-121663224D01*
X124403900Y-121756054D01*
X124638211Y-121818838D01*
X124818586Y-121842584D01*
X124878711Y-121850500D01*
X124878712Y-121850500D01*
X125121289Y-121850500D01*
X125169388Y-121844167D01*
X125361789Y-121818838D01*
X125596100Y-121756054D01*
X125820212Y-121663224D01*
X126030289Y-121541936D01*
X126222738Y-121394265D01*
X126394265Y-121222738D01*
X126541936Y-121030289D01*
X126663224Y-120820212D01*
X126756054Y-120596100D01*
X126818838Y-120361789D01*
X126850500Y-120121288D01*
X126850500Y-119878712D01*
X126850500Y-119878711D01*
X223149500Y-119878711D01*
X223149500Y-120121288D01*
X223181161Y-120361785D01*
X223243947Y-120596104D01*
X223336773Y-120820205D01*
X223336776Y-120820212D01*
X223458064Y-121030289D01*
X223458066Y-121030292D01*
X223458067Y-121030293D01*
X223605733Y-121222736D01*
X223605739Y-121222743D01*
X223777256Y-121394260D01*
X223777262Y-121394265D01*
X223969711Y-121541936D01*
X224179788Y-121663224D01*
X224403900Y-121756054D01*
X224638211Y-121818838D01*
X224818586Y-121842584D01*
X224878711Y-121850500D01*
X224878712Y-121850500D01*
X225121289Y-121850500D01*
X225169388Y-121844167D01*
X225361789Y-121818838D01*
X225596100Y-121756054D01*
X225820212Y-121663224D01*
X226030289Y-121541936D01*
X226222738Y-121394265D01*
X226394265Y-121222738D01*
X226541936Y-121030289D01*
X226663224Y-120820212D01*
X226756054Y-120596100D01*
X226818838Y-120361789D01*
X226850500Y-120121288D01*
X226850500Y-119878712D01*
X226818838Y-119638211D01*
X226756054Y-119403900D01*
X226663224Y-119179788D01*
X226541936Y-118969711D01*
X226394265Y-118777262D01*
X226394260Y-118777256D01*
X226222743Y-118605739D01*
X226222736Y-118605733D01*
X226030293Y-118458067D01*
X226030292Y-118458066D01*
X226030289Y-118458064D01*
X225820212Y-118336776D01*
X225820205Y-118336773D01*
X225596104Y-118243947D01*
X225361785Y-118181161D01*
X225121289Y-118149500D01*
X225121288Y-118149500D01*
X224878712Y-118149500D01*
X224878711Y-118149500D01*
X224638214Y-118181161D01*
X224403895Y-118243947D01*
X224179794Y-118336773D01*
X224179785Y-118336777D01*
X223969706Y-118458067D01*
X223777263Y-118605733D01*
X223777256Y-118605739D01*
X223605739Y-118777256D01*
X223605733Y-118777263D01*
X223458067Y-118969706D01*
X223336777Y-119179785D01*
X223336773Y-119179794D01*
X223243947Y-119403895D01*
X223181161Y-119638214D01*
X223149500Y-119878711D01*
X126850500Y-119878711D01*
X126818838Y-119638211D01*
X126756054Y-119403900D01*
X126663224Y-119179788D01*
X126541936Y-118969711D01*
X126394265Y-118777262D01*
X126394260Y-118777256D01*
X126222743Y-118605739D01*
X126222736Y-118605733D01*
X126030293Y-118458067D01*
X126030292Y-118458066D01*
X126030289Y-118458064D01*
X125820212Y-118336776D01*
X125820205Y-118336773D01*
X125596104Y-118243947D01*
X125361785Y-118181161D01*
X125121289Y-118149500D01*
X125121288Y-118149500D01*
X124878712Y-118149500D01*
X124878711Y-118149500D01*
X124638214Y-118181161D01*
X124403895Y-118243947D01*
X124179794Y-118336773D01*
X124179785Y-118336777D01*
X123969706Y-118458067D01*
X123777263Y-118605733D01*
X123777256Y-118605739D01*
X123605739Y-118777256D01*
X123605733Y-118777263D01*
X123458067Y-118969706D01*
X123336777Y-119179785D01*
X123336773Y-119179794D01*
X123243947Y-119403895D01*
X123181161Y-119638214D01*
X123149500Y-119878711D01*
X120500500Y-119878711D01*
X120500500Y-87803967D01*
X130277498Y-87803967D01*
X130318423Y-87956699D01*
X130332175Y-87980516D01*
X130332176Y-87980521D01*
X130332177Y-87980521D01*
X130397475Y-88093622D01*
X130397481Y-88093630D01*
X130516349Y-88212498D01*
X130516355Y-88212503D01*
X133655170Y-91351318D01*
X133688655Y-91412641D01*
X133683671Y-91482333D01*
X133655170Y-91526680D01*
X133224286Y-91957565D01*
X133112481Y-92069369D01*
X133112475Y-92069377D01*
X133065477Y-92150782D01*
X133065477Y-92150783D01*
X133033423Y-92206301D01*
X133033423Y-92206302D01*
X132992499Y-92359030D01*
X132992499Y-92359032D01*
X132992499Y-92527133D01*
X132992500Y-92527146D01*
X132992500Y-113042343D01*
X132992499Y-113042361D01*
X132992499Y-113208067D01*
X132992498Y-113208067D01*
X133033423Y-113360798D01*
X133062358Y-113410913D01*
X133062359Y-113410917D01*
X133062360Y-113410917D01*
X133112479Y-113497727D01*
X133112481Y-113497730D01*
X133231349Y-113616598D01*
X133231355Y-113616603D01*
X139080126Y-119465374D01*
X139080136Y-119465385D01*
X139084466Y-119469715D01*
X139084467Y-119469716D01*
X139196271Y-119581520D01*
X139283082Y-119631639D01*
X139283084Y-119631641D01*
X139321138Y-119653611D01*
X139333202Y-119660577D01*
X139485930Y-119701501D01*
X139485933Y-119701501D01*
X139651640Y-119701501D01*
X139651656Y-119701500D01*
X170369381Y-119701500D01*
X170369397Y-119701501D01*
X170376993Y-119701501D01*
X170535104Y-119701501D01*
X170535107Y-119701501D01*
X170687835Y-119660577D01*
X170737954Y-119631639D01*
X170824766Y-119581520D01*
X170936570Y-119469716D01*
X170936570Y-119469714D01*
X170946778Y-119459507D01*
X170946780Y-119459504D01*
X177908819Y-112497465D01*
X177970142Y-112463980D01*
X178039834Y-112468964D01*
X178095767Y-112510836D01*
X178120184Y-112576300D01*
X178120500Y-112585146D01*
X178120500Y-113898902D01*
X178100815Y-113965941D01*
X178084181Y-113986583D01*
X176364842Y-115705921D01*
X176303519Y-115739406D01*
X176238848Y-115736173D01*
X176224534Y-115731522D01*
X176049995Y-115703878D01*
X176022352Y-115699500D01*
X175817648Y-115699500D01*
X175793329Y-115703351D01*
X175615465Y-115731522D01*
X175420776Y-115794781D01*
X175238386Y-115887715D01*
X175072786Y-116008028D01*
X174928028Y-116152786D01*
X174807715Y-116318386D01*
X174714781Y-116500776D01*
X174651522Y-116695465D01*
X174619500Y-116897648D01*
X174619500Y-117102351D01*
X174651522Y-117304534D01*
X174714781Y-117499223D01*
X174807715Y-117681613D01*
X174928028Y-117847213D01*
X175072786Y-117991971D01*
X175227749Y-118104556D01*
X175238390Y-118112287D01*
X175311425Y-118149500D01*
X175420776Y-118205218D01*
X175420778Y-118205218D01*
X175420781Y-118205220D01*
X175525137Y-118239127D01*
X175615465Y-118268477D01*
X175716557Y-118284488D01*
X175817648Y-118300500D01*
X175817649Y-118300500D01*
X176022351Y-118300500D01*
X176022352Y-118300500D01*
X176224534Y-118268477D01*
X176419219Y-118205220D01*
X176601610Y-118112287D01*
X176694590Y-118044732D01*
X176767213Y-117991971D01*
X176767215Y-117991968D01*
X176767219Y-117991966D01*
X176911966Y-117847219D01*
X176911968Y-117847215D01*
X176911971Y-117847213D01*
X176993219Y-117735383D01*
X177032287Y-117681610D01*
X177125220Y-117499219D01*
X177188477Y-117304534D01*
X177220500Y-117102352D01*
X177220500Y-116897648D01*
X177188477Y-116695466D01*
X177183825Y-116681151D01*
X177181832Y-116611312D01*
X177214075Y-116555158D01*
X179079506Y-114689728D01*
X179079511Y-114689724D01*
X179089714Y-114679520D01*
X179089716Y-114679520D01*
X179201520Y-114567716D01*
X179275012Y-114440423D01*
X179280577Y-114430785D01*
X179321500Y-114278057D01*
X179321500Y-114119943D01*
X179321500Y-109897682D01*
X184780000Y-109897682D01*
X184780000Y-110102317D01*
X184812009Y-110304417D01*
X184875244Y-110499031D01*
X184968141Y-110681350D01*
X184968147Y-110681359D01*
X185000523Y-110725921D01*
X185000524Y-110725922D01*
X185680000Y-110046446D01*
X185680000Y-110052661D01*
X185707259Y-110154394D01*
X185759920Y-110245606D01*
X185834394Y-110320080D01*
X185925606Y-110372741D01*
X186027339Y-110400000D01*
X186033553Y-110400000D01*
X185354076Y-111079474D01*
X185398650Y-111111859D01*
X185580968Y-111204755D01*
X185775582Y-111267990D01*
X185977683Y-111300000D01*
X186182317Y-111300000D01*
X186384417Y-111267990D01*
X186579031Y-111204755D01*
X186761349Y-111111859D01*
X186805921Y-111079474D01*
X186126447Y-110400000D01*
X186132661Y-110400000D01*
X186234394Y-110372741D01*
X186325606Y-110320080D01*
X186400080Y-110245606D01*
X186452741Y-110154394D01*
X186480000Y-110052661D01*
X186480000Y-110046447D01*
X187159474Y-110725921D01*
X187191859Y-110681349D01*
X187284755Y-110499031D01*
X187347990Y-110304417D01*
X187380000Y-110102317D01*
X187380000Y-109897682D01*
X187347990Y-109695582D01*
X187284755Y-109500968D01*
X187191859Y-109318650D01*
X187159474Y-109274077D01*
X187159474Y-109274076D01*
X186480000Y-109953551D01*
X186480000Y-109947339D01*
X186452741Y-109845606D01*
X186400080Y-109754394D01*
X186325606Y-109679920D01*
X186234394Y-109627259D01*
X186132661Y-109600000D01*
X186126446Y-109600000D01*
X186805922Y-108920524D01*
X186805921Y-108920523D01*
X186761359Y-108888147D01*
X186761350Y-108888141D01*
X186579031Y-108795244D01*
X186384417Y-108732009D01*
X186182317Y-108700000D01*
X185977683Y-108700000D01*
X185775582Y-108732009D01*
X185580968Y-108795244D01*
X185398644Y-108888143D01*
X185354077Y-108920523D01*
X185354077Y-108920524D01*
X186033554Y-109600000D01*
X186027339Y-109600000D01*
X185925606Y-109627259D01*
X185834394Y-109679920D01*
X185759920Y-109754394D01*
X185707259Y-109845606D01*
X185680000Y-109947339D01*
X185680000Y-109953553D01*
X185000524Y-109274077D01*
X185000523Y-109274077D01*
X184968143Y-109318644D01*
X184875244Y-109500968D01*
X184812009Y-109695582D01*
X184780000Y-109897682D01*
X179321500Y-109897682D01*
X179321500Y-101921153D01*
X184199500Y-101921153D01*
X184199500Y-102078846D01*
X184230261Y-102233489D01*
X184230264Y-102233501D01*
X184290602Y-102379172D01*
X184290609Y-102379185D01*
X184378210Y-102510288D01*
X184378213Y-102510292D01*
X184489707Y-102621786D01*
X184489711Y-102621789D01*
X184620814Y-102709390D01*
X184620827Y-102709397D01*
X184761172Y-102767529D01*
X184766503Y-102769737D01*
X184892186Y-102794737D01*
X184921153Y-102800499D01*
X184921156Y-102800500D01*
X184921158Y-102800500D01*
X185078844Y-102800500D01*
X185078845Y-102800499D01*
X185233497Y-102769737D01*
X185379179Y-102709394D01*
X185459047Y-102656028D01*
X185510873Y-102621399D01*
X185577550Y-102600521D01*
X185579764Y-102600501D01*
X185619054Y-102600501D01*
X185619057Y-102600501D01*
X185771785Y-102559577D01*
X185831814Y-102524919D01*
X185908716Y-102480520D01*
X186020520Y-102368716D01*
X186020520Y-102368714D01*
X186030724Y-102358511D01*
X186030728Y-102358506D01*
X187132416Y-101256818D01*
X187193739Y-101223333D01*
X187220097Y-101220499D01*
X188220002Y-101220499D01*
X188220008Y-101220499D01*
X188220498Y-101220449D01*
X188237895Y-101218671D01*
X188322797Y-101209999D01*
X188489334Y-101154814D01*
X188638656Y-101062712D01*
X188762712Y-100938656D01*
X188854814Y-100789334D01*
X188878102Y-100719054D01*
X188882110Y-100711050D01*
X188900060Y-100691772D01*
X188915055Y-100670116D01*
X188923495Y-100666606D01*
X188929725Y-100659917D01*
X188955249Y-100653404D01*
X188979571Y-100643292D01*
X188995834Y-100643048D01*
X188997425Y-100642643D01*
X188998523Y-100643008D01*
X189002719Y-100642946D01*
X189040525Y-100645921D01*
X189720000Y-99966446D01*
X189720000Y-99972661D01*
X189747259Y-100074394D01*
X189799920Y-100165606D01*
X189874394Y-100240080D01*
X189965606Y-100292741D01*
X190067339Y-100320000D01*
X190073553Y-100320000D01*
X189394076Y-100999474D01*
X189438650Y-101031859D01*
X189620968Y-101124755D01*
X189815582Y-101187990D01*
X190017683Y-101220000D01*
X190222317Y-101220000D01*
X190424417Y-101187990D01*
X190619031Y-101124755D01*
X190801349Y-101031859D01*
X190845921Y-100999474D01*
X190166447Y-100320000D01*
X190172661Y-100320000D01*
X190274394Y-100292741D01*
X190365606Y-100240080D01*
X190440080Y-100165606D01*
X190492741Y-100074394D01*
X190520000Y-99972661D01*
X190520000Y-99966447D01*
X191199474Y-100645921D01*
X191231859Y-100601349D01*
X191324755Y-100419031D01*
X191387990Y-100224417D01*
X191420000Y-100022317D01*
X191420000Y-99817682D01*
X191387990Y-99615582D01*
X191324755Y-99420968D01*
X191231859Y-99238650D01*
X191199474Y-99194077D01*
X191199474Y-99194076D01*
X190520000Y-99873551D01*
X190520000Y-99867339D01*
X190492741Y-99765606D01*
X190440080Y-99674394D01*
X190365606Y-99599920D01*
X190274394Y-99547259D01*
X190172661Y-99520000D01*
X190166446Y-99520000D01*
X190845922Y-98840524D01*
X190845921Y-98840523D01*
X190801359Y-98808147D01*
X190801350Y-98808141D01*
X190619031Y-98715244D01*
X190424417Y-98652009D01*
X190222317Y-98620000D01*
X190017683Y-98620000D01*
X189815582Y-98652009D01*
X189620968Y-98715244D01*
X189438644Y-98808143D01*
X189394077Y-98840523D01*
X189394077Y-98840524D01*
X190073554Y-99520000D01*
X190067339Y-99520000D01*
X189965606Y-99547259D01*
X189874394Y-99599920D01*
X189799920Y-99674394D01*
X189747259Y-99765606D01*
X189720000Y-99867339D01*
X189720000Y-99873553D01*
X189040524Y-99194077D01*
X189002719Y-99197053D01*
X188934341Y-99182689D01*
X188884584Y-99133638D01*
X188882110Y-99128949D01*
X188878101Y-99120942D01*
X188854814Y-99050666D01*
X188762712Y-98901344D01*
X188638656Y-98777288D01*
X188489334Y-98685186D01*
X188322797Y-98630001D01*
X188322795Y-98630000D01*
X188220010Y-98619500D01*
X187019998Y-98619500D01*
X187019981Y-98619501D01*
X186917203Y-98630000D01*
X186917200Y-98630001D01*
X186750668Y-98685185D01*
X186750663Y-98685187D01*
X186601342Y-98777289D01*
X186477289Y-98901342D01*
X186385187Y-99050663D01*
X186385186Y-99050666D01*
X186330001Y-99217203D01*
X186330001Y-99217204D01*
X186330000Y-99217204D01*
X186319500Y-99319983D01*
X186319500Y-100319902D01*
X186299815Y-100386941D01*
X186283181Y-100407583D01*
X185452600Y-101238163D01*
X185391277Y-101271648D01*
X185321585Y-101266664D01*
X185317468Y-101265044D01*
X185252569Y-101238163D01*
X185233497Y-101230263D01*
X185233493Y-101230262D01*
X185233489Y-101230261D01*
X185078845Y-101199500D01*
X185078842Y-101199500D01*
X184921158Y-101199500D01*
X184921155Y-101199500D01*
X184766510Y-101230261D01*
X184766498Y-101230264D01*
X184620827Y-101290602D01*
X184620814Y-101290609D01*
X184489711Y-101378210D01*
X184489707Y-101378213D01*
X184378213Y-101489707D01*
X184378210Y-101489711D01*
X184290609Y-101620814D01*
X184290602Y-101620827D01*
X184230264Y-101766498D01*
X184230261Y-101766510D01*
X184199500Y-101921153D01*
X179321500Y-101921153D01*
X179321500Y-101174518D01*
X179341185Y-101107479D01*
X179393989Y-101061724D01*
X179463147Y-101051780D01*
X179501795Y-101064033D01*
X179620968Y-101124755D01*
X179815582Y-101187990D01*
X180017683Y-101220000D01*
X180222317Y-101220000D01*
X180424417Y-101187990D01*
X180619031Y-101124755D01*
X180801349Y-101031859D01*
X180845921Y-100999474D01*
X180166447Y-100320000D01*
X180172661Y-100320000D01*
X180274394Y-100292741D01*
X180365606Y-100240080D01*
X180440080Y-100165606D01*
X180492741Y-100074394D01*
X180520000Y-99972661D01*
X180520000Y-99966447D01*
X181199474Y-100645921D01*
X181231859Y-100601349D01*
X181324755Y-100419031D01*
X181387990Y-100224417D01*
X181420000Y-100022317D01*
X181420000Y-99817682D01*
X181387990Y-99615582D01*
X181324755Y-99420968D01*
X181231859Y-99238650D01*
X181199474Y-99194077D01*
X181199474Y-99194076D01*
X180520000Y-99873551D01*
X180520000Y-99867339D01*
X180492741Y-99765606D01*
X180440080Y-99674394D01*
X180365606Y-99599920D01*
X180274394Y-99547259D01*
X180172661Y-99520000D01*
X180166446Y-99520000D01*
X180845922Y-98840524D01*
X180845921Y-98840523D01*
X180801359Y-98808147D01*
X180801350Y-98808141D01*
X180619031Y-98715244D01*
X180424417Y-98652009D01*
X180222317Y-98620000D01*
X180017683Y-98620000D01*
X179815582Y-98652009D01*
X179620968Y-98715244D01*
X179438649Y-98808141D01*
X179438642Y-98808145D01*
X179400097Y-98836150D01*
X179385491Y-98841361D01*
X179373301Y-98850948D01*
X179353255Y-98852862D01*
X179334291Y-98859629D01*
X179319186Y-98856116D01*
X179303748Y-98857591D01*
X179285848Y-98848363D01*
X179266237Y-98843803D01*
X179254554Y-98832230D01*
X179241645Y-98825576D01*
X179219827Y-98797833D01*
X179207966Y-98777290D01*
X179207965Y-98777288D01*
X179201520Y-98766124D01*
X179201518Y-98766122D01*
X179201517Y-98766120D01*
X179085397Y-98650000D01*
X179085374Y-98649979D01*
X178892750Y-98457355D01*
X178892748Y-98457352D01*
X178773877Y-98338481D01*
X178773876Y-98338480D01*
X178687064Y-98288360D01*
X178687064Y-98288359D01*
X178687060Y-98288358D01*
X178636945Y-98259423D01*
X178484217Y-98218499D01*
X178326103Y-98218499D01*
X178318507Y-98218499D01*
X178318491Y-98218500D01*
X176644500Y-98218500D01*
X176577461Y-98198815D01*
X176531706Y-98146011D01*
X176520500Y-98094500D01*
X176520500Y-90853418D01*
X176540185Y-90786379D01*
X176592989Y-90740624D01*
X176662147Y-90730680D01*
X176691948Y-90738855D01*
X176766503Y-90769737D01*
X176921153Y-90800499D01*
X176921156Y-90800500D01*
X176921158Y-90800500D01*
X177078844Y-90800500D01*
X177078845Y-90800499D01*
X177233497Y-90769737D01*
X177379179Y-90709394D01*
X177510289Y-90621789D01*
X177621789Y-90510289D01*
X177709394Y-90379179D01*
X177769737Y-90233497D01*
X177800500Y-90078842D01*
X177800500Y-90044500D01*
X177820185Y-89977461D01*
X177872989Y-89931706D01*
X177924500Y-89920500D01*
X178102351Y-89920500D01*
X178102352Y-89920500D01*
X178304534Y-89888477D01*
X178499219Y-89825220D01*
X178681610Y-89732287D01*
X178793013Y-89651349D01*
X178847213Y-89611971D01*
X178847215Y-89611968D01*
X178847219Y-89611966D01*
X178991966Y-89467219D01*
X178991968Y-89467215D01*
X178991971Y-89467213D01*
X179077496Y-89349496D01*
X179112287Y-89301610D01*
X179205220Y-89119219D01*
X179268477Y-88924534D01*
X179300500Y-88722352D01*
X179300500Y-88517648D01*
X179268478Y-88315472D01*
X179268477Y-88315471D01*
X179268477Y-88315466D01*
X179263825Y-88301151D01*
X179261832Y-88231312D01*
X179294075Y-88175158D01*
X180358506Y-87110728D01*
X180358511Y-87110724D01*
X180368714Y-87100520D01*
X180368716Y-87100520D01*
X180480520Y-86988716D01*
X180545535Y-86876106D01*
X180559577Y-86851785D01*
X180600500Y-86699057D01*
X180600500Y-86540943D01*
X180600500Y-82920943D01*
X180567049Y-82796101D01*
X180563138Y-82781504D01*
X180562385Y-82778695D01*
X180559577Y-82768215D01*
X180516025Y-82692781D01*
X180480520Y-82631284D01*
X180368716Y-82519480D01*
X180368715Y-82519479D01*
X180364385Y-82515149D01*
X180364374Y-82515139D01*
X179294077Y-81444842D01*
X179260592Y-81383519D01*
X179263828Y-81318841D01*
X179268477Y-81304534D01*
X179300500Y-81102352D01*
X179300500Y-80909097D01*
X179320185Y-80842058D01*
X179372989Y-80796303D01*
X179442147Y-80786359D01*
X179505703Y-80815384D01*
X179512181Y-80821416D01*
X183882181Y-85191416D01*
X183915666Y-85252739D01*
X183918500Y-85279097D01*
X183918500Y-88989380D01*
X183918499Y-88989398D01*
X183918499Y-89155104D01*
X183918498Y-89155104D01*
X183959423Y-89307835D01*
X183983477Y-89349496D01*
X183983478Y-89349500D01*
X183983479Y-89349500D01*
X183995314Y-89370000D01*
X184038479Y-89444764D01*
X184038481Y-89444767D01*
X184157349Y-89563635D01*
X184157355Y-89563640D01*
X194878089Y-100284374D01*
X194878099Y-100284385D01*
X194882429Y-100288715D01*
X194882430Y-100288716D01*
X194994234Y-100400520D01*
X195060279Y-100438650D01*
X195081045Y-100450639D01*
X195081047Y-100450641D01*
X195119101Y-100472611D01*
X195131165Y-100479577D01*
X195283893Y-100520500D01*
X196207837Y-100520500D01*
X196274876Y-100540185D01*
X196320631Y-100592989D01*
X196329089Y-100618541D01*
X196329999Y-100622792D01*
X196340143Y-100653404D01*
X196385186Y-100789334D01*
X196477288Y-100938656D01*
X196601344Y-101062712D01*
X196750666Y-101154814D01*
X196917203Y-101209999D01*
X196917209Y-101209999D01*
X196921448Y-101210907D01*
X196982884Y-101244185D01*
X197016576Y-101305394D01*
X197019500Y-101332162D01*
X197019500Y-105159902D01*
X196999815Y-105226941D01*
X196983181Y-105247583D01*
X186524842Y-115705921D01*
X186463519Y-115739406D01*
X186398848Y-115736173D01*
X186384534Y-115731522D01*
X186209995Y-115703878D01*
X186182352Y-115699500D01*
X185977648Y-115699500D01*
X185953329Y-115703351D01*
X185775465Y-115731522D01*
X185580776Y-115794781D01*
X185398386Y-115887715D01*
X185232786Y-116008028D01*
X185088028Y-116152786D01*
X184967715Y-116318386D01*
X184874781Y-116500776D01*
X184811522Y-116695465D01*
X184779500Y-116897648D01*
X184779500Y-117102351D01*
X184811522Y-117304534D01*
X184874781Y-117499223D01*
X184967715Y-117681613D01*
X185088028Y-117847213D01*
X185232786Y-117991971D01*
X185387749Y-118104556D01*
X185398390Y-118112287D01*
X185471425Y-118149500D01*
X185580776Y-118205218D01*
X185580778Y-118205218D01*
X185580781Y-118205220D01*
X185685137Y-118239127D01*
X185775465Y-118268477D01*
X185876557Y-118284488D01*
X185977648Y-118300500D01*
X185977649Y-118300500D01*
X186182351Y-118300500D01*
X186182352Y-118300500D01*
X186384534Y-118268477D01*
X186579219Y-118205220D01*
X186761610Y-118112287D01*
X186854590Y-118044732D01*
X186927213Y-117991971D01*
X186927215Y-117991968D01*
X186927219Y-117991966D01*
X187071966Y-117847219D01*
X187071968Y-117847215D01*
X187071971Y-117847213D01*
X187153219Y-117735383D01*
X187192287Y-117681610D01*
X187285220Y-117499219D01*
X187348477Y-117304534D01*
X187380500Y-117102352D01*
X187380500Y-116897648D01*
X187348477Y-116695466D01*
X187343825Y-116681151D01*
X187341832Y-116611312D01*
X187374075Y-116555158D01*
X198100520Y-105828716D01*
X198179577Y-105691784D01*
X198220501Y-105539057D01*
X198220501Y-105380942D01*
X198220501Y-105373347D01*
X198220500Y-105373329D01*
X198220500Y-101332162D01*
X198240185Y-101265123D01*
X198292989Y-101219368D01*
X198318552Y-101210907D01*
X198322788Y-101209999D01*
X198322797Y-101209999D01*
X198489334Y-101154814D01*
X198638656Y-101062712D01*
X198762712Y-100938656D01*
X198854814Y-100789334D01*
X198878102Y-100719054D01*
X198882110Y-100711050D01*
X198900060Y-100691772D01*
X198915055Y-100670116D01*
X198923495Y-100666606D01*
X198929725Y-100659917D01*
X198955249Y-100653404D01*
X198979571Y-100643292D01*
X198995834Y-100643048D01*
X198997425Y-100642643D01*
X198998523Y-100643008D01*
X199002719Y-100642946D01*
X199040525Y-100645921D01*
X199720000Y-99966446D01*
X199720000Y-99972661D01*
X199747259Y-100074394D01*
X199799920Y-100165606D01*
X199874394Y-100240080D01*
X199965606Y-100292741D01*
X200067339Y-100320000D01*
X200073553Y-100320000D01*
X199394076Y-100999474D01*
X199438650Y-101031859D01*
X199620968Y-101124755D01*
X199815582Y-101187990D01*
X200017683Y-101220000D01*
X200222317Y-101220000D01*
X200424417Y-101187990D01*
X200619031Y-101124755D01*
X200801349Y-101031859D01*
X200845921Y-100999474D01*
X200166447Y-100320000D01*
X200172661Y-100320000D01*
X200274394Y-100292741D01*
X200365606Y-100240080D01*
X200440080Y-100165606D01*
X200492741Y-100074394D01*
X200520000Y-99972661D01*
X200520000Y-99966447D01*
X201199474Y-100645921D01*
X201231859Y-100601349D01*
X201324755Y-100419031D01*
X201387990Y-100224417D01*
X201420000Y-100022317D01*
X201420000Y-99817682D01*
X201387990Y-99615582D01*
X201324755Y-99420968D01*
X201231859Y-99238650D01*
X201199474Y-99194077D01*
X201199474Y-99194076D01*
X200520000Y-99873551D01*
X200520000Y-99867339D01*
X200492741Y-99765606D01*
X200440080Y-99674394D01*
X200365606Y-99599920D01*
X200274394Y-99547259D01*
X200172661Y-99520000D01*
X200166446Y-99520000D01*
X200845922Y-98840524D01*
X200845921Y-98840523D01*
X200801359Y-98808147D01*
X200801350Y-98808141D01*
X200619031Y-98715244D01*
X200424417Y-98652009D01*
X200222317Y-98620000D01*
X200017683Y-98620000D01*
X199815582Y-98652009D01*
X199620968Y-98715244D01*
X199438644Y-98808143D01*
X199394077Y-98840523D01*
X199394077Y-98840524D01*
X200073554Y-99520000D01*
X200067339Y-99520000D01*
X199965606Y-99547259D01*
X199874394Y-99599920D01*
X199799920Y-99674394D01*
X199747259Y-99765606D01*
X199720000Y-99867339D01*
X199720000Y-99873553D01*
X199040524Y-99194077D01*
X199002719Y-99197053D01*
X198934341Y-99182689D01*
X198884584Y-99133638D01*
X198882110Y-99128949D01*
X198878101Y-99120942D01*
X198854814Y-99050666D01*
X198762712Y-98901344D01*
X198638656Y-98777288D01*
X198489334Y-98685186D01*
X198322797Y-98630001D01*
X198322795Y-98630000D01*
X198220010Y-98619500D01*
X197019998Y-98619500D01*
X197019981Y-98619501D01*
X196917203Y-98630000D01*
X196917200Y-98630001D01*
X196750668Y-98685185D01*
X196750663Y-98685187D01*
X196601342Y-98777289D01*
X196477289Y-98901342D01*
X196385187Y-99050663D01*
X196385185Y-99050668D01*
X196330000Y-99217204D01*
X196329088Y-99221467D01*
X196295801Y-99282898D01*
X196234586Y-99316581D01*
X196207837Y-99319500D01*
X195663047Y-99319500D01*
X195596008Y-99299815D01*
X195575366Y-99283181D01*
X186238700Y-89946515D01*
X186205215Y-89885192D01*
X186210199Y-89815500D01*
X186252071Y-89759567D01*
X186270083Y-89748350D01*
X186301610Y-89732287D01*
X186351664Y-89695921D01*
X186467213Y-89611971D01*
X186467215Y-89611968D01*
X186467219Y-89611966D01*
X186611966Y-89467219D01*
X186611968Y-89467215D01*
X186611971Y-89467213D01*
X186732284Y-89301614D01*
X186732285Y-89301613D01*
X186732287Y-89301610D01*
X186739117Y-89288204D01*
X186787091Y-89237409D01*
X186849602Y-89220500D01*
X190659903Y-89220500D01*
X190726942Y-89240185D01*
X190747584Y-89256819D01*
X191034503Y-89543738D01*
X191067988Y-89605061D01*
X191064753Y-89669737D01*
X191020842Y-89804880D01*
X191020842Y-89804883D01*
X190983500Y-90040649D01*
X190983500Y-90279350D01*
X191020841Y-90515111D01*
X191020841Y-90515112D01*
X191020842Y-90515115D01*
X191094605Y-90742134D01*
X191202973Y-90954819D01*
X191343279Y-91147933D01*
X191512067Y-91316721D01*
X191705181Y-91457027D01*
X191917866Y-91565395D01*
X192144885Y-91639158D01*
X192380649Y-91676500D01*
X192380650Y-91676500D01*
X192619350Y-91676500D01*
X192619351Y-91676500D01*
X192855115Y-91639158D01*
X193082134Y-91565395D01*
X193294819Y-91457027D01*
X193487933Y-91316721D01*
X193656721Y-91147933D01*
X193797027Y-90954819D01*
X193905395Y-90742134D01*
X193979158Y-90515115D01*
X194016500Y-90279351D01*
X194016500Y-90040649D01*
X193979158Y-89804885D01*
X193905395Y-89577866D01*
X193797027Y-89365181D01*
X193656721Y-89172067D01*
X193487933Y-89003279D01*
X193470092Y-88990317D01*
X193427428Y-88934990D01*
X193421447Y-88865377D01*
X193454052Y-88803581D01*
X193470091Y-88789684D01*
X193487933Y-88776721D01*
X193656721Y-88607933D01*
X193797027Y-88414819D01*
X193905395Y-88202134D01*
X193979158Y-87975115D01*
X194016500Y-87739351D01*
X194016500Y-87500649D01*
X193979158Y-87264885D01*
X193905395Y-87037866D01*
X193797027Y-86825181D01*
X193656721Y-86632067D01*
X193487933Y-86463279D01*
X193470092Y-86450317D01*
X193427428Y-86394990D01*
X193421447Y-86325377D01*
X193454052Y-86263581D01*
X193470091Y-86249684D01*
X193487933Y-86236721D01*
X193656721Y-86067933D01*
X193797027Y-85874819D01*
X193905395Y-85662134D01*
X193979158Y-85435115D01*
X194016500Y-85199351D01*
X194016500Y-84960649D01*
X193979158Y-84724885D01*
X193905395Y-84497866D01*
X193797027Y-84285181D01*
X193656721Y-84092067D01*
X193487933Y-83923279D01*
X193470092Y-83910317D01*
X193427428Y-83854990D01*
X193421447Y-83785377D01*
X193454052Y-83723581D01*
X193470091Y-83709684D01*
X193487933Y-83696721D01*
X193656721Y-83527933D01*
X193797027Y-83334819D01*
X193905395Y-83122134D01*
X193979158Y-82895115D01*
X194016500Y-82659351D01*
X194016500Y-82420649D01*
X193979158Y-82184885D01*
X193905395Y-81957866D01*
X193797027Y-81745181D01*
X193656721Y-81552067D01*
X193487933Y-81383279D01*
X193470092Y-81370317D01*
X193427428Y-81314990D01*
X193421447Y-81245377D01*
X193454052Y-81183581D01*
X193470091Y-81169684D01*
X193487933Y-81156721D01*
X193656721Y-80987933D01*
X193797027Y-80794819D01*
X193905395Y-80582134D01*
X193979158Y-80355115D01*
X194016500Y-80119351D01*
X194016500Y-79880649D01*
X193979158Y-79644885D01*
X193905395Y-79417866D01*
X193797027Y-79205181D01*
X193656721Y-79012067D01*
X193487933Y-78843279D01*
X193470092Y-78830317D01*
X193427428Y-78774990D01*
X193421447Y-78705377D01*
X193454052Y-78643581D01*
X193470091Y-78629684D01*
X193487933Y-78616721D01*
X193656721Y-78447933D01*
X193797027Y-78254819D01*
X193905395Y-78042134D01*
X193979158Y-77815115D01*
X194016500Y-77579351D01*
X194016500Y-77340649D01*
X193979158Y-77104885D01*
X193905395Y-76877866D01*
X193797027Y-76665181D01*
X193656721Y-76472067D01*
X193487933Y-76303279D01*
X193470092Y-76290317D01*
X193427428Y-76234990D01*
X193421447Y-76165377D01*
X193454052Y-76103581D01*
X193470091Y-76089684D01*
X193487933Y-76076721D01*
X193656721Y-75907933D01*
X193797027Y-75714819D01*
X193905395Y-75502134D01*
X193979158Y-75275115D01*
X194016500Y-75039351D01*
X194016500Y-74800649D01*
X193979158Y-74564885D01*
X193905395Y-74337866D01*
X193797027Y-74125181D01*
X193656721Y-73932067D01*
X193487933Y-73763279D01*
X193470092Y-73750317D01*
X193427428Y-73694990D01*
X193421447Y-73625377D01*
X193454052Y-73563581D01*
X193470091Y-73549684D01*
X193487933Y-73536721D01*
X193656721Y-73367933D01*
X193797027Y-73174819D01*
X193905395Y-72962134D01*
X193979158Y-72735115D01*
X194016500Y-72499351D01*
X194016500Y-72260649D01*
X193979158Y-72024885D01*
X193905395Y-71797866D01*
X193797027Y-71585181D01*
X193656721Y-71392067D01*
X193487933Y-71223279D01*
X193470092Y-71210317D01*
X193427428Y-71154990D01*
X193421447Y-71085377D01*
X193454052Y-71023581D01*
X193470091Y-71009684D01*
X193487933Y-70996721D01*
X193656721Y-70827933D01*
X193797027Y-70634819D01*
X193905395Y-70422134D01*
X193979158Y-70195115D01*
X194016500Y-69959351D01*
X194016500Y-69720649D01*
X193979158Y-69484885D01*
X193905395Y-69257866D01*
X193797027Y-69045181D01*
X193720494Y-68939843D01*
X193697015Y-68874039D01*
X193712840Y-68805985D01*
X193752537Y-68766857D01*
X193751231Y-68765112D01*
X193858868Y-68684534D01*
X193873546Y-68673546D01*
X193959796Y-68558331D01*
X194010091Y-68423483D01*
X194016500Y-68363873D01*
X194016499Y-67180649D01*
X198603500Y-67180649D01*
X198603500Y-67419351D01*
X198608596Y-67451523D01*
X198640841Y-67655111D01*
X198640841Y-67655112D01*
X198640842Y-67655115D01*
X198714165Y-67880781D01*
X198714606Y-67882136D01*
X198755205Y-67961817D01*
X198822973Y-68094819D01*
X198963279Y-68287933D01*
X199132067Y-68456721D01*
X199132070Y-68456723D01*
X199149908Y-68469684D01*
X199192572Y-68525015D01*
X199198550Y-68594629D01*
X199165942Y-68656423D01*
X199149908Y-68670316D01*
X199132070Y-68683276D01*
X199132064Y-68683281D01*
X198963281Y-68852064D01*
X198963281Y-68852065D01*
X198963279Y-68852067D01*
X198913081Y-68921158D01*
X198822973Y-69045180D01*
X198714606Y-69257863D01*
X198640841Y-69484887D01*
X198640841Y-69484888D01*
X198603500Y-69720649D01*
X198603500Y-69959350D01*
X198640841Y-70195111D01*
X198640841Y-70195112D01*
X198640842Y-70195115D01*
X198714605Y-70422134D01*
X198822973Y-70634819D01*
X198963279Y-70827933D01*
X199132067Y-70996721D01*
X199132070Y-70996723D01*
X199149908Y-71009684D01*
X199192572Y-71065015D01*
X199198550Y-71134629D01*
X199165942Y-71196423D01*
X199149908Y-71210316D01*
X199132070Y-71223276D01*
X199132064Y-71223281D01*
X198963281Y-71392064D01*
X198963281Y-71392065D01*
X198963279Y-71392067D01*
X198928090Y-71440500D01*
X198822973Y-71585180D01*
X198714606Y-71797863D01*
X198640841Y-72024887D01*
X198640841Y-72024888D01*
X198603500Y-72260649D01*
X198603500Y-72499351D01*
X198608795Y-72532781D01*
X198640841Y-72735111D01*
X198640841Y-72735112D01*
X198640842Y-72735115D01*
X198714605Y-72962134D01*
X198822973Y-73174819D01*
X198963279Y-73367933D01*
X199132067Y-73536721D01*
X199132070Y-73536723D01*
X199149908Y-73549684D01*
X199192572Y-73605015D01*
X199198550Y-73674629D01*
X199165942Y-73736423D01*
X199149908Y-73750316D01*
X199132070Y-73763276D01*
X199132064Y-73763281D01*
X198963281Y-73932064D01*
X198963281Y-73932065D01*
X198963279Y-73932067D01*
X198928090Y-73980500D01*
X198822973Y-74125180D01*
X198714606Y-74337863D01*
X198640841Y-74564887D01*
X198640841Y-74564888D01*
X198603500Y-74800649D01*
X198603500Y-75039350D01*
X198640841Y-75275111D01*
X198640841Y-75275112D01*
X198640842Y-75275115D01*
X198714165Y-75500781D01*
X198714606Y-75502136D01*
X198775572Y-75621789D01*
X198822973Y-75714819D01*
X198963279Y-75907933D01*
X199132067Y-76076721D01*
X199132070Y-76076723D01*
X199149908Y-76089684D01*
X199192572Y-76145015D01*
X199198550Y-76214629D01*
X199165942Y-76276423D01*
X199149908Y-76290316D01*
X199132070Y-76303276D01*
X199132064Y-76303281D01*
X198963281Y-76472064D01*
X198963281Y-76472065D01*
X198963279Y-76472067D01*
X198928831Y-76519481D01*
X198822973Y-76665180D01*
X198714606Y-76877863D01*
X198640841Y-77104887D01*
X198640841Y-77104888D01*
X198603500Y-77340649D01*
X198603500Y-77579350D01*
X198640841Y-77815111D01*
X198640841Y-77815112D01*
X198640842Y-77815115D01*
X198714605Y-78042134D01*
X198822973Y-78254819D01*
X198963279Y-78447933D01*
X199132067Y-78616721D01*
X199132070Y-78616723D01*
X199149908Y-78629684D01*
X199192572Y-78685015D01*
X199198550Y-78754629D01*
X199165942Y-78816423D01*
X199149908Y-78830316D01*
X199132070Y-78843276D01*
X199132064Y-78843281D01*
X198963281Y-79012064D01*
X198963281Y-79012065D01*
X198963279Y-79012067D01*
X198914764Y-79078842D01*
X198822973Y-79205180D01*
X198714606Y-79417863D01*
X198640841Y-79644887D01*
X198640841Y-79644888D01*
X198603500Y-79880649D01*
X198603500Y-80119350D01*
X198640841Y-80355111D01*
X198640841Y-80355112D01*
X198640842Y-80355115D01*
X198714605Y-80582134D01*
X198822973Y-80794819D01*
X198963279Y-80987933D01*
X199132067Y-81156721D01*
X199132070Y-81156723D01*
X199149908Y-81169684D01*
X199192572Y-81225015D01*
X199198550Y-81294629D01*
X199165942Y-81356423D01*
X199149908Y-81370316D01*
X199132070Y-81383276D01*
X199132064Y-81383281D01*
X198963281Y-81552064D01*
X198963281Y-81552065D01*
X198963279Y-81552067D01*
X198928090Y-81600500D01*
X198822973Y-81745180D01*
X198714606Y-81957863D01*
X198640841Y-82184887D01*
X198640841Y-82184888D01*
X198603500Y-82420649D01*
X198603500Y-82659350D01*
X198640841Y-82895111D01*
X198640841Y-82895112D01*
X198640842Y-82895115D01*
X198714605Y-83122134D01*
X198822973Y-83334819D01*
X198963279Y-83527933D01*
X199132067Y-83696721D01*
X199132070Y-83696723D01*
X199149908Y-83709684D01*
X199192572Y-83765015D01*
X199198550Y-83834629D01*
X199165942Y-83896423D01*
X199149908Y-83910316D01*
X199132070Y-83923276D01*
X199132064Y-83923281D01*
X198963281Y-84092064D01*
X198963281Y-84092065D01*
X198963279Y-84092067D01*
X198943549Y-84119223D01*
X198822973Y-84285180D01*
X198714606Y-84497863D01*
X198640841Y-84724887D01*
X198640841Y-84724888D01*
X198603500Y-84960649D01*
X198603500Y-85199350D01*
X198640841Y-85435111D01*
X198640841Y-85435112D01*
X198640842Y-85435115D01*
X198709337Y-85645922D01*
X198714606Y-85662136D01*
X198719339Y-85671425D01*
X198822973Y-85874819D01*
X198963279Y-86067933D01*
X199132067Y-86236721D01*
X199132070Y-86236723D01*
X199149908Y-86249684D01*
X199192572Y-86305015D01*
X199198550Y-86374629D01*
X199165942Y-86436423D01*
X199149908Y-86450316D01*
X199132070Y-86463276D01*
X199132064Y-86463281D01*
X198963281Y-86632064D01*
X198963281Y-86632065D01*
X198963279Y-86632067D01*
X198914608Y-86699057D01*
X198822973Y-86825180D01*
X198714606Y-87037863D01*
X198640841Y-87264887D01*
X198640841Y-87264888D01*
X198616997Y-87415432D01*
X198603500Y-87500649D01*
X198603500Y-87739351D01*
X198608313Y-87769737D01*
X198640841Y-87975111D01*
X198640841Y-87975112D01*
X198640842Y-87975115D01*
X198714605Y-88202134D01*
X198822973Y-88414819D01*
X198963279Y-88607933D01*
X199132067Y-88776721D01*
X199132070Y-88776723D01*
X199149908Y-88789684D01*
X199192572Y-88845015D01*
X199198550Y-88914629D01*
X199165942Y-88976423D01*
X199149908Y-88990316D01*
X199132070Y-89003276D01*
X199132064Y-89003281D01*
X198963281Y-89172064D01*
X198963281Y-89172065D01*
X198963279Y-89172067D01*
X198915805Y-89237409D01*
X198822973Y-89365180D01*
X198714606Y-89577863D01*
X198640841Y-89804887D01*
X198640841Y-89804888D01*
X198603500Y-90040649D01*
X198603500Y-90279350D01*
X198640841Y-90515111D01*
X198640841Y-90515112D01*
X198640842Y-90515115D01*
X198714605Y-90742134D01*
X198822973Y-90954819D01*
X198963279Y-91147933D01*
X199132067Y-91316721D01*
X199257876Y-91408127D01*
X199325182Y-91457028D01*
X199451794Y-91521539D01*
X199502590Y-91569513D01*
X199519500Y-91632024D01*
X199519500Y-95090380D01*
X199519499Y-95090398D01*
X199519499Y-95256104D01*
X199519498Y-95256104D01*
X199560423Y-95408835D01*
X199589358Y-95458950D01*
X199589359Y-95458954D01*
X199589360Y-95458954D01*
X199639479Y-95545764D01*
X199639481Y-95545767D01*
X199758349Y-95664635D01*
X199758355Y-95664640D01*
X206983181Y-102889466D01*
X207016666Y-102950789D01*
X207019500Y-102977147D01*
X207019500Y-103940397D01*
X206999815Y-104007436D01*
X206951800Y-104050879D01*
X206938389Y-104057712D01*
X206772786Y-104178028D01*
X206628028Y-104322786D01*
X206507715Y-104488386D01*
X206414781Y-104670776D01*
X206351522Y-104865465D01*
X206319500Y-105067648D01*
X206319500Y-105272351D01*
X206351522Y-105474534D01*
X206414781Y-105669223D01*
X206449733Y-105737819D01*
X206507585Y-105851359D01*
X206507715Y-105851613D01*
X206628028Y-106017213D01*
X206772786Y-106161971D01*
X206879498Y-106239500D01*
X206938390Y-106282287D01*
X207054607Y-106341503D01*
X207120776Y-106375218D01*
X207120778Y-106375218D01*
X207120781Y-106375220D01*
X207207913Y-106403531D01*
X207315465Y-106438477D01*
X207416557Y-106454488D01*
X207517648Y-106470500D01*
X207517649Y-106470500D01*
X207722351Y-106470500D01*
X207722352Y-106470500D01*
X207924534Y-106438477D01*
X208119219Y-106375220D01*
X208301610Y-106282287D01*
X208394590Y-106214732D01*
X208467213Y-106161971D01*
X208467215Y-106161968D01*
X208467219Y-106161966D01*
X208611966Y-106017219D01*
X208611968Y-106017215D01*
X208611971Y-106017213D01*
X208664732Y-105944590D01*
X208732287Y-105851610D01*
X208825220Y-105669219D01*
X208888477Y-105474534D01*
X208920500Y-105272352D01*
X208920500Y-105067682D01*
X216480000Y-105067682D01*
X216480000Y-105272317D01*
X216512009Y-105474417D01*
X216575244Y-105669031D01*
X216668141Y-105851350D01*
X216668147Y-105851359D01*
X216700523Y-105895921D01*
X216700524Y-105895922D01*
X217380000Y-105216446D01*
X217380000Y-105222661D01*
X217407259Y-105324394D01*
X217459920Y-105415606D01*
X217534394Y-105490080D01*
X217625606Y-105542741D01*
X217727339Y-105570000D01*
X217733553Y-105570000D01*
X217054076Y-106249474D01*
X217098650Y-106281859D01*
X217280968Y-106374755D01*
X217475582Y-106437990D01*
X217677683Y-106470000D01*
X217882317Y-106470000D01*
X218084417Y-106437990D01*
X218279031Y-106374755D01*
X218461349Y-106281859D01*
X218505921Y-106249474D01*
X217826447Y-105570000D01*
X217832661Y-105570000D01*
X217934394Y-105542741D01*
X218025606Y-105490080D01*
X218100080Y-105415606D01*
X218152741Y-105324394D01*
X218180000Y-105222661D01*
X218180000Y-105216448D01*
X218859474Y-105895922D01*
X218859474Y-105895921D01*
X218891859Y-105851349D01*
X218984755Y-105669031D01*
X219047990Y-105474417D01*
X219080000Y-105272317D01*
X219080000Y-105067682D01*
X219047990Y-104865582D01*
X218984755Y-104670968D01*
X218891859Y-104488650D01*
X218859474Y-104444077D01*
X218859474Y-104444076D01*
X218180000Y-105123551D01*
X218180000Y-105117339D01*
X218152741Y-105015606D01*
X218100080Y-104924394D01*
X218025606Y-104849920D01*
X217934394Y-104797259D01*
X217832661Y-104770000D01*
X217826446Y-104770000D01*
X218505922Y-104090524D01*
X218505921Y-104090523D01*
X218461359Y-104058147D01*
X218461350Y-104058141D01*
X218279031Y-103965244D01*
X218084417Y-103902009D01*
X217882317Y-103870000D01*
X217677683Y-103870000D01*
X217475582Y-103902009D01*
X217280968Y-103965244D01*
X217098644Y-104058143D01*
X217054077Y-104090523D01*
X217054077Y-104090524D01*
X217733554Y-104770000D01*
X217727339Y-104770000D01*
X217625606Y-104797259D01*
X217534394Y-104849920D01*
X217459920Y-104924394D01*
X217407259Y-105015606D01*
X217380000Y-105117339D01*
X217380000Y-105123553D01*
X216700524Y-104444077D01*
X216700523Y-104444077D01*
X216668143Y-104488644D01*
X216575244Y-104670968D01*
X216512009Y-104865582D01*
X216480000Y-105067682D01*
X208920500Y-105067682D01*
X208920500Y-105067648D01*
X208913261Y-105021943D01*
X208888477Y-104865465D01*
X208845204Y-104732286D01*
X208825220Y-104670781D01*
X208825218Y-104670778D01*
X208825218Y-104670776D01*
X208787322Y-104596402D01*
X208732287Y-104488390D01*
X208700092Y-104444077D01*
X208611971Y-104322786D01*
X208467213Y-104178028D01*
X208301610Y-104057712D01*
X208288200Y-104050879D01*
X208237406Y-104002903D01*
X208220500Y-103940397D01*
X208220500Y-102766110D01*
X208220501Y-102766097D01*
X208220501Y-102597994D01*
X208210207Y-102559577D01*
X208179577Y-102445266D01*
X208177636Y-102441904D01*
X208176861Y-102438711D01*
X208176466Y-102437756D01*
X208176614Y-102437694D01*
X208161164Y-102374007D01*
X208184016Y-102307980D01*
X208228729Y-102269421D01*
X208301610Y-102232287D01*
X208351144Y-102196298D01*
X208467213Y-102111971D01*
X208467215Y-102111968D01*
X208467219Y-102111966D01*
X208611966Y-101967219D01*
X208611968Y-101967215D01*
X208611971Y-101967213D01*
X208664732Y-101894590D01*
X208732287Y-101801610D01*
X208825220Y-101619219D01*
X208888477Y-101424534D01*
X208920500Y-101222352D01*
X208920500Y-101017682D01*
X216480000Y-101017682D01*
X216480000Y-101222317D01*
X216512009Y-101424417D01*
X216575244Y-101619031D01*
X216668141Y-101801350D01*
X216668147Y-101801359D01*
X216700523Y-101845921D01*
X216700524Y-101845922D01*
X217380000Y-101166446D01*
X217380000Y-101172661D01*
X217407259Y-101274394D01*
X217459920Y-101365606D01*
X217534394Y-101440080D01*
X217625606Y-101492741D01*
X217727339Y-101520000D01*
X217733553Y-101520000D01*
X217054076Y-102199474D01*
X217098650Y-102231859D01*
X217280968Y-102324755D01*
X217475582Y-102387990D01*
X217677683Y-102420000D01*
X217882317Y-102420000D01*
X218084417Y-102387990D01*
X218279031Y-102324755D01*
X218461349Y-102231859D01*
X218505921Y-102199474D01*
X217826447Y-101520000D01*
X217832661Y-101520000D01*
X217934394Y-101492741D01*
X218025606Y-101440080D01*
X218100080Y-101365606D01*
X218152741Y-101274394D01*
X218180000Y-101172661D01*
X218180000Y-101166448D01*
X218859474Y-101845922D01*
X218859474Y-101845921D01*
X218891859Y-101801349D01*
X218984755Y-101619031D01*
X219047990Y-101424417D01*
X219080000Y-101222317D01*
X219080000Y-101017682D01*
X219047990Y-100815582D01*
X218984755Y-100620968D01*
X218891859Y-100438650D01*
X218859474Y-100394077D01*
X218859474Y-100394076D01*
X218180000Y-101073551D01*
X218180000Y-101067339D01*
X218152741Y-100965606D01*
X218100080Y-100874394D01*
X218025606Y-100799920D01*
X217934394Y-100747259D01*
X217832661Y-100720000D01*
X217826446Y-100720000D01*
X218505922Y-100040524D01*
X218505921Y-100040523D01*
X218461359Y-100008147D01*
X218461350Y-100008141D01*
X218279031Y-99915244D01*
X218084417Y-99852009D01*
X217882317Y-99820000D01*
X217677683Y-99820000D01*
X217475582Y-99852009D01*
X217280968Y-99915244D01*
X217098644Y-100008143D01*
X217054077Y-100040523D01*
X217054077Y-100040524D01*
X217733554Y-100720000D01*
X217727339Y-100720000D01*
X217625606Y-100747259D01*
X217534394Y-100799920D01*
X217459920Y-100874394D01*
X217407259Y-100965606D01*
X217380000Y-101067339D01*
X217380000Y-101073553D01*
X216700524Y-100394077D01*
X216700523Y-100394077D01*
X216668143Y-100438644D01*
X216575244Y-100620968D01*
X216512009Y-100815582D01*
X216480000Y-101017682D01*
X208920500Y-101017682D01*
X208920500Y-101017648D01*
X208900566Y-100891791D01*
X208888477Y-100815465D01*
X208825873Y-100622792D01*
X208825220Y-100620781D01*
X208825218Y-100620778D01*
X208825218Y-100620776D01*
X208774124Y-100520500D01*
X208732287Y-100438390D01*
X208700092Y-100394077D01*
X208611971Y-100272786D01*
X208467213Y-100128028D01*
X208301613Y-100007715D01*
X208301612Y-100007714D01*
X208301610Y-100007713D01*
X208232817Y-99972661D01*
X208119223Y-99914781D01*
X207924534Y-99851522D01*
X207749995Y-99823878D01*
X207722352Y-99819500D01*
X207517648Y-99819500D01*
X207477211Y-99825904D01*
X207315462Y-99851523D01*
X207315460Y-99851523D01*
X207301149Y-99856173D01*
X207231308Y-99858164D01*
X207175157Y-99825921D01*
X204235819Y-96886583D01*
X204202334Y-96825260D01*
X204199500Y-96798902D01*
X204199500Y-94798097D01*
X204219185Y-94731058D01*
X204271989Y-94685303D01*
X204341147Y-94675359D01*
X204404703Y-94704384D01*
X204411181Y-94710416D01*
X206325922Y-96625157D01*
X206359407Y-96686480D01*
X206356173Y-96751155D01*
X206351522Y-96765468D01*
X206319500Y-96967648D01*
X206319500Y-97172351D01*
X206351522Y-97374534D01*
X206414781Y-97569223D01*
X206478691Y-97694653D01*
X206507585Y-97751359D01*
X206507715Y-97751613D01*
X206628028Y-97917213D01*
X206772786Y-98061971D01*
X206893226Y-98149474D01*
X206938390Y-98182287D01*
X207054607Y-98241503D01*
X207120776Y-98275218D01*
X207120778Y-98275218D01*
X207120781Y-98275220D01*
X207161216Y-98288358D01*
X207315465Y-98338477D01*
X207416557Y-98354488D01*
X207517648Y-98370500D01*
X207517649Y-98370500D01*
X207722351Y-98370500D01*
X207722352Y-98370500D01*
X207924534Y-98338477D01*
X208119219Y-98275220D01*
X208301610Y-98182287D01*
X208394590Y-98114732D01*
X208467213Y-98061971D01*
X208467215Y-98061968D01*
X208467219Y-98061966D01*
X208611966Y-97917219D01*
X208611968Y-97917215D01*
X208611971Y-97917213D01*
X208664732Y-97844590D01*
X208732287Y-97751610D01*
X208825220Y-97569219D01*
X208888477Y-97374534D01*
X208920500Y-97172352D01*
X208920500Y-96967682D01*
X216480000Y-96967682D01*
X216480000Y-97172317D01*
X216512009Y-97374417D01*
X216575244Y-97569031D01*
X216668141Y-97751350D01*
X216668147Y-97751359D01*
X216700523Y-97795921D01*
X216700524Y-97795922D01*
X217380000Y-97116446D01*
X217380000Y-97122661D01*
X217407259Y-97224394D01*
X217459920Y-97315606D01*
X217534394Y-97390080D01*
X217625606Y-97442741D01*
X217727339Y-97470000D01*
X217733553Y-97470000D01*
X217054076Y-98149474D01*
X217098650Y-98181859D01*
X217280968Y-98274755D01*
X217475582Y-98337990D01*
X217677683Y-98370000D01*
X217882317Y-98370000D01*
X218084417Y-98337990D01*
X218279031Y-98274755D01*
X218461349Y-98181859D01*
X218505921Y-98149474D01*
X217826447Y-97470000D01*
X217832661Y-97470000D01*
X217934394Y-97442741D01*
X218025606Y-97390080D01*
X218100080Y-97315606D01*
X218152741Y-97224394D01*
X218180000Y-97122661D01*
X218180000Y-97116448D01*
X218859474Y-97795922D01*
X218859474Y-97795921D01*
X218891859Y-97751349D01*
X218984755Y-97569031D01*
X219047990Y-97374417D01*
X219080000Y-97172317D01*
X219080000Y-96967682D01*
X219047990Y-96765582D01*
X218984755Y-96570968D01*
X218891859Y-96388650D01*
X218859474Y-96344077D01*
X218859474Y-96344076D01*
X218180000Y-97023551D01*
X218180000Y-97017339D01*
X218152741Y-96915606D01*
X218100080Y-96824394D01*
X218025606Y-96749920D01*
X217934394Y-96697259D01*
X217832661Y-96670000D01*
X217826446Y-96670000D01*
X218505922Y-95990524D01*
X218505921Y-95990523D01*
X218461359Y-95958147D01*
X218461350Y-95958141D01*
X218279031Y-95865244D01*
X218084417Y-95802009D01*
X217882317Y-95770000D01*
X217677683Y-95770000D01*
X217475582Y-95802009D01*
X217280968Y-95865244D01*
X217098644Y-95958143D01*
X217054077Y-95990523D01*
X217054077Y-95990524D01*
X217733554Y-96670000D01*
X217727339Y-96670000D01*
X217625606Y-96697259D01*
X217534394Y-96749920D01*
X217459920Y-96824394D01*
X217407259Y-96915606D01*
X217380000Y-97017339D01*
X217380000Y-97023553D01*
X216700524Y-96344077D01*
X216700523Y-96344077D01*
X216668143Y-96388644D01*
X216575244Y-96570968D01*
X216512009Y-96765582D01*
X216480000Y-96967682D01*
X208920500Y-96967682D01*
X208920500Y-96967648D01*
X208897948Y-96825260D01*
X208888477Y-96765465D01*
X208826666Y-96575232D01*
X208825220Y-96570781D01*
X208825218Y-96570778D01*
X208825218Y-96570776D01*
X208751666Y-96426424D01*
X208732287Y-96388390D01*
X208708598Y-96355785D01*
X208611971Y-96222786D01*
X208467213Y-96078028D01*
X208301613Y-95957715D01*
X208301612Y-95957714D01*
X208301610Y-95957713D01*
X208244653Y-95928691D01*
X208119223Y-95864781D01*
X207924534Y-95801522D01*
X207749995Y-95773878D01*
X207722352Y-95769500D01*
X207517648Y-95769500D01*
X207486080Y-95774500D01*
X207315468Y-95801522D01*
X207306717Y-95804365D01*
X207301154Y-95806173D01*
X207231313Y-95808167D01*
X207175157Y-95775922D01*
X204636819Y-93237584D01*
X204603334Y-93176261D01*
X204600500Y-93149903D01*
X204600500Y-89089060D01*
X204600501Y-89089047D01*
X204600501Y-88920944D01*
X204598809Y-88914629D01*
X204559577Y-88768216D01*
X204500255Y-88665466D01*
X204480524Y-88631290D01*
X204480518Y-88631282D01*
X203041097Y-87191861D01*
X201575685Y-85726450D01*
X201542201Y-85665128D01*
X201545435Y-85600454D01*
X201599158Y-85435115D01*
X201636500Y-85199351D01*
X201636500Y-85199347D01*
X201636819Y-85195301D01*
X201661704Y-85130013D01*
X201717936Y-85088544D01*
X201787662Y-85084059D01*
X201848117Y-85117352D01*
X205882181Y-89151416D01*
X205915666Y-89212739D01*
X205918500Y-89239097D01*
X205918500Y-91832330D01*
X205918499Y-91832348D01*
X205918499Y-91998054D01*
X205918498Y-91998054D01*
X205959424Y-92150789D01*
X205959425Y-92150790D01*
X205981033Y-92188215D01*
X205981034Y-92188217D01*
X206038475Y-92287709D01*
X206038481Y-92287717D01*
X206157349Y-92406585D01*
X206157355Y-92406590D01*
X206325922Y-92575157D01*
X206359407Y-92636480D01*
X206356173Y-92701155D01*
X206351522Y-92715468D01*
X206319500Y-92917648D01*
X206319500Y-93122351D01*
X206351522Y-93324534D01*
X206414781Y-93519223D01*
X206472515Y-93632530D01*
X206507585Y-93701359D01*
X206507715Y-93701613D01*
X206628028Y-93867213D01*
X206772786Y-94011971D01*
X206893226Y-94099474D01*
X206938390Y-94132287D01*
X207054607Y-94191503D01*
X207120776Y-94225218D01*
X207120778Y-94225218D01*
X207120781Y-94225220D01*
X207225137Y-94259127D01*
X207315465Y-94288477D01*
X207416557Y-94304488D01*
X207517648Y-94320500D01*
X207517649Y-94320500D01*
X207722351Y-94320500D01*
X207722352Y-94320500D01*
X207924534Y-94288477D01*
X208119219Y-94225220D01*
X208301610Y-94132287D01*
X208406702Y-94055934D01*
X208467213Y-94011971D01*
X208467215Y-94011968D01*
X208467219Y-94011966D01*
X208611966Y-93867219D01*
X208611968Y-93867215D01*
X208611971Y-93867213D01*
X208690022Y-93759783D01*
X208732287Y-93701610D01*
X208825220Y-93519219D01*
X208888477Y-93324534D01*
X208920500Y-93122352D01*
X208920500Y-92917682D01*
X216480000Y-92917682D01*
X216480000Y-93122317D01*
X216512009Y-93324417D01*
X216575244Y-93519031D01*
X216668141Y-93701350D01*
X216668147Y-93701359D01*
X216700523Y-93745921D01*
X216700524Y-93745922D01*
X217380000Y-93066446D01*
X217380000Y-93072661D01*
X217407259Y-93174394D01*
X217459920Y-93265606D01*
X217534394Y-93340080D01*
X217625606Y-93392741D01*
X217727339Y-93420000D01*
X217733553Y-93420000D01*
X217054076Y-94099474D01*
X217098650Y-94131859D01*
X217280968Y-94224755D01*
X217475582Y-94287990D01*
X217677683Y-94320000D01*
X217882317Y-94320000D01*
X218084417Y-94287990D01*
X218279031Y-94224755D01*
X218461349Y-94131859D01*
X218505921Y-94099474D01*
X217826447Y-93420000D01*
X217832661Y-93420000D01*
X217934394Y-93392741D01*
X218025606Y-93340080D01*
X218100080Y-93265606D01*
X218152741Y-93174394D01*
X218180000Y-93072661D01*
X218180000Y-93066448D01*
X218859474Y-93745922D01*
X218859474Y-93745921D01*
X218891859Y-93701349D01*
X218984755Y-93519031D01*
X219047990Y-93324417D01*
X219080000Y-93122317D01*
X219080000Y-92917682D01*
X219047990Y-92715582D01*
X218984755Y-92520968D01*
X218891859Y-92338650D01*
X218859474Y-92294077D01*
X218859474Y-92294076D01*
X218180000Y-92973551D01*
X218180000Y-92967339D01*
X218152741Y-92865606D01*
X218100080Y-92774394D01*
X218025606Y-92699920D01*
X217934394Y-92647259D01*
X217832661Y-92620000D01*
X217826446Y-92620000D01*
X218505922Y-91940524D01*
X218505921Y-91940523D01*
X218461359Y-91908147D01*
X218461350Y-91908141D01*
X218279031Y-91815244D01*
X218084417Y-91752009D01*
X217882317Y-91720000D01*
X217677683Y-91720000D01*
X217475582Y-91752009D01*
X217280968Y-91815244D01*
X217098644Y-91908143D01*
X217054077Y-91940523D01*
X217054077Y-91940524D01*
X217733554Y-92620000D01*
X217727339Y-92620000D01*
X217625606Y-92647259D01*
X217534394Y-92699920D01*
X217459920Y-92774394D01*
X217407259Y-92865606D01*
X217380000Y-92967339D01*
X217380000Y-92973553D01*
X216700524Y-92294077D01*
X216700523Y-92294077D01*
X216668143Y-92338644D01*
X216575244Y-92520968D01*
X216512009Y-92715582D01*
X216480000Y-92917682D01*
X208920500Y-92917682D01*
X208920500Y-92917648D01*
X208898742Y-92780278D01*
X208888477Y-92715465D01*
X208827284Y-92527133D01*
X208825220Y-92520781D01*
X208825218Y-92520778D01*
X208825218Y-92520776D01*
X208791503Y-92454607D01*
X208732287Y-92338390D01*
X208700092Y-92294077D01*
X208611971Y-92172786D01*
X208467213Y-92028028D01*
X208301613Y-91907715D01*
X208301612Y-91907714D01*
X208301610Y-91907713D01*
X208244653Y-91878691D01*
X208119223Y-91814781D01*
X207924534Y-91751522D01*
X207749995Y-91723878D01*
X207722352Y-91719500D01*
X207517648Y-91719500D01*
X207479599Y-91725526D01*
X207315468Y-91751522D01*
X207306717Y-91754365D01*
X207301154Y-91756173D01*
X207285941Y-91756607D01*
X207271684Y-91761925D01*
X207251729Y-91757584D01*
X207231313Y-91758167D01*
X207217226Y-91750078D01*
X207203411Y-91747073D01*
X207175157Y-91725922D01*
X207155819Y-91706584D01*
X207122334Y-91645261D01*
X207119500Y-91618903D01*
X207119500Y-90345475D01*
X207139185Y-90278436D01*
X207191989Y-90232681D01*
X207261147Y-90222737D01*
X207281820Y-90227545D01*
X207315458Y-90238475D01*
X207315461Y-90238475D01*
X207315466Y-90238477D01*
X207517648Y-90270500D01*
X207517649Y-90270500D01*
X207722351Y-90270500D01*
X207722352Y-90270500D01*
X207924534Y-90238477D01*
X208119219Y-90175220D01*
X208301610Y-90082287D01*
X208429605Y-89989294D01*
X208467213Y-89961971D01*
X208467215Y-89961968D01*
X208467219Y-89961966D01*
X208611966Y-89817219D01*
X208611968Y-89817215D01*
X208611971Y-89817213D01*
X208673674Y-89732284D01*
X208732287Y-89651610D01*
X208825220Y-89469219D01*
X208888477Y-89274534D01*
X208920500Y-89072352D01*
X208920500Y-88867682D01*
X216480000Y-88867682D01*
X216480000Y-89072317D01*
X216512009Y-89274417D01*
X216575244Y-89469031D01*
X216668141Y-89651350D01*
X216668147Y-89651359D01*
X216700523Y-89695921D01*
X216700524Y-89695922D01*
X217380000Y-89016446D01*
X217380000Y-89022661D01*
X217407259Y-89124394D01*
X217459920Y-89215606D01*
X217534394Y-89290080D01*
X217625606Y-89342741D01*
X217727339Y-89370000D01*
X217733553Y-89370000D01*
X217054076Y-90049474D01*
X217098650Y-90081859D01*
X217280968Y-90174755D01*
X217475582Y-90237990D01*
X217677683Y-90270000D01*
X217882317Y-90270000D01*
X218084417Y-90237990D01*
X218279031Y-90174755D01*
X218461349Y-90081859D01*
X218505921Y-90049474D01*
X217826447Y-89370000D01*
X217832661Y-89370000D01*
X217934394Y-89342741D01*
X218025606Y-89290080D01*
X218100080Y-89215606D01*
X218152741Y-89124394D01*
X218180000Y-89022661D01*
X218180000Y-89016448D01*
X218859474Y-89695922D01*
X218859474Y-89695921D01*
X218891859Y-89651349D01*
X218984755Y-89469031D01*
X219047990Y-89274417D01*
X219080000Y-89072317D01*
X219080000Y-88867682D01*
X219047990Y-88665582D01*
X218984755Y-88470968D01*
X218891859Y-88288650D01*
X218859474Y-88244077D01*
X218859474Y-88244076D01*
X218180000Y-88923551D01*
X218180000Y-88917339D01*
X218152741Y-88815606D01*
X218100080Y-88724394D01*
X218025606Y-88649920D01*
X217934394Y-88597259D01*
X217832661Y-88570000D01*
X217826446Y-88570000D01*
X218505922Y-87890524D01*
X218505921Y-87890523D01*
X218461359Y-87858147D01*
X218461350Y-87858141D01*
X218279031Y-87765244D01*
X218084417Y-87702009D01*
X217882317Y-87670000D01*
X217677683Y-87670000D01*
X217475582Y-87702009D01*
X217280968Y-87765244D01*
X217098644Y-87858143D01*
X217054077Y-87890523D01*
X217054077Y-87890524D01*
X217733554Y-88570000D01*
X217727339Y-88570000D01*
X217625606Y-88597259D01*
X217534394Y-88649920D01*
X217459920Y-88724394D01*
X217407259Y-88815606D01*
X217380000Y-88917339D01*
X217380000Y-88923553D01*
X216700524Y-88244077D01*
X216700523Y-88244077D01*
X216668143Y-88288644D01*
X216575244Y-88470968D01*
X216512009Y-88665582D01*
X216480000Y-88867682D01*
X208920500Y-88867682D01*
X208920500Y-88867648D01*
X208904750Y-88768209D01*
X208888477Y-88665465D01*
X208857458Y-88570000D01*
X208825220Y-88470781D01*
X208825218Y-88470778D01*
X208825218Y-88470776D01*
X208751965Y-88327011D01*
X208732287Y-88288390D01*
X208700092Y-88244077D01*
X208611971Y-88122786D01*
X208467213Y-87978028D01*
X208301610Y-87857712D01*
X208288200Y-87850879D01*
X208277138Y-87840431D01*
X208263297Y-87834110D01*
X208252255Y-87816928D01*
X208237406Y-87802903D01*
X208233165Y-87787223D01*
X208225523Y-87775332D01*
X208220500Y-87740397D01*
X208220500Y-87589060D01*
X208220501Y-87589047D01*
X208220501Y-87420944D01*
X208219024Y-87415432D01*
X208179577Y-87268216D01*
X208164635Y-87242335D01*
X208100524Y-87131290D01*
X208100518Y-87131282D01*
X207397880Y-86428644D01*
X207364395Y-86367321D01*
X207369379Y-86297629D01*
X207411251Y-86241696D01*
X207476715Y-86217279D01*
X207504956Y-86218489D01*
X207517648Y-86220500D01*
X207517650Y-86220500D01*
X207722351Y-86220500D01*
X207722352Y-86220500D01*
X207924534Y-86188477D01*
X208119219Y-86125220D01*
X208301610Y-86032287D01*
X208445713Y-85927591D01*
X208467213Y-85911971D01*
X208467215Y-85911968D01*
X208467219Y-85911966D01*
X208611966Y-85767219D01*
X208611968Y-85767215D01*
X208611971Y-85767213D01*
X208688199Y-85662292D01*
X208732287Y-85601610D01*
X208825220Y-85419219D01*
X208888477Y-85224534D01*
X208920500Y-85022352D01*
X208920500Y-84817682D01*
X216480000Y-84817682D01*
X216480000Y-85022317D01*
X216512009Y-85224417D01*
X216575244Y-85419031D01*
X216668141Y-85601350D01*
X216668147Y-85601359D01*
X216700523Y-85645921D01*
X216700524Y-85645922D01*
X217380000Y-84966446D01*
X217380000Y-84972661D01*
X217407259Y-85074394D01*
X217459920Y-85165606D01*
X217534394Y-85240080D01*
X217625606Y-85292741D01*
X217727339Y-85320000D01*
X217733553Y-85320000D01*
X217054076Y-85999474D01*
X217098650Y-86031859D01*
X217280968Y-86124755D01*
X217475582Y-86187990D01*
X217677683Y-86220000D01*
X217882317Y-86220000D01*
X218084417Y-86187990D01*
X218279031Y-86124755D01*
X218461349Y-86031859D01*
X218505921Y-85999474D01*
X217826447Y-85320000D01*
X217832661Y-85320000D01*
X217934394Y-85292741D01*
X218025606Y-85240080D01*
X218100080Y-85165606D01*
X218152741Y-85074394D01*
X218180000Y-84972661D01*
X218180000Y-84966448D01*
X218859474Y-85645922D01*
X218859474Y-85645921D01*
X218891859Y-85601349D01*
X218984755Y-85419031D01*
X219047990Y-85224417D01*
X219080000Y-85022317D01*
X219080000Y-84817682D01*
X219047990Y-84615582D01*
X218984755Y-84420968D01*
X218891859Y-84238650D01*
X218859474Y-84194077D01*
X218859474Y-84194076D01*
X218180000Y-84873551D01*
X218180000Y-84867339D01*
X218152741Y-84765606D01*
X218100080Y-84674394D01*
X218025606Y-84599920D01*
X217934394Y-84547259D01*
X217832661Y-84520000D01*
X217826446Y-84520000D01*
X218505922Y-83840524D01*
X218505921Y-83840523D01*
X218461359Y-83808147D01*
X218461350Y-83808141D01*
X218279031Y-83715244D01*
X218084417Y-83652009D01*
X217882317Y-83620000D01*
X217677683Y-83620000D01*
X217475582Y-83652009D01*
X217280968Y-83715244D01*
X217098644Y-83808143D01*
X217054077Y-83840523D01*
X217054077Y-83840524D01*
X217733554Y-84520000D01*
X217727339Y-84520000D01*
X217625606Y-84547259D01*
X217534394Y-84599920D01*
X217459920Y-84674394D01*
X217407259Y-84765606D01*
X217380000Y-84867339D01*
X217380000Y-84873553D01*
X216700524Y-84194077D01*
X216700523Y-84194077D01*
X216668143Y-84238644D01*
X216575244Y-84420968D01*
X216512009Y-84615582D01*
X216480000Y-84817682D01*
X208920500Y-84817682D01*
X208920500Y-84817648D01*
X208900684Y-84692536D01*
X208888477Y-84615465D01*
X208855439Y-84513785D01*
X208825220Y-84420781D01*
X208825218Y-84420778D01*
X208825218Y-84420776D01*
X208787077Y-84345921D01*
X208732287Y-84238390D01*
X208720096Y-84221610D01*
X208611971Y-84072786D01*
X208467213Y-83928028D01*
X208301613Y-83807715D01*
X208301612Y-83807714D01*
X208301610Y-83807713D01*
X208209197Y-83760626D01*
X208119223Y-83714781D01*
X207924534Y-83651522D01*
X207749995Y-83623878D01*
X207722352Y-83619500D01*
X207517648Y-83619500D01*
X207450254Y-83630174D01*
X207315464Y-83651523D01*
X207315457Y-83651524D01*
X207270964Y-83665981D01*
X207201123Y-83667976D01*
X207144966Y-83635731D01*
X201585495Y-78076260D01*
X201552010Y-78014937D01*
X201555244Y-77950263D01*
X201599158Y-77815115D01*
X201636500Y-77579351D01*
X201636500Y-77340649D01*
X201599158Y-77104885D01*
X201525395Y-76877866D01*
X201417027Y-76665181D01*
X201276721Y-76472067D01*
X201107933Y-76303279D01*
X201090092Y-76290317D01*
X201047428Y-76234990D01*
X201041447Y-76165377D01*
X201074052Y-76103581D01*
X201090091Y-76089684D01*
X201107933Y-76076721D01*
X201276721Y-75907933D01*
X201415243Y-75717273D01*
X201470573Y-75674608D01*
X201540186Y-75668629D01*
X201601981Y-75701235D01*
X201603242Y-75702478D01*
X206325921Y-80425157D01*
X206359406Y-80486480D01*
X206356173Y-80551149D01*
X206351523Y-80565460D01*
X206351523Y-80565462D01*
X206319500Y-80767648D01*
X206319500Y-80972351D01*
X206351522Y-81174534D01*
X206414781Y-81369223D01*
X206471578Y-81480692D01*
X206507585Y-81551359D01*
X206507715Y-81551613D01*
X206628028Y-81717213D01*
X206772786Y-81861971D01*
X206893226Y-81949474D01*
X206938390Y-81982287D01*
X207054607Y-82041503D01*
X207120776Y-82075218D01*
X207120778Y-82075218D01*
X207120781Y-82075220D01*
X207225137Y-82109127D01*
X207315465Y-82138477D01*
X207416557Y-82154488D01*
X207517648Y-82170500D01*
X207517649Y-82170500D01*
X207722351Y-82170500D01*
X207722352Y-82170500D01*
X207924534Y-82138477D01*
X208119219Y-82075220D01*
X208301610Y-81982287D01*
X208394590Y-81914732D01*
X208467213Y-81861971D01*
X208467215Y-81861968D01*
X208467219Y-81861966D01*
X208611966Y-81717219D01*
X208611968Y-81717215D01*
X208611971Y-81717213D01*
X208664732Y-81644590D01*
X208732287Y-81551610D01*
X208825220Y-81369219D01*
X208888477Y-81174534D01*
X208920500Y-80972352D01*
X208920500Y-80767682D01*
X216480000Y-80767682D01*
X216480000Y-80972317D01*
X216512009Y-81174417D01*
X216575244Y-81369031D01*
X216668141Y-81551350D01*
X216668147Y-81551359D01*
X216700523Y-81595921D01*
X216700524Y-81595922D01*
X217380000Y-80916446D01*
X217380000Y-80922661D01*
X217407259Y-81024394D01*
X217459920Y-81115606D01*
X217534394Y-81190080D01*
X217625606Y-81242741D01*
X217727339Y-81270000D01*
X217733553Y-81270000D01*
X217054076Y-81949474D01*
X217098650Y-81981859D01*
X217280968Y-82074755D01*
X217475582Y-82137990D01*
X217677683Y-82170000D01*
X217882317Y-82170000D01*
X218084417Y-82137990D01*
X218279031Y-82074755D01*
X218461349Y-81981859D01*
X218505921Y-81949474D01*
X217826447Y-81270000D01*
X217832661Y-81270000D01*
X217934394Y-81242741D01*
X218025606Y-81190080D01*
X218100080Y-81115606D01*
X218152741Y-81024394D01*
X218180000Y-80922661D01*
X218180000Y-80916448D01*
X218859474Y-81595922D01*
X218859474Y-81595921D01*
X218891859Y-81551349D01*
X218984755Y-81369031D01*
X219047990Y-81174417D01*
X219080000Y-80972317D01*
X219080000Y-80767682D01*
X219047990Y-80565582D01*
X218984755Y-80370968D01*
X218891859Y-80188650D01*
X218859474Y-80144077D01*
X218859474Y-80144076D01*
X218180000Y-80823551D01*
X218180000Y-80817339D01*
X218152741Y-80715606D01*
X218100080Y-80624394D01*
X218025606Y-80549920D01*
X217934394Y-80497259D01*
X217832661Y-80470000D01*
X217826446Y-80470000D01*
X218505922Y-79790524D01*
X218505921Y-79790523D01*
X218461359Y-79758147D01*
X218461350Y-79758141D01*
X218279031Y-79665244D01*
X218084417Y-79602009D01*
X217882317Y-79570000D01*
X217677683Y-79570000D01*
X217475582Y-79602009D01*
X217280968Y-79665244D01*
X217098644Y-79758143D01*
X217054077Y-79790523D01*
X217054077Y-79790524D01*
X217733554Y-80470000D01*
X217727339Y-80470000D01*
X217625606Y-80497259D01*
X217534394Y-80549920D01*
X217459920Y-80624394D01*
X217407259Y-80715606D01*
X217380000Y-80817339D01*
X217380000Y-80823553D01*
X216700524Y-80144077D01*
X216700523Y-80144077D01*
X216668143Y-80188644D01*
X216575244Y-80370968D01*
X216512009Y-80565582D01*
X216480000Y-80767682D01*
X208920500Y-80767682D01*
X208920500Y-80767648D01*
X208906801Y-80681155D01*
X208888477Y-80565465D01*
X208834400Y-80399034D01*
X208825220Y-80370781D01*
X208825218Y-80370778D01*
X208825218Y-80370776D01*
X208785656Y-80293133D01*
X208732287Y-80188390D01*
X208724556Y-80177749D01*
X208611971Y-80022786D01*
X208467213Y-79878028D01*
X208301613Y-79757715D01*
X208301612Y-79757714D01*
X208301610Y-79757713D01*
X208206779Y-79709394D01*
X208119223Y-79664781D01*
X207924534Y-79601522D01*
X207739929Y-79572284D01*
X207722352Y-79569500D01*
X207517648Y-79569500D01*
X207500071Y-79572284D01*
X207315462Y-79601523D01*
X207315460Y-79601523D01*
X207301149Y-79606173D01*
X207231308Y-79608164D01*
X207175157Y-79575921D01*
X202157590Y-74558355D01*
X202157588Y-74558352D01*
X202038717Y-74439481D01*
X202038712Y-74439477D01*
X201926165Y-74374499D01*
X201901785Y-74360423D01*
X201890764Y-74357470D01*
X201749057Y-74319499D01*
X201592024Y-74319499D01*
X201524985Y-74299814D01*
X201481539Y-74251794D01*
X201480225Y-74249215D01*
X201417027Y-74125181D01*
X201276721Y-73932067D01*
X201107933Y-73763279D01*
X201090092Y-73750317D01*
X201047428Y-73694990D01*
X201041447Y-73625377D01*
X201074052Y-73563581D01*
X201090091Y-73549684D01*
X201107933Y-73536721D01*
X201276721Y-73367933D01*
X201417027Y-73174819D01*
X201468440Y-73073913D01*
X201481540Y-73048205D01*
X201529515Y-72997409D01*
X201592025Y-72980500D01*
X204079903Y-72980500D01*
X204146942Y-73000185D01*
X204167584Y-73016819D01*
X206789443Y-75638678D01*
X206822928Y-75700001D01*
X206817944Y-75769693D01*
X206776072Y-75825626D01*
X206774661Y-75826667D01*
X206772789Y-75828026D01*
X206772778Y-75828036D01*
X206628028Y-75972786D01*
X206507715Y-76138386D01*
X206414781Y-76320776D01*
X206351522Y-76515465D01*
X206319500Y-76717648D01*
X206319500Y-76922351D01*
X206351522Y-77124534D01*
X206414781Y-77319223D01*
X206473330Y-77434130D01*
X206507585Y-77501359D01*
X206507715Y-77501613D01*
X206628028Y-77667213D01*
X206772786Y-77811971D01*
X206893226Y-77899474D01*
X206938390Y-77932287D01*
X207054607Y-77991503D01*
X207120776Y-78025218D01*
X207120778Y-78025218D01*
X207120781Y-78025220D01*
X207190500Y-78047873D01*
X207315465Y-78088477D01*
X207416557Y-78104488D01*
X207517648Y-78120500D01*
X207517649Y-78120500D01*
X207722351Y-78120500D01*
X207722352Y-78120500D01*
X207924534Y-78088477D01*
X208119219Y-78025220D01*
X208301610Y-77932287D01*
X208408714Y-77854472D01*
X208467213Y-77811971D01*
X208467215Y-77811968D01*
X208467219Y-77811966D01*
X208611966Y-77667219D01*
X208611968Y-77667215D01*
X208611971Y-77667213D01*
X208698558Y-77548034D01*
X208732287Y-77501610D01*
X208825220Y-77319219D01*
X208888477Y-77124534D01*
X208920500Y-76922352D01*
X208920500Y-76717682D01*
X216480000Y-76717682D01*
X216480000Y-76922317D01*
X216512009Y-77124417D01*
X216575244Y-77319031D01*
X216668141Y-77501350D01*
X216668147Y-77501359D01*
X216700523Y-77545921D01*
X216700524Y-77545922D01*
X217380000Y-76866446D01*
X217380000Y-76872661D01*
X217407259Y-76974394D01*
X217459920Y-77065606D01*
X217534394Y-77140080D01*
X217625606Y-77192741D01*
X217727339Y-77220000D01*
X217733553Y-77220000D01*
X217054076Y-77899474D01*
X217098650Y-77931859D01*
X217280968Y-78024755D01*
X217475582Y-78087990D01*
X217677683Y-78120000D01*
X217882317Y-78120000D01*
X218084417Y-78087990D01*
X218279031Y-78024755D01*
X218461349Y-77931859D01*
X218505921Y-77899474D01*
X217826447Y-77220000D01*
X217832661Y-77220000D01*
X217934394Y-77192741D01*
X218025606Y-77140080D01*
X218100080Y-77065606D01*
X218152741Y-76974394D01*
X218180000Y-76872661D01*
X218180000Y-76866448D01*
X218859474Y-77545922D01*
X218859474Y-77545921D01*
X218891859Y-77501349D01*
X218984755Y-77319031D01*
X219047990Y-77124417D01*
X219080000Y-76922317D01*
X219080000Y-76717682D01*
X219047990Y-76515582D01*
X218984755Y-76320968D01*
X218891859Y-76138650D01*
X218859474Y-76094077D01*
X218859474Y-76094076D01*
X218180000Y-76773551D01*
X218180000Y-76767339D01*
X218152741Y-76665606D01*
X218100080Y-76574394D01*
X218025606Y-76499920D01*
X217934394Y-76447259D01*
X217832661Y-76420000D01*
X217826446Y-76420000D01*
X218505922Y-75740524D01*
X218505921Y-75740523D01*
X218461359Y-75708147D01*
X218461350Y-75708141D01*
X218279031Y-75615244D01*
X218084417Y-75552009D01*
X217882317Y-75520000D01*
X217677683Y-75520000D01*
X217475582Y-75552009D01*
X217280968Y-75615244D01*
X217098644Y-75708143D01*
X217054077Y-75740523D01*
X217054077Y-75740524D01*
X217733554Y-76420000D01*
X217727339Y-76420000D01*
X217625606Y-76447259D01*
X217534394Y-76499920D01*
X217459920Y-76574394D01*
X217407259Y-76665606D01*
X217380000Y-76767339D01*
X217380000Y-76773553D01*
X216700524Y-76094077D01*
X216700523Y-76094077D01*
X216668143Y-76138644D01*
X216575244Y-76320968D01*
X216512009Y-76515582D01*
X216480000Y-76717682D01*
X208920500Y-76717682D01*
X208920500Y-76717648D01*
X208899998Y-76588205D01*
X208888477Y-76515465D01*
X208847910Y-76390615D01*
X208825220Y-76320781D01*
X208825218Y-76320778D01*
X208825218Y-76320776D01*
X208781507Y-76234990D01*
X208732287Y-76138390D01*
X208706104Y-76102352D01*
X208611971Y-75972786D01*
X208467213Y-75828028D01*
X208301613Y-75707714D01*
X208288204Y-75700882D01*
X208237409Y-75652906D01*
X208220501Y-75590398D01*
X208220501Y-75540945D01*
X208220501Y-75540943D01*
X208179577Y-75388215D01*
X208139904Y-75319500D01*
X208100520Y-75251284D01*
X207988716Y-75139480D01*
X207984385Y-75135149D01*
X207984374Y-75135139D01*
X207047049Y-74197814D01*
X207013564Y-74136491D01*
X207018548Y-74066799D01*
X207060420Y-74010866D01*
X207125884Y-73986449D01*
X207173044Y-73992201D01*
X207248810Y-74016819D01*
X207315465Y-74038477D01*
X207376885Y-74048205D01*
X207517648Y-74070500D01*
X207517649Y-74070500D01*
X207722351Y-74070500D01*
X207722352Y-74070500D01*
X207924534Y-74038477D01*
X208119219Y-73975220D01*
X208301610Y-73882287D01*
X208414181Y-73800500D01*
X208467213Y-73761971D01*
X208467215Y-73761968D01*
X208467219Y-73761966D01*
X208611966Y-73617219D01*
X208611968Y-73617215D01*
X208611971Y-73617213D01*
X208681186Y-73521945D01*
X208732287Y-73451610D01*
X208825220Y-73269219D01*
X208888477Y-73074534D01*
X208920500Y-72872352D01*
X208920500Y-72667682D01*
X216480000Y-72667682D01*
X216480000Y-72872317D01*
X216512009Y-73074417D01*
X216575244Y-73269031D01*
X216668141Y-73451350D01*
X216668147Y-73451359D01*
X216700523Y-73495921D01*
X216700524Y-73495922D01*
X217380000Y-72816446D01*
X217380000Y-72822661D01*
X217407259Y-72924394D01*
X217459920Y-73015606D01*
X217534394Y-73090080D01*
X217625606Y-73142741D01*
X217727339Y-73170000D01*
X217733553Y-73170000D01*
X217054076Y-73849474D01*
X217098650Y-73881859D01*
X217280968Y-73974755D01*
X217475582Y-74037990D01*
X217677683Y-74070000D01*
X217882317Y-74070000D01*
X218084417Y-74037990D01*
X218279031Y-73974755D01*
X218461349Y-73881859D01*
X218505921Y-73849474D01*
X217826447Y-73170000D01*
X217832661Y-73170000D01*
X217934394Y-73142741D01*
X218025606Y-73090080D01*
X218100080Y-73015606D01*
X218152741Y-72924394D01*
X218180000Y-72822661D01*
X218180000Y-72816448D01*
X218859474Y-73495922D01*
X218859474Y-73495921D01*
X218891859Y-73451349D01*
X218984755Y-73269031D01*
X219047990Y-73074417D01*
X219080000Y-72872317D01*
X219080000Y-72667682D01*
X219047990Y-72465582D01*
X218984755Y-72270968D01*
X218891859Y-72088650D01*
X218859474Y-72044077D01*
X218859474Y-72044076D01*
X218180000Y-72723551D01*
X218180000Y-72717339D01*
X218152741Y-72615606D01*
X218100080Y-72524394D01*
X218025606Y-72449920D01*
X217934394Y-72397259D01*
X217832661Y-72370000D01*
X217826446Y-72370000D01*
X218505922Y-71690524D01*
X218505921Y-71690523D01*
X218461359Y-71658147D01*
X218461350Y-71658141D01*
X218279031Y-71565244D01*
X218084417Y-71502009D01*
X217882317Y-71470000D01*
X217677683Y-71470000D01*
X217475582Y-71502009D01*
X217280968Y-71565244D01*
X217098644Y-71658143D01*
X217054077Y-71690523D01*
X217054077Y-71690524D01*
X217733554Y-72370000D01*
X217727339Y-72370000D01*
X217625606Y-72397259D01*
X217534394Y-72449920D01*
X217459920Y-72524394D01*
X217407259Y-72615606D01*
X217380000Y-72717339D01*
X217380000Y-72723553D01*
X216700524Y-72044077D01*
X216700523Y-72044077D01*
X216668143Y-72088644D01*
X216575244Y-72270968D01*
X216512009Y-72465582D01*
X216480000Y-72667682D01*
X208920500Y-72667682D01*
X208920500Y-72667648D01*
X208899139Y-72532781D01*
X208888477Y-72465465D01*
X208842888Y-72325157D01*
X208825220Y-72270781D01*
X208825218Y-72270778D01*
X208825218Y-72270776D01*
X208775005Y-72172229D01*
X208732287Y-72088390D01*
X208702367Y-72047208D01*
X208611971Y-71922786D01*
X208467213Y-71778028D01*
X208301613Y-71657715D01*
X208301612Y-71657714D01*
X208301610Y-71657713D01*
X208244653Y-71628691D01*
X208119223Y-71564781D01*
X207924534Y-71501522D01*
X207749995Y-71473878D01*
X207722352Y-71469500D01*
X207517648Y-71469500D01*
X207477211Y-71475904D01*
X207315462Y-71501523D01*
X207315460Y-71501523D01*
X207301149Y-71506173D01*
X207231308Y-71508164D01*
X207175157Y-71475921D01*
X205177590Y-69478355D01*
X205177588Y-69478352D01*
X205058717Y-69359481D01*
X205058716Y-69359480D01*
X204945362Y-69294035D01*
X204945362Y-69294034D01*
X204945357Y-69294033D01*
X204929818Y-69285061D01*
X204921786Y-69280423D01*
X204883603Y-69270192D01*
X204769057Y-69239499D01*
X204610943Y-69239499D01*
X204603347Y-69239499D01*
X204603331Y-69239500D01*
X201592025Y-69239500D01*
X201524986Y-69219815D01*
X201481540Y-69171795D01*
X201425398Y-69061610D01*
X201417027Y-69045181D01*
X201276721Y-68852067D01*
X201107933Y-68683279D01*
X201090092Y-68670317D01*
X201047428Y-68614990D01*
X201041447Y-68545377D01*
X201074052Y-68483581D01*
X201090091Y-68469684D01*
X201107933Y-68456721D01*
X201276721Y-68287933D01*
X201417027Y-68094819D01*
X201481540Y-67968205D01*
X201529515Y-67917409D01*
X201592025Y-67900500D01*
X205899903Y-67900500D01*
X205966942Y-67920185D01*
X205987584Y-67936819D01*
X206325922Y-68275157D01*
X206359407Y-68336480D01*
X206356173Y-68401155D01*
X206351522Y-68415468D01*
X206319500Y-68617648D01*
X206319500Y-68822351D01*
X206351522Y-69024534D01*
X206414781Y-69219223D01*
X206452901Y-69294036D01*
X206507585Y-69401359D01*
X206507715Y-69401613D01*
X206628028Y-69567213D01*
X206772786Y-69711971D01*
X206904569Y-69807715D01*
X206938390Y-69832287D01*
X207054607Y-69891503D01*
X207120776Y-69925218D01*
X207120778Y-69925218D01*
X207120781Y-69925220D01*
X207225137Y-69959127D01*
X207315465Y-69988477D01*
X207416557Y-70004488D01*
X207517648Y-70020500D01*
X207517649Y-70020500D01*
X207722351Y-70020500D01*
X207722352Y-70020500D01*
X207924534Y-69988477D01*
X208119219Y-69925220D01*
X208301610Y-69832287D01*
X208424024Y-69743349D01*
X208467213Y-69711971D01*
X208467215Y-69711968D01*
X208467219Y-69711966D01*
X208611966Y-69567219D01*
X208611968Y-69567215D01*
X208611971Y-69567213D01*
X208698397Y-69448256D01*
X208732287Y-69401610D01*
X208825220Y-69219219D01*
X208888477Y-69024534D01*
X208920500Y-68822352D01*
X208920500Y-68617682D01*
X216480000Y-68617682D01*
X216480000Y-68822317D01*
X216512009Y-69024417D01*
X216575244Y-69219031D01*
X216668141Y-69401350D01*
X216668147Y-69401359D01*
X216700523Y-69445921D01*
X216700524Y-69445922D01*
X217380000Y-68766446D01*
X217380000Y-68772661D01*
X217407259Y-68874394D01*
X217459920Y-68965606D01*
X217534394Y-69040080D01*
X217625606Y-69092741D01*
X217727339Y-69120000D01*
X217733553Y-69120000D01*
X217054076Y-69799474D01*
X217098650Y-69831859D01*
X217280968Y-69924755D01*
X217475582Y-69987990D01*
X217677683Y-70020000D01*
X217882317Y-70020000D01*
X218084417Y-69987990D01*
X218279031Y-69924755D01*
X218461349Y-69831859D01*
X218505921Y-69799474D01*
X217826447Y-69120000D01*
X217832661Y-69120000D01*
X217934394Y-69092741D01*
X218025606Y-69040080D01*
X218100080Y-68965606D01*
X218152741Y-68874394D01*
X218180000Y-68772661D01*
X218180000Y-68766448D01*
X218859474Y-69445922D01*
X218859474Y-69445921D01*
X218891859Y-69401349D01*
X218984755Y-69219031D01*
X219047990Y-69024417D01*
X219080000Y-68822317D01*
X219080000Y-68617682D01*
X219047990Y-68415582D01*
X218984755Y-68220968D01*
X218891859Y-68038650D01*
X218859474Y-67994077D01*
X218859474Y-67994076D01*
X218180000Y-68673551D01*
X218180000Y-68667339D01*
X218152741Y-68565606D01*
X218100080Y-68474394D01*
X218025606Y-68399920D01*
X217934394Y-68347259D01*
X217832661Y-68320000D01*
X217826446Y-68320000D01*
X218505922Y-67640524D01*
X218505921Y-67640523D01*
X218461359Y-67608147D01*
X218461350Y-67608141D01*
X218279031Y-67515244D01*
X218084417Y-67452009D01*
X217882317Y-67420000D01*
X217677683Y-67420000D01*
X217475582Y-67452009D01*
X217280968Y-67515244D01*
X217098644Y-67608143D01*
X217054077Y-67640523D01*
X217054077Y-67640524D01*
X217733554Y-68320000D01*
X217727339Y-68320000D01*
X217625606Y-68347259D01*
X217534394Y-68399920D01*
X217459920Y-68474394D01*
X217407259Y-68565606D01*
X217380000Y-68667339D01*
X217380000Y-68673553D01*
X216700524Y-67994077D01*
X216700523Y-67994077D01*
X216668143Y-68038644D01*
X216575244Y-68220968D01*
X216512009Y-68415582D01*
X216480000Y-68617682D01*
X208920500Y-68617682D01*
X208920500Y-68617648D01*
X208911105Y-68558331D01*
X208888477Y-68415465D01*
X208847908Y-68290609D01*
X208825220Y-68220781D01*
X208825218Y-68220778D01*
X208825218Y-68220776D01*
X208791503Y-68154607D01*
X208732287Y-68038390D01*
X208712595Y-68011286D01*
X208611971Y-67872786D01*
X208467213Y-67728028D01*
X208301613Y-67607715D01*
X208301612Y-67607714D01*
X208301610Y-67607713D01*
X208244653Y-67578691D01*
X208119223Y-67514781D01*
X207924534Y-67451522D01*
X207749995Y-67423878D01*
X207722352Y-67419500D01*
X207517648Y-67419500D01*
X207479599Y-67425526D01*
X207315468Y-67451522D01*
X207306717Y-67454365D01*
X207301154Y-67456173D01*
X207231313Y-67458167D01*
X207175157Y-67425922D01*
X206687590Y-66938355D01*
X206687588Y-66938352D01*
X206568717Y-66819481D01*
X206568716Y-66819480D01*
X206481904Y-66769360D01*
X206481904Y-66769359D01*
X206481900Y-66769358D01*
X206431785Y-66740423D01*
X206279057Y-66699499D01*
X206120943Y-66699499D01*
X206113347Y-66699499D01*
X206113331Y-66699500D01*
X201592025Y-66699500D01*
X201524986Y-66679815D01*
X201481540Y-66631795D01*
X201443023Y-66556202D01*
X201417027Y-66505181D01*
X201276721Y-66312067D01*
X201107933Y-66143279D01*
X200914819Y-66002973D01*
X200764641Y-65926454D01*
X200702136Y-65894606D01*
X200702135Y-65894605D01*
X200702134Y-65894605D01*
X200475115Y-65820842D01*
X200475113Y-65820841D01*
X200475111Y-65820841D01*
X200279815Y-65789909D01*
X200239351Y-65783500D01*
X200000649Y-65783500D01*
X199960191Y-65789908D01*
X199764888Y-65820841D01*
X199764887Y-65820841D01*
X199537863Y-65894606D01*
X199325180Y-66002973D01*
X199215002Y-66083022D01*
X199132067Y-66143279D01*
X199132065Y-66143281D01*
X199132064Y-66143281D01*
X198963281Y-66312064D01*
X198963281Y-66312065D01*
X198963279Y-66312067D01*
X198903562Y-66394260D01*
X198822973Y-66505180D01*
X198714606Y-66717863D01*
X198714605Y-66717865D01*
X198714605Y-66717866D01*
X198714405Y-66718481D01*
X198640841Y-66944887D01*
X198640841Y-66944888D01*
X198617857Y-67090001D01*
X198603500Y-67180649D01*
X194016499Y-67180649D01*
X194016499Y-66236128D01*
X194010091Y-66176517D01*
X194007048Y-66168359D01*
X193959797Y-66041671D01*
X193959793Y-66041664D01*
X193873547Y-65926455D01*
X193873544Y-65926452D01*
X193758335Y-65840206D01*
X193758328Y-65840202D01*
X193623482Y-65789908D01*
X193623483Y-65789908D01*
X193563883Y-65783501D01*
X193563881Y-65783500D01*
X193563873Y-65783500D01*
X193563864Y-65783500D01*
X191436129Y-65783500D01*
X191436123Y-65783501D01*
X191376516Y-65789908D01*
X191241671Y-65840202D01*
X191241664Y-65840206D01*
X191126455Y-65926452D01*
X191126452Y-65926455D01*
X191040206Y-66041664D01*
X191040202Y-66041671D01*
X190989908Y-66176517D01*
X190984939Y-66222743D01*
X190983501Y-66236123D01*
X190983500Y-66236135D01*
X190983500Y-66474500D01*
X190963815Y-66541539D01*
X190911011Y-66587294D01*
X190859500Y-66598500D01*
X179021943Y-66598500D01*
X178869213Y-66639423D01*
X178827991Y-66663224D01*
X178827990Y-66663224D01*
X178732287Y-66718477D01*
X178732282Y-66718481D01*
X178620480Y-66830283D01*
X178620480Y-66830284D01*
X178620478Y-66830286D01*
X178519480Y-66931284D01*
X178487582Y-66963182D01*
X178426259Y-66996666D01*
X178399901Y-66999500D01*
X177399998Y-66999500D01*
X177399980Y-66999501D01*
X177297203Y-67010000D01*
X177297200Y-67010001D01*
X177130668Y-67065185D01*
X177130663Y-67065187D01*
X176981342Y-67157289D01*
X176857289Y-67281342D01*
X176765187Y-67430663D01*
X176765185Y-67430668D01*
X176756734Y-67456173D01*
X176710001Y-67597203D01*
X176710001Y-67597204D01*
X176710000Y-67597204D01*
X176699500Y-67699983D01*
X176699500Y-68900001D01*
X176699501Y-68900018D01*
X176710000Y-69002796D01*
X176710001Y-69002799D01*
X176748838Y-69120000D01*
X176765186Y-69169334D01*
X176857288Y-69318656D01*
X176981344Y-69442712D01*
X177130666Y-69534814D01*
X177213152Y-69562147D01*
X177270597Y-69601920D01*
X177297420Y-69666436D01*
X177285105Y-69735212D01*
X177275143Y-69746975D01*
X177274077Y-69760524D01*
X177953554Y-70440000D01*
X177947339Y-70440000D01*
X177845606Y-70467259D01*
X177754394Y-70519920D01*
X177679920Y-70594394D01*
X177627259Y-70685606D01*
X177600000Y-70787339D01*
X177600000Y-70793553D01*
X176920524Y-70114077D01*
X176920523Y-70114077D01*
X176888143Y-70158644D01*
X176795244Y-70340968D01*
X176732009Y-70535582D01*
X176700000Y-70737682D01*
X176700000Y-70942317D01*
X176732009Y-71144417D01*
X176795244Y-71339031D01*
X176888141Y-71521350D01*
X176888147Y-71521359D01*
X176920523Y-71565921D01*
X176920524Y-71565922D01*
X177600000Y-70886446D01*
X177600000Y-70892661D01*
X177627259Y-70994394D01*
X177679920Y-71085606D01*
X177754394Y-71160080D01*
X177845606Y-71212741D01*
X177947339Y-71240000D01*
X177953553Y-71240000D01*
X177274076Y-71919474D01*
X177318652Y-71951861D01*
X177411628Y-71999234D01*
X177462425Y-72047208D01*
X177479220Y-72115029D01*
X177456683Y-72181164D01*
X177411630Y-72220203D01*
X177318388Y-72267713D01*
X177152786Y-72388028D01*
X177008028Y-72532786D01*
X176887715Y-72698386D01*
X176794781Y-72880776D01*
X176731522Y-73075465D01*
X176706684Y-73232290D01*
X176699500Y-73277648D01*
X176699500Y-73482352D01*
X176703878Y-73509995D01*
X176731522Y-73684534D01*
X176736173Y-73698848D01*
X176736606Y-73714059D01*
X176741924Y-73728315D01*
X176737582Y-73748271D01*
X176738165Y-73768690D01*
X176730076Y-73782775D01*
X176727072Y-73796588D01*
X176705921Y-73824842D01*
X176530286Y-74000478D01*
X176418481Y-74112282D01*
X176418475Y-74112290D01*
X176381633Y-74176104D01*
X176381633Y-74176106D01*
X176339423Y-74249214D01*
X176339423Y-74249215D01*
X176298499Y-74401943D01*
X176298499Y-74401945D01*
X176298499Y-74570046D01*
X176298500Y-74570059D01*
X176298500Y-79812330D01*
X176298499Y-79812348D01*
X176298499Y-79978054D01*
X176298498Y-79978054D01*
X176339423Y-80130785D01*
X176352122Y-80152781D01*
X176367549Y-80179500D01*
X176411774Y-80256101D01*
X176418479Y-80267714D01*
X176418481Y-80267717D01*
X176537349Y-80386585D01*
X176537355Y-80386590D01*
X176705922Y-80555157D01*
X176739407Y-80616480D01*
X176736173Y-80681155D01*
X176731522Y-80695468D01*
X176699500Y-80897648D01*
X176699500Y-81102351D01*
X176731522Y-81304534D01*
X176794781Y-81499223D01*
X176846385Y-81600500D01*
X176871790Y-81650360D01*
X176887715Y-81681613D01*
X177008028Y-81847213D01*
X177152786Y-81991971D01*
X177266731Y-82074755D01*
X177318390Y-82112287D01*
X177409840Y-82158883D01*
X177411080Y-82159515D01*
X177461876Y-82207490D01*
X177478671Y-82275311D01*
X177456134Y-82341446D01*
X177411080Y-82380485D01*
X177318386Y-82427715D01*
X177152786Y-82548028D01*
X177152782Y-82548032D01*
X177008035Y-82692780D01*
X177008028Y-82692786D01*
X176887715Y-82858386D01*
X176794781Y-83040776D01*
X176731522Y-83235465D01*
X176708660Y-83379815D01*
X176699500Y-83437648D01*
X176699500Y-83642352D01*
X176700953Y-83651523D01*
X176731522Y-83844534D01*
X176736173Y-83858848D01*
X176738165Y-83928690D01*
X176705921Y-83984842D01*
X175553907Y-85136856D01*
X175553899Y-85136864D01*
X175551286Y-85139478D01*
X175551284Y-85139480D01*
X175439480Y-85251284D01*
X175421754Y-85281987D01*
X175415466Y-85292877D01*
X175415466Y-85292878D01*
X175369131Y-85373133D01*
X175360423Y-85388215D01*
X175319499Y-85540943D01*
X175319499Y-85540945D01*
X175319499Y-85709046D01*
X175319500Y-85709059D01*
X175319500Y-108770397D01*
X175299815Y-108837436D01*
X175251800Y-108880879D01*
X175238389Y-108887712D01*
X175072786Y-109008028D01*
X174928028Y-109152786D01*
X174807715Y-109318386D01*
X174714781Y-109500776D01*
X174651522Y-109695465D01*
X174619500Y-109897648D01*
X174619500Y-110102351D01*
X174651523Y-110304535D01*
X174651524Y-110304542D01*
X174662455Y-110338183D01*
X174664450Y-110408024D01*
X174628369Y-110467856D01*
X174565668Y-110498684D01*
X174544524Y-110500500D01*
X171958147Y-110500500D01*
X171891108Y-110480815D01*
X171870466Y-110464181D01*
X156094640Y-94688355D01*
X156094638Y-94688352D01*
X155975767Y-94569481D01*
X155975766Y-94569480D01*
X155888954Y-94519360D01*
X155888954Y-94519359D01*
X155888950Y-94519358D01*
X155838835Y-94490423D01*
X155686107Y-94449499D01*
X155527993Y-94449499D01*
X155520397Y-94449499D01*
X155520381Y-94449500D01*
X154156999Y-94449500D01*
X154089960Y-94429815D01*
X154044205Y-94377011D01*
X154032999Y-94325500D01*
X154032999Y-94002129D01*
X154032998Y-94002123D01*
X154026591Y-93942516D01*
X153976297Y-93807671D01*
X153976293Y-93807664D01*
X153890047Y-93692455D01*
X153890044Y-93692452D01*
X153774835Y-93606206D01*
X153774828Y-93606202D01*
X153639982Y-93555908D01*
X153639983Y-93555908D01*
X153580383Y-93549501D01*
X153580381Y-93549500D01*
X153580373Y-93549500D01*
X153580365Y-93549500D01*
X153304500Y-93549500D01*
X153237461Y-93529815D01*
X153191706Y-93477011D01*
X153180500Y-93425500D01*
X153180500Y-92874543D01*
X153200185Y-92807504D01*
X153252989Y-92761749D01*
X153257048Y-92759982D01*
X153379172Y-92709397D01*
X153379172Y-92709396D01*
X153379179Y-92709394D01*
X153510289Y-92621789D01*
X153621789Y-92510289D01*
X153709394Y-92379179D01*
X153769737Y-92233497D01*
X153800500Y-92078842D01*
X153800500Y-91921158D01*
X153800500Y-91921155D01*
X153800499Y-91921153D01*
X153772431Y-91780048D01*
X153769737Y-91766503D01*
X153765458Y-91756173D01*
X153709397Y-91620827D01*
X153709390Y-91620814D01*
X153621789Y-91489711D01*
X153621786Y-91489707D01*
X153578338Y-91446259D01*
X153573999Y-91438313D01*
X153566751Y-91432887D01*
X153557516Y-91408127D01*
X153544853Y-91384936D01*
X153545498Y-91375905D01*
X153542335Y-91367422D01*
X153547951Y-91341603D01*
X153549837Y-91315244D01*
X153555656Y-91306188D01*
X153557188Y-91299149D01*
X153578337Y-91270897D01*
X153611418Y-91237817D01*
X153672742Y-91204333D01*
X153699098Y-91201500D01*
X169275500Y-91201500D01*
X169342539Y-91221185D01*
X169388294Y-91273989D01*
X169399500Y-91325500D01*
X169399500Y-102770397D01*
X169379815Y-102837436D01*
X169331800Y-102880879D01*
X169318389Y-102887712D01*
X169152786Y-103008028D01*
X169008028Y-103152786D01*
X168887715Y-103318386D01*
X168794781Y-103500776D01*
X168731522Y-103695465D01*
X168699500Y-103897648D01*
X168699500Y-104102351D01*
X168731522Y-104304534D01*
X168794781Y-104499223D01*
X168846135Y-104600009D01*
X168882195Y-104670781D01*
X168887715Y-104681613D01*
X169008028Y-104847213D01*
X169152786Y-104991971D01*
X169307749Y-105104556D01*
X169318390Y-105112287D01*
X169411840Y-105159902D01*
X169500776Y-105205218D01*
X169500778Y-105205218D01*
X169500781Y-105205220D01*
X169591856Y-105234812D01*
X169695465Y-105268477D01*
X169719931Y-105272352D01*
X169897648Y-105300500D01*
X169897649Y-105300500D01*
X170102351Y-105300500D01*
X170102352Y-105300500D01*
X170304534Y-105268477D01*
X170499219Y-105205220D01*
X170681610Y-105112287D01*
X170810482Y-105018657D01*
X170847213Y-104991971D01*
X170847215Y-104991968D01*
X170847219Y-104991966D01*
X170991966Y-104847219D01*
X170991968Y-104847215D01*
X170991971Y-104847213D01*
X171096892Y-104702799D01*
X171112287Y-104681610D01*
X171205220Y-104499219D01*
X171268477Y-104304534D01*
X171300500Y-104102352D01*
X171300500Y-103897648D01*
X171268477Y-103695466D01*
X171205220Y-103500781D01*
X171205218Y-103500778D01*
X171205218Y-103500776D01*
X171153865Y-103399991D01*
X171112287Y-103318390D01*
X171096892Y-103297200D01*
X170991971Y-103152786D01*
X170847213Y-103008028D01*
X170681610Y-102887712D01*
X170668200Y-102880879D01*
X170617406Y-102832903D01*
X170600500Y-102770397D01*
X170600500Y-90858789D01*
X170600500Y-90858787D01*
X170559577Y-90706060D01*
X170559573Y-90706053D01*
X170551425Y-90691939D01*
X170534952Y-90624039D01*
X170557805Y-90558012D01*
X170571131Y-90542259D01*
X170603102Y-90510288D01*
X171081520Y-90031872D01*
X171160577Y-89894940D01*
X171201501Y-89742213D01*
X171201501Y-89584098D01*
X171201501Y-89576503D01*
X171201500Y-89576485D01*
X171201500Y-73690059D01*
X171201501Y-73690046D01*
X171201501Y-73521945D01*
X171201501Y-73521943D01*
X171160577Y-73369215D01*
X171121133Y-73300896D01*
X171121133Y-73300895D01*
X171081524Y-73232290D01*
X171081521Y-73232286D01*
X171081520Y-73232284D01*
X170969716Y-73120480D01*
X170969715Y-73120479D01*
X170965385Y-73116149D01*
X170965374Y-73116139D01*
X170685364Y-72836129D01*
X170651879Y-72774806D01*
X170656863Y-72705114D01*
X170658468Y-72701033D01*
X170708606Y-72579993D01*
X170769693Y-72352014D01*
X170800500Y-72118011D01*
X170800500Y-71881989D01*
X170769693Y-71647986D01*
X170708606Y-71420007D01*
X170618284Y-71201951D01*
X170618282Y-71201948D01*
X170618280Y-71201943D01*
X170550980Y-71085377D01*
X170500273Y-70997550D01*
X170457918Y-70942352D01*
X170356596Y-70810305D01*
X170356587Y-70810295D01*
X170189704Y-70643412D01*
X170189697Y-70643406D01*
X170002454Y-70499730D01*
X170002453Y-70499729D01*
X170002450Y-70499727D01*
X169899000Y-70440000D01*
X169798056Y-70381719D01*
X169798045Y-70381714D01*
X169579993Y-70291394D01*
X169482180Y-70265185D01*
X169352014Y-70230307D01*
X169352013Y-70230306D01*
X169352010Y-70230306D01*
X169118020Y-70199501D01*
X169118017Y-70199500D01*
X169118011Y-70199500D01*
X168881989Y-70199500D01*
X168881983Y-70199500D01*
X168881979Y-70199501D01*
X168647989Y-70230306D01*
X168420006Y-70291394D01*
X168201954Y-70381714D01*
X168201943Y-70381719D01*
X167997545Y-70499730D01*
X167810302Y-70643406D01*
X167810295Y-70643412D01*
X167643412Y-70810295D01*
X167643406Y-70810302D01*
X167499730Y-70997545D01*
X167381719Y-71201943D01*
X167381714Y-71201954D01*
X167291394Y-71420006D01*
X167230306Y-71647989D01*
X167199501Y-71881979D01*
X167199500Y-71881995D01*
X167199500Y-72118004D01*
X167199501Y-72118020D01*
X167229740Y-72347713D01*
X167230307Y-72352014D01*
X167260738Y-72465582D01*
X167291394Y-72579993D01*
X167381714Y-72798045D01*
X167381719Y-72798056D01*
X167427618Y-72877554D01*
X167499727Y-73002450D01*
X167499729Y-73002453D01*
X167499730Y-73002454D01*
X167643406Y-73189697D01*
X167643412Y-73189704D01*
X167810295Y-73356587D01*
X167810302Y-73356593D01*
X167920306Y-73441001D01*
X167997550Y-73500273D01*
X168105074Y-73562352D01*
X168201943Y-73618280D01*
X168201948Y-73618282D01*
X168201951Y-73618284D01*
X168420007Y-73708606D01*
X168647986Y-73769693D01*
X168881989Y-73800500D01*
X168881996Y-73800500D01*
X169118004Y-73800500D01*
X169118011Y-73800500D01*
X169352014Y-73769693D01*
X169579993Y-73708606D01*
X169700996Y-73658483D01*
X169720872Y-73656346D01*
X169739602Y-73649361D01*
X169754898Y-73652688D01*
X169770464Y-73651015D01*
X169788341Y-73659963D01*
X169807875Y-73664213D01*
X169830161Y-73680896D01*
X169832943Y-73682289D01*
X169836129Y-73685364D01*
X169964181Y-73813416D01*
X169997666Y-73874739D01*
X170000500Y-73901097D01*
X170000500Y-87283826D01*
X169980815Y-87350865D01*
X169928011Y-87396620D01*
X169858853Y-87406564D01*
X169814504Y-87391215D01*
X169798057Y-87381720D01*
X169798051Y-87381717D01*
X169798049Y-87381716D01*
X169796844Y-87381217D01*
X169579993Y-87291394D01*
X169493466Y-87268209D01*
X169352014Y-87230307D01*
X169352013Y-87230306D01*
X169352010Y-87230306D01*
X169118020Y-87199501D01*
X169118017Y-87199500D01*
X169118011Y-87199500D01*
X168881989Y-87199500D01*
X168881983Y-87199500D01*
X168881979Y-87199501D01*
X168647989Y-87230306D01*
X168420006Y-87291394D01*
X168299003Y-87341515D01*
X168229534Y-87348984D01*
X168167055Y-87317708D01*
X168163870Y-87314635D01*
X167879521Y-87030286D01*
X167879520Y-87030284D01*
X167767716Y-86918480D01*
X167767713Y-86918478D01*
X164487590Y-83638355D01*
X164487588Y-83638352D01*
X164368717Y-83519481D01*
X164368709Y-83519475D01*
X164267246Y-83460896D01*
X164267244Y-83460895D01*
X164231790Y-83440425D01*
X164231789Y-83440424D01*
X164219263Y-83437067D01*
X164079057Y-83399499D01*
X163920943Y-83399499D01*
X163913347Y-83399499D01*
X163913331Y-83399500D01*
X157340097Y-83399500D01*
X157273058Y-83379815D01*
X157252416Y-83363181D01*
X152601415Y-78712180D01*
X152567930Y-78650857D01*
X152572914Y-78581165D01*
X152614786Y-78525232D01*
X152680250Y-78500815D01*
X152689096Y-78500499D01*
X153580371Y-78500499D01*
X153580372Y-78500499D01*
X153639983Y-78494091D01*
X153774831Y-78443796D01*
X153890046Y-78357546D01*
X153976296Y-78242331D01*
X154022094Y-78119539D01*
X154063965Y-78063606D01*
X154129429Y-78039189D01*
X154197702Y-78054040D01*
X154225957Y-78075192D01*
X155165425Y-79014660D01*
X155198910Y-79075983D01*
X155199361Y-79078149D01*
X155230261Y-79233491D01*
X155230264Y-79233501D01*
X155290602Y-79379172D01*
X155290609Y-79379185D01*
X155378210Y-79510288D01*
X155378213Y-79510292D01*
X155489707Y-79621786D01*
X155489711Y-79621789D01*
X155620814Y-79709390D01*
X155620827Y-79709397D01*
X155738512Y-79758143D01*
X155766503Y-79769737D01*
X155871001Y-79790523D01*
X155921153Y-79800499D01*
X155921156Y-79800500D01*
X155921158Y-79800500D01*
X156078844Y-79800500D01*
X156078845Y-79800499D01*
X156233497Y-79769737D01*
X156379179Y-79709394D01*
X156510289Y-79621789D01*
X156621789Y-79510289D01*
X156709394Y-79379179D01*
X156769737Y-79233497D01*
X156800500Y-79078842D01*
X156800500Y-78921158D01*
X156800500Y-78921155D01*
X156800499Y-78921153D01*
X156798025Y-78908716D01*
X156769737Y-78766503D01*
X156735984Y-78685015D01*
X156709397Y-78620827D01*
X156709390Y-78620814D01*
X156621789Y-78489711D01*
X156621786Y-78489707D01*
X156510292Y-78378213D01*
X156510288Y-78378210D01*
X156379185Y-78290609D01*
X156379172Y-78290602D01*
X156233501Y-78230264D01*
X156233491Y-78230261D01*
X156078149Y-78199361D01*
X156016238Y-78166976D01*
X156014660Y-78165425D01*
X154487590Y-76638355D01*
X154487588Y-76638352D01*
X154368717Y-76519481D01*
X154368716Y-76519480D01*
X154343426Y-76504879D01*
X154290804Y-76474498D01*
X154290802Y-76474497D01*
X154281904Y-76469360D01*
X154231785Y-76440423D01*
X154119136Y-76410238D01*
X154113528Y-76408139D01*
X154090177Y-76390615D01*
X154065244Y-76375418D01*
X154062558Y-76369890D01*
X154057644Y-76366202D01*
X154047473Y-76338834D01*
X154034716Y-76312571D01*
X154033847Y-76302168D01*
X154033305Y-76300709D01*
X154033609Y-76299317D01*
X154032999Y-76292009D01*
X154032999Y-75952129D01*
X154032998Y-75952123D01*
X154026591Y-75892516D01*
X153976297Y-75757671D01*
X153976293Y-75757664D01*
X153890047Y-75642455D01*
X153890044Y-75642452D01*
X153774835Y-75556206D01*
X153774828Y-75556202D01*
X153639982Y-75505908D01*
X153639983Y-75505908D01*
X153580383Y-75499501D01*
X153580381Y-75499500D01*
X153580373Y-75499500D01*
X153580365Y-75499500D01*
X151980097Y-75499500D01*
X151950656Y-75490855D01*
X151920670Y-75484332D01*
X151915654Y-75480577D01*
X151913058Y-75479815D01*
X151892416Y-75463181D01*
X151766590Y-75337355D01*
X151766588Y-75337352D01*
X151647717Y-75218481D01*
X151647709Y-75218475D01*
X151532197Y-75151785D01*
X151532197Y-75151784D01*
X151532192Y-75151783D01*
X151524722Y-75147469D01*
X151510786Y-75139423D01*
X151472603Y-75129192D01*
X151358057Y-75098499D01*
X151199943Y-75098499D01*
X151192347Y-75098499D01*
X151192331Y-75098500D01*
X150550098Y-75098500D01*
X150483059Y-75078815D01*
X150437304Y-75026011D01*
X150427360Y-74956853D01*
X150456385Y-74893297D01*
X150462417Y-74886819D01*
X150520520Y-74828716D01*
X150599577Y-74691784D01*
X150631596Y-74572287D01*
X150632197Y-74570046D01*
X150637223Y-74551286D01*
X150640500Y-74539058D01*
X150640500Y-74380943D01*
X150640500Y-70899983D01*
X162119500Y-70899983D01*
X162119500Y-73100001D01*
X162119501Y-73100018D01*
X162130000Y-73202796D01*
X162130001Y-73202799D01*
X162162508Y-73300896D01*
X162185186Y-73369334D01*
X162277288Y-73518656D01*
X162401344Y-73642712D01*
X162550666Y-73734814D01*
X162717203Y-73789999D01*
X162819991Y-73800500D01*
X163195500Y-73800499D01*
X163262539Y-73820183D01*
X163308294Y-73872987D01*
X163319500Y-73924499D01*
X163319500Y-74539963D01*
X163299815Y-74607002D01*
X163298602Y-74608853D01*
X163290606Y-74620818D01*
X163290604Y-74620822D01*
X163230264Y-74766498D01*
X163230261Y-74766510D01*
X163199500Y-74921153D01*
X163199500Y-75078846D01*
X163230261Y-75233489D01*
X163230264Y-75233501D01*
X163290602Y-75379172D01*
X163290609Y-75379185D01*
X163378210Y-75510288D01*
X163378213Y-75510292D01*
X163489707Y-75621786D01*
X163489711Y-75621789D01*
X163620814Y-75709390D01*
X163620827Y-75709397D01*
X163756530Y-75765606D01*
X163766503Y-75769737D01*
X163921153Y-75800499D01*
X163921156Y-75800500D01*
X163921158Y-75800500D01*
X164078844Y-75800500D01*
X164078845Y-75800499D01*
X164233497Y-75769737D01*
X164379179Y-75709394D01*
X164510289Y-75621789D01*
X164621789Y-75510289D01*
X164709394Y-75379179D01*
X164769737Y-75233497D01*
X164800500Y-75078842D01*
X164800500Y-74921158D01*
X164800500Y-74921155D01*
X164800499Y-74921153D01*
X164793847Y-74887713D01*
X164769737Y-74766503D01*
X164734114Y-74680500D01*
X164709397Y-74620827D01*
X164709390Y-74620814D01*
X164621789Y-74489711D01*
X164621786Y-74489707D01*
X164556819Y-74424740D01*
X164523334Y-74363417D01*
X164520500Y-74337059D01*
X164520500Y-73924499D01*
X164540185Y-73857460D01*
X164592989Y-73811705D01*
X164644500Y-73800499D01*
X165020002Y-73800499D01*
X165020008Y-73800499D01*
X165122797Y-73789999D01*
X165289334Y-73734814D01*
X165438656Y-73642712D01*
X165562712Y-73518656D01*
X165654814Y-73369334D01*
X165709999Y-73202797D01*
X165720500Y-73100009D01*
X165720499Y-70899992D01*
X165712087Y-70817648D01*
X165709999Y-70797203D01*
X165709998Y-70797200D01*
X165673019Y-70685606D01*
X165654814Y-70630666D01*
X165562712Y-70481344D01*
X165438656Y-70357288D01*
X165289334Y-70265186D01*
X165122797Y-70210001D01*
X165122795Y-70210000D01*
X165020010Y-70199500D01*
X162819998Y-70199500D01*
X162819981Y-70199501D01*
X162717203Y-70210000D01*
X162717200Y-70210001D01*
X162550668Y-70265185D01*
X162550663Y-70265187D01*
X162401342Y-70357289D01*
X162277289Y-70481342D01*
X162185187Y-70630663D01*
X162185186Y-70630665D01*
X162185186Y-70630666D01*
X162130001Y-70797203D01*
X162130001Y-70797204D01*
X162130000Y-70797204D01*
X162119500Y-70899983D01*
X150640500Y-70899983D01*
X150640500Y-69448256D01*
X150660185Y-69381217D01*
X150708204Y-69337772D01*
X150801538Y-69290217D01*
X150984245Y-69157472D01*
X151050046Y-69133994D01*
X151118100Y-69149819D01*
X151166795Y-69199924D01*
X151173308Y-69214459D01*
X151183702Y-69242328D01*
X151183706Y-69242335D01*
X151269952Y-69357544D01*
X151269955Y-69357547D01*
X151385164Y-69443793D01*
X151385171Y-69443797D01*
X151520017Y-69494091D01*
X151520016Y-69494091D01*
X151526944Y-69494835D01*
X151579627Y-69500500D01*
X153580372Y-69500499D01*
X153639983Y-69494091D01*
X153774831Y-69443796D01*
X153890046Y-69357546D01*
X153976296Y-69242331D01*
X154026591Y-69107483D01*
X154033000Y-69047873D01*
X154032999Y-66952128D01*
X154026591Y-66892517D01*
X154003380Y-66830286D01*
X153976297Y-66757671D01*
X153976293Y-66757664D01*
X153890047Y-66642455D01*
X153890044Y-66642452D01*
X153774835Y-66556206D01*
X153774828Y-66556202D01*
X153639982Y-66505908D01*
X153639983Y-66505908D01*
X153580383Y-66499501D01*
X153580381Y-66499500D01*
X153580373Y-66499500D01*
X153580365Y-66499500D01*
X151980097Y-66499500D01*
X151950656Y-66490855D01*
X151920670Y-66484332D01*
X151915654Y-66480577D01*
X151913058Y-66479815D01*
X151892416Y-66463181D01*
X151766590Y-66337355D01*
X151766588Y-66337352D01*
X151647717Y-66218481D01*
X151647716Y-66218480D01*
X151560904Y-66168360D01*
X151560904Y-66168359D01*
X151560900Y-66168358D01*
X151510785Y-66139423D01*
X151358057Y-66098499D01*
X151199943Y-66098499D01*
X151192347Y-66098499D01*
X151192331Y-66098500D01*
X147067453Y-66098500D01*
X147067437Y-66098499D01*
X147059841Y-66098499D01*
X146901726Y-66098499D01*
X146825362Y-66118961D01*
X146748997Y-66139423D01*
X146748992Y-66139426D01*
X146612073Y-66218475D01*
X146612065Y-66218481D01*
X141471237Y-71359310D01*
X141409914Y-71392795D01*
X141340222Y-71387811D01*
X141284289Y-71345939D01*
X141259872Y-71280475D01*
X141265627Y-71233304D01*
X141268477Y-71224533D01*
X141300500Y-71022351D01*
X141300500Y-70817648D01*
X141268477Y-70615465D01*
X141223428Y-70476819D01*
X141205220Y-70420781D01*
X141205218Y-70420778D01*
X141205218Y-70420776D01*
X141164455Y-70340776D01*
X141112287Y-70238390D01*
X141098088Y-70218847D01*
X140991971Y-70072786D01*
X140847213Y-69928028D01*
X140681614Y-69807715D01*
X140665440Y-69799474D01*
X140588917Y-69760483D01*
X140538123Y-69712511D01*
X140521328Y-69644690D01*
X140543865Y-69578555D01*
X140588917Y-69539516D01*
X140681610Y-69492287D01*
X140742214Y-69448256D01*
X140847213Y-69371971D01*
X140847215Y-69371968D01*
X140847219Y-69371966D01*
X140991966Y-69227219D01*
X141012143Y-69199446D01*
X141067472Y-69156780D01*
X141137086Y-69150799D01*
X141198881Y-69183404D01*
X141226365Y-69228518D01*
X141227932Y-69227870D01*
X141290602Y-69379172D01*
X141290609Y-69379185D01*
X141378210Y-69510288D01*
X141378213Y-69510292D01*
X141489707Y-69621786D01*
X141489711Y-69621789D01*
X141620814Y-69709390D01*
X141620827Y-69709397D01*
X141766498Y-69769735D01*
X141766503Y-69769737D01*
X141916000Y-69799474D01*
X141921153Y-69800499D01*
X141921156Y-69800500D01*
X141921158Y-69800500D01*
X142078844Y-69800500D01*
X142078845Y-69800499D01*
X142233497Y-69769737D01*
X142379179Y-69709394D01*
X142510289Y-69621789D01*
X142621789Y-69510289D01*
X142709394Y-69379179D01*
X142769737Y-69233497D01*
X142800500Y-69078842D01*
X142800500Y-68921158D01*
X142800500Y-68921155D01*
X142800499Y-68921153D01*
X142794918Y-68893096D01*
X142769737Y-68766503D01*
X142766959Y-68759796D01*
X142709397Y-68620827D01*
X142709390Y-68620814D01*
X142621789Y-68489711D01*
X142621786Y-68489707D01*
X142510292Y-68378213D01*
X142510288Y-68378210D01*
X142379185Y-68290609D01*
X142379172Y-68290602D01*
X142233501Y-68230264D01*
X142233491Y-68230261D01*
X142078149Y-68199361D01*
X142061392Y-68190595D01*
X142042914Y-68186576D01*
X142017877Y-68167833D01*
X142016238Y-68166976D01*
X142014660Y-68165425D01*
X141867590Y-68018355D01*
X141867588Y-68018352D01*
X141748717Y-67899481D01*
X141748716Y-67899480D01*
X141661904Y-67849360D01*
X141661904Y-67849359D01*
X141661900Y-67849358D01*
X141611785Y-67820423D01*
X141459057Y-67779499D01*
X141300943Y-67779499D01*
X141293347Y-67779499D01*
X141293331Y-67779500D01*
X141229602Y-67779500D01*
X141162563Y-67759815D01*
X141119117Y-67711795D01*
X141112287Y-67698390D01*
X141112285Y-67698387D01*
X141112284Y-67698385D01*
X140991971Y-67532786D01*
X140847213Y-67388028D01*
X140681613Y-67267715D01*
X140681612Y-67267714D01*
X140681610Y-67267713D01*
X140621898Y-67237288D01*
X140499223Y-67174781D01*
X140304534Y-67111522D01*
X140129995Y-67083878D01*
X140102352Y-67079500D01*
X139897648Y-67079500D01*
X139873329Y-67083351D01*
X139695465Y-67111522D01*
X139500776Y-67174781D01*
X139318386Y-67267715D01*
X139152786Y-67388028D01*
X139008028Y-67532786D01*
X138887715Y-67698386D01*
X138794781Y-67880776D01*
X138731522Y-68075465D01*
X138699500Y-68277648D01*
X138699500Y-68482351D01*
X138731522Y-68684534D01*
X138794781Y-68879223D01*
X138853929Y-68995305D01*
X138879341Y-69045180D01*
X138887715Y-69061613D01*
X139008028Y-69227213D01*
X139152786Y-69371971D01*
X139289484Y-69471286D01*
X139318390Y-69492287D01*
X139401850Y-69534812D01*
X139411080Y-69539515D01*
X139461876Y-69587490D01*
X139478671Y-69655311D01*
X139456134Y-69721446D01*
X139411080Y-69760485D01*
X139318386Y-69807715D01*
X139152786Y-69928028D01*
X139008028Y-70072786D01*
X138887715Y-70238386D01*
X138794781Y-70420776D01*
X138731522Y-70615465D01*
X138699500Y-70817648D01*
X138699500Y-71022351D01*
X138731522Y-71224534D01*
X138794781Y-71419223D01*
X138875788Y-71578205D01*
X138888684Y-71646874D01*
X138862408Y-71711614D01*
X138805302Y-71751872D01*
X138765303Y-71758500D01*
X136107670Y-71758500D01*
X136107654Y-71758499D01*
X136100058Y-71758499D01*
X135941943Y-71758499D01*
X135869039Y-71778034D01*
X135789214Y-71799423D01*
X135789209Y-71799426D01*
X135652290Y-71878475D01*
X135652282Y-71878481D01*
X133892181Y-73638582D01*
X133830858Y-73672067D01*
X133761166Y-73667083D01*
X133705233Y-73625211D01*
X133680816Y-73559747D01*
X133680500Y-73550901D01*
X133680500Y-73357648D01*
X133648477Y-73155465D01*
X133597121Y-72997409D01*
X133585220Y-72960781D01*
X133585218Y-72960778D01*
X133585218Y-72960776D01*
X133542813Y-72877553D01*
X133492287Y-72778390D01*
X133460844Y-72735112D01*
X133371971Y-72612786D01*
X133227213Y-72468028D01*
X133061610Y-72347712D01*
X133048200Y-72340879D01*
X133037138Y-72330431D01*
X133023297Y-72324110D01*
X133012255Y-72306928D01*
X132997406Y-72292903D01*
X132993165Y-72277223D01*
X132985523Y-72265332D01*
X132980500Y-72230397D01*
X132980500Y-72149601D01*
X133000185Y-72082562D01*
X133048206Y-72039116D01*
X133061610Y-72032287D01*
X133227219Y-71911966D01*
X133371966Y-71767219D01*
X133371968Y-71767215D01*
X133371971Y-71767213D01*
X133430093Y-71687213D01*
X133492287Y-71601610D01*
X133582872Y-71423827D01*
X133585218Y-71419223D01*
X133585218Y-71419222D01*
X133585220Y-71419219D01*
X133648477Y-71224534D01*
X133680500Y-71022352D01*
X133680500Y-70817648D01*
X133650885Y-70630667D01*
X133648477Y-70615465D01*
X133603428Y-70476819D01*
X133585220Y-70420781D01*
X133585218Y-70420778D01*
X133585218Y-70420776D01*
X133544455Y-70340776D01*
X133492287Y-70238390D01*
X133478088Y-70218847D01*
X133371971Y-70072786D01*
X133227219Y-69928034D01*
X133222706Y-69924755D01*
X133133547Y-69859978D01*
X133090882Y-69804649D01*
X133084903Y-69735036D01*
X133117508Y-69673240D01*
X133167426Y-69641955D01*
X133249334Y-69614814D01*
X133398656Y-69522712D01*
X133522712Y-69398656D01*
X133614814Y-69249334D01*
X133669999Y-69082797D01*
X133680500Y-68980009D01*
X133680499Y-67779992D01*
X133669999Y-67677203D01*
X133614814Y-67510666D01*
X133522712Y-67361344D01*
X133398656Y-67237288D01*
X133249334Y-67145186D01*
X133082797Y-67090001D01*
X133082795Y-67090000D01*
X132980010Y-67079500D01*
X131779998Y-67079500D01*
X131779981Y-67079501D01*
X131677203Y-67090000D01*
X131677200Y-67090001D01*
X131510668Y-67145185D01*
X131510663Y-67145187D01*
X131361342Y-67237289D01*
X131237289Y-67361342D01*
X131145187Y-67510663D01*
X131145185Y-67510668D01*
X131143822Y-67514781D01*
X131090001Y-67677203D01*
X131090001Y-67677204D01*
X131090000Y-67677204D01*
X131079500Y-67779983D01*
X131079500Y-68779901D01*
X131059815Y-68846940D01*
X131043181Y-68867582D01*
X130509286Y-69401478D01*
X130397481Y-69513282D01*
X130397479Y-69513284D01*
X130375592Y-69551194D01*
X130366341Y-69567219D01*
X130338863Y-69614812D01*
X130323193Y-69641954D01*
X130318423Y-69650215D01*
X130277499Y-69802943D01*
X130277499Y-69961057D01*
X130277499Y-69961059D01*
X130277500Y-69971058D01*
X130277500Y-87638243D01*
X130277499Y-87638261D01*
X130277499Y-87803967D01*
X130277498Y-87803967D01*
X120500500Y-87803967D01*
X120500500Y-65002706D01*
X120500618Y-64997297D01*
X120505796Y-64878711D01*
X123149500Y-64878711D01*
X123149500Y-65121288D01*
X123181161Y-65361785D01*
X123243947Y-65596104D01*
X123336773Y-65820205D01*
X123336777Y-65820214D01*
X123358974Y-65858661D01*
X123458064Y-66030289D01*
X123458066Y-66030292D01*
X123458067Y-66030293D01*
X123605733Y-66222736D01*
X123605739Y-66222743D01*
X123777256Y-66394260D01*
X123777263Y-66394266D01*
X123888753Y-66479815D01*
X123969711Y-66541936D01*
X124179788Y-66663224D01*
X124403900Y-66756054D01*
X124638211Y-66818838D01*
X124818586Y-66842584D01*
X124878711Y-66850500D01*
X124878712Y-66850500D01*
X125121289Y-66850500D01*
X125169388Y-66844167D01*
X125361789Y-66818838D01*
X125596100Y-66756054D01*
X125820212Y-66663224D01*
X126030289Y-66541936D01*
X126222738Y-66394265D01*
X126394265Y-66222738D01*
X126541936Y-66030289D01*
X126663224Y-65820212D01*
X126756054Y-65596100D01*
X126818838Y-65361789D01*
X126850500Y-65121288D01*
X126850500Y-64878712D01*
X126850500Y-64878711D01*
X223149500Y-64878711D01*
X223149500Y-65121288D01*
X223181161Y-65361785D01*
X223243947Y-65596104D01*
X223336773Y-65820205D01*
X223336777Y-65820214D01*
X223358974Y-65858661D01*
X223458064Y-66030289D01*
X223458066Y-66030292D01*
X223458067Y-66030293D01*
X223605733Y-66222736D01*
X223605739Y-66222743D01*
X223777256Y-66394260D01*
X223777263Y-66394266D01*
X223888753Y-66479815D01*
X223969711Y-66541936D01*
X224179788Y-66663224D01*
X224403900Y-66756054D01*
X224638211Y-66818838D01*
X224818586Y-66842584D01*
X224878711Y-66850500D01*
X224878712Y-66850500D01*
X225121289Y-66850500D01*
X225169388Y-66844167D01*
X225361789Y-66818838D01*
X225596100Y-66756054D01*
X225820212Y-66663224D01*
X226030289Y-66541936D01*
X226222738Y-66394265D01*
X226394265Y-66222738D01*
X226541936Y-66030289D01*
X226663224Y-65820212D01*
X226756054Y-65596100D01*
X226818838Y-65361789D01*
X226850500Y-65121288D01*
X226850500Y-64878712D01*
X226849253Y-64869243D01*
X226818838Y-64638214D01*
X226818838Y-64638211D01*
X226756054Y-64403900D01*
X226663224Y-64179788D01*
X226541936Y-63969711D01*
X226394265Y-63777262D01*
X226394260Y-63777256D01*
X226222743Y-63605739D01*
X226222736Y-63605733D01*
X226030293Y-63458067D01*
X226030292Y-63458066D01*
X226030289Y-63458064D01*
X225820212Y-63336776D01*
X225820205Y-63336773D01*
X225596104Y-63243947D01*
X225361785Y-63181161D01*
X225121289Y-63149500D01*
X225121288Y-63149500D01*
X224878712Y-63149500D01*
X224878711Y-63149500D01*
X224638214Y-63181161D01*
X224403895Y-63243947D01*
X224179794Y-63336773D01*
X224179785Y-63336777D01*
X223969706Y-63458067D01*
X223777263Y-63605733D01*
X223777256Y-63605739D01*
X223605739Y-63777256D01*
X223605733Y-63777263D01*
X223458067Y-63969706D01*
X223336777Y-64179785D01*
X223336773Y-64179794D01*
X223243947Y-64403895D01*
X223181161Y-64638214D01*
X223149500Y-64878711D01*
X126850500Y-64878711D01*
X126849253Y-64869243D01*
X126818838Y-64638214D01*
X126818838Y-64638211D01*
X126756054Y-64403900D01*
X126663224Y-64179788D01*
X126541936Y-63969711D01*
X126394265Y-63777262D01*
X126394260Y-63777256D01*
X126222743Y-63605739D01*
X126222736Y-63605733D01*
X126030293Y-63458067D01*
X126030292Y-63458066D01*
X126030289Y-63458064D01*
X125820212Y-63336776D01*
X125820205Y-63336773D01*
X125596104Y-63243947D01*
X125361785Y-63181161D01*
X125121289Y-63149500D01*
X125121288Y-63149500D01*
X124878712Y-63149500D01*
X124878711Y-63149500D01*
X124638214Y-63181161D01*
X124403895Y-63243947D01*
X124179794Y-63336773D01*
X124179785Y-63336777D01*
X123969706Y-63458067D01*
X123777263Y-63605733D01*
X123777256Y-63605739D01*
X123605739Y-63777256D01*
X123605733Y-63777263D01*
X123458067Y-63969706D01*
X123336777Y-64179785D01*
X123336773Y-64179794D01*
X123243947Y-64403895D01*
X123181161Y-64638214D01*
X123149500Y-64878711D01*
X120505796Y-64878711D01*
X120506209Y-64869244D01*
X120506209Y-64869243D01*
X120510433Y-64772498D01*
X120517386Y-64613228D01*
X120518326Y-64602495D01*
X120568152Y-64224025D01*
X120570025Y-64213405D01*
X120652649Y-63840709D01*
X120655440Y-63830295D01*
X120770230Y-63466227D01*
X120773917Y-63456095D01*
X120920003Y-63103412D01*
X120924561Y-63093638D01*
X121100822Y-62755045D01*
X121106217Y-62745700D01*
X121311325Y-62423744D01*
X121317515Y-62414905D01*
X121549896Y-62112060D01*
X121556834Y-62103791D01*
X121814726Y-61822352D01*
X121822352Y-61814726D01*
X122103791Y-61556834D01*
X122112060Y-61549896D01*
X122414905Y-61317515D01*
X122423744Y-61311325D01*
X122745700Y-61106217D01*
X122755045Y-61100822D01*
X123093638Y-60924561D01*
X123103412Y-60920003D01*
X123456095Y-60773917D01*
X123466227Y-60770230D01*
X123830295Y-60655440D01*
X123840709Y-60652649D01*
X124213405Y-60570025D01*
X124224025Y-60568152D01*
X124602495Y-60518326D01*
X124613226Y-60517386D01*
X124997297Y-60500617D01*
X125002706Y-60500500D01*
X125065892Y-60500500D01*
X224934108Y-60500500D01*
X224997294Y-60500500D01*
X225002702Y-60500617D01*
G37*
%TD.AperFunction*%
%TD*%
M02*
