M48
; DRILL file {KiCad 9.0.4} date 2026-07-18T11:46:09-0400
; FORMAT={-:-/ absolute / metric / decimal}
; #@! TF.CreationDate,2026-07-18T11:46:09-04:00
; #@! TF.GenerationSoftware,Kicad,Pcbnew,9.0.4
; #@! TF.FileFunction,MixedPlating,1,2
FMAT,2
METRIC
; #@! TA.AperFunction,Plated,PTH,ViaDrill
T1C0.300
; #@! TA.AperFunction,Plated,PTH,ComponentDrill
T2C0.800
; #@! TA.AperFunction,Plated,PTH,ComponentDrill
T3C0.914
; #@! TA.AperFunction,Plated,PTH,ComponentDrill
T4C1.100
; #@! TA.AperFunction,Plated,PTH,ComponentDrill
T5C1.300
; #@! TA.AperFunction,NonPlated,NPTH,ComponentDrill
T6C3.200
%
G90
G05
T1
X139.0Y-83.0
X139.0Y-111.0
X140.0Y-77.0
X140.0Y-87.0
X141.0Y-110.0
X142.0Y-69.0
X142.0Y-81.581
X153.0Y-92.0
X155.0Y-115.0
X156.0Y-79.0
X160.18Y-106.82
X161.854Y-102.146
X164.0Y-75.0
X167.0Y-90.0
X177.0Y-90.0
X185.0Y-102.0
T2
X132.38Y-68.38
X132.38Y-70.92
X132.38Y-73.46
X132.38Y-76.0
X132.38Y-78.54
X132.38Y-81.08
X132.38Y-83.62
X135.015Y-92.46
X135.015Y-97.54
X135.015Y-107.46
X135.015Y-112.54
X137.555Y-95.0
X137.555Y-110.0
X140.0Y-68.38
X140.0Y-70.92
X140.0Y-73.46
X140.0Y-76.0
X140.0Y-78.54
X140.0Y-81.08
X140.0Y-83.62
X148.0Y-104.0
X148.0Y-111.0
X148.19Y-118.0
X155.62Y-104.0
X155.62Y-111.0
X155.81Y-118.0
X162.38Y-104.0
X162.38Y-111.0
X162.38Y-118.0
X170.0Y-104.0
X170.0Y-111.0
X170.0Y-118.0
X175.92Y-110.0
X175.92Y-117.0
X177.62Y-99.92
X178.0Y-68.3
X178.0Y-70.84
X178.0Y-73.38
X178.0Y-75.92
X178.0Y-78.46
X178.0Y-81.0
X178.0Y-83.54
X178.0Y-86.08
X178.0Y-88.62
X180.12Y-99.92
X185.62Y-68.3
X185.62Y-70.84
X185.62Y-73.38
X185.62Y-75.92
X185.62Y-78.46
X185.62Y-81.0
X185.62Y-83.54
X185.62Y-86.08
X185.62Y-88.62
X186.08Y-110.0
X186.08Y-117.0
X187.62Y-99.92
X190.12Y-99.92
X197.62Y-99.92
X200.12Y-99.92
X207.62Y-68.72
X207.62Y-72.77
X207.62Y-76.82
X207.62Y-80.87
X207.62Y-84.92
X207.62Y-88.97
X207.62Y-93.02
X207.62Y-97.07
X207.62Y-101.12
X207.62Y-105.17
X217.78Y-68.72
X217.78Y-72.77
X217.78Y-76.82
X217.78Y-80.87
X217.78Y-84.92
X217.78Y-88.97
X217.78Y-93.02
X217.78Y-97.07
X217.78Y-101.12
X217.78Y-105.17
T3
X192.5Y-67.3
X192.5Y-69.84
X192.5Y-72.38
X192.5Y-74.92
X192.5Y-77.46
X192.5Y-80.0
X192.5Y-82.54
X192.5Y-85.08
X192.5Y-87.62
X192.5Y-90.16
X200.12Y-67.3
X200.12Y-69.84
X200.12Y-72.38
X200.12Y-74.92
X200.12Y-77.46
X200.12Y-80.0
X200.12Y-82.54
X200.12Y-85.08
X200.12Y-87.62
X200.12Y-90.16
T4
X147.5Y-68.0
X147.5Y-77.0
X147.5Y-86.0
X147.5Y-95.05
X150.04Y-68.0
X150.04Y-77.0
X150.04Y-86.0
X150.04Y-95.05
X152.58Y-68.0
X152.58Y-77.0
X152.58Y-86.0
X152.58Y-95.05
T5
X163.92Y-72.0
X163.92Y-89.0
X169.0Y-72.0
X169.0Y-89.0
T6
X125.0Y-65.0
X125.0Y-120.0
X225.0Y-65.0
X225.0Y-120.0
M30
