%TF.GenerationSoftware,KiCad,Pcbnew,9.0.4*%
%TF.CreationDate,2026-07-11T13:55:09-04:00*%
%TF.ProjectId,led_flasher,6c65645f-666c-4617-9368-65722e6b6963,rev?*%
%TF.SameCoordinates,Original*%
%TF.FileFunction,Legend,Top*%
%TF.FilePolarity,Positive*%
%FSLAX46Y46*%
G04 Gerber Fmt 4.6, Leading zero omitted, Abs format (unit mm)*
G04 Created by KiCad (PCBNEW 9.0.4) date 2026-07-11 13:55:09*
%MOMM*%
%LPD*%
G01*
G04 APERTURE LIST*
%ADD10C,0.100000*%
%ADD11C,0.150000*%
%ADD12C,0.000000*%
%ADD13C,0.120000*%
G04 APERTURE END LIST*
D10*
X218494360Y-77372419D02*
X218684836Y-77372419D01*
X218684836Y-77372419D02*
X218780074Y-77420038D01*
X218780074Y-77420038D02*
X218875312Y-77515276D01*
X218875312Y-77515276D02*
X218922931Y-77705752D01*
X218922931Y-77705752D02*
X218922931Y-78039085D01*
X218922931Y-78039085D02*
X218875312Y-78229561D01*
X218875312Y-78229561D02*
X218780074Y-78324800D01*
X218780074Y-78324800D02*
X218684836Y-78372419D01*
X218684836Y-78372419D02*
X218494360Y-78372419D01*
X218494360Y-78372419D02*
X218399122Y-78324800D01*
X218399122Y-78324800D02*
X218303884Y-78229561D01*
X218303884Y-78229561D02*
X218256265Y-78039085D01*
X218256265Y-78039085D02*
X218256265Y-77705752D01*
X218256265Y-77705752D02*
X218303884Y-77515276D01*
X218303884Y-77515276D02*
X218399122Y-77420038D01*
X218399122Y-77420038D02*
X218494360Y-77372419D01*
X219351503Y-78372419D02*
X219351503Y-77372419D01*
X219351503Y-77372419D02*
X219922931Y-78372419D01*
X219922931Y-78372419D02*
X219922931Y-77372419D01*
X218494360Y-72872419D02*
X218684836Y-72872419D01*
X218684836Y-72872419D02*
X218780074Y-72920038D01*
X218780074Y-72920038D02*
X218875312Y-73015276D01*
X218875312Y-73015276D02*
X218922931Y-73205752D01*
X218922931Y-73205752D02*
X218922931Y-73539085D01*
X218922931Y-73539085D02*
X218875312Y-73729561D01*
X218875312Y-73729561D02*
X218780074Y-73824800D01*
X218780074Y-73824800D02*
X218684836Y-73872419D01*
X218684836Y-73872419D02*
X218494360Y-73872419D01*
X218494360Y-73872419D02*
X218399122Y-73824800D01*
X218399122Y-73824800D02*
X218303884Y-73729561D01*
X218303884Y-73729561D02*
X218256265Y-73539085D01*
X218256265Y-73539085D02*
X218256265Y-73205752D01*
X218256265Y-73205752D02*
X218303884Y-73015276D01*
X218303884Y-73015276D02*
X218399122Y-72920038D01*
X218399122Y-72920038D02*
X218494360Y-72872419D01*
X219684836Y-73348609D02*
X219351503Y-73348609D01*
X219351503Y-73872419D02*
X219351503Y-72872419D01*
X219351503Y-72872419D02*
X219827693Y-72872419D01*
X220541979Y-73348609D02*
X220208646Y-73348609D01*
X220208646Y-73872419D02*
X220208646Y-72872419D01*
X220208646Y-72872419D02*
X220684836Y-72872419D01*
X205780074Y-93262475D02*
X205303884Y-93262475D01*
X205303884Y-93262475D02*
X205303884Y-92262475D01*
X206113408Y-92738665D02*
X206446741Y-92738665D01*
X206589598Y-93262475D02*
X206113408Y-93262475D01*
X206113408Y-93262475D02*
X206113408Y-92262475D01*
X206113408Y-92262475D02*
X206589598Y-92262475D01*
X207018170Y-93262475D02*
X207018170Y-92262475D01*
X207018170Y-92262475D02*
X207256265Y-92262475D01*
X207256265Y-92262475D02*
X207399122Y-92310094D01*
X207399122Y-92310094D02*
X207494360Y-92405332D01*
X207494360Y-92405332D02*
X207541979Y-92500570D01*
X207541979Y-92500570D02*
X207589598Y-92691046D01*
X207589598Y-92691046D02*
X207589598Y-92833903D01*
X207589598Y-92833903D02*
X207541979Y-93024379D01*
X207541979Y-93024379D02*
X207494360Y-93119617D01*
X207494360Y-93119617D02*
X207399122Y-93214856D01*
X207399122Y-93214856D02*
X207256265Y-93262475D01*
X207256265Y-93262475D02*
X207018170Y-93262475D01*
X209113408Y-92738665D02*
X208780075Y-92738665D01*
X208780075Y-93262475D02*
X208780075Y-92262475D01*
X208780075Y-92262475D02*
X209256265Y-92262475D01*
X209780075Y-93262475D02*
X209684837Y-93214856D01*
X209684837Y-93214856D02*
X209637218Y-93119617D01*
X209637218Y-93119617D02*
X209637218Y-92262475D01*
X210589599Y-93262475D02*
X210589599Y-92738665D01*
X210589599Y-92738665D02*
X210541980Y-92643427D01*
X210541980Y-92643427D02*
X210446742Y-92595808D01*
X210446742Y-92595808D02*
X210256266Y-92595808D01*
X210256266Y-92595808D02*
X210161028Y-92643427D01*
X210589599Y-93214856D02*
X210494361Y-93262475D01*
X210494361Y-93262475D02*
X210256266Y-93262475D01*
X210256266Y-93262475D02*
X210161028Y-93214856D01*
X210161028Y-93214856D02*
X210113409Y-93119617D01*
X210113409Y-93119617D02*
X210113409Y-93024379D01*
X210113409Y-93024379D02*
X210161028Y-92929141D01*
X210161028Y-92929141D02*
X210256266Y-92881522D01*
X210256266Y-92881522D02*
X210494361Y-92881522D01*
X210494361Y-92881522D02*
X210589599Y-92833903D01*
X211018171Y-93214856D02*
X211113409Y-93262475D01*
X211113409Y-93262475D02*
X211303885Y-93262475D01*
X211303885Y-93262475D02*
X211399123Y-93214856D01*
X211399123Y-93214856D02*
X211446742Y-93119617D01*
X211446742Y-93119617D02*
X211446742Y-93071998D01*
X211446742Y-93071998D02*
X211399123Y-92976760D01*
X211399123Y-92976760D02*
X211303885Y-92929141D01*
X211303885Y-92929141D02*
X211161028Y-92929141D01*
X211161028Y-92929141D02*
X211065790Y-92881522D01*
X211065790Y-92881522D02*
X211018171Y-92786284D01*
X211018171Y-92786284D02*
X211018171Y-92738665D01*
X211018171Y-92738665D02*
X211065790Y-92643427D01*
X211065790Y-92643427D02*
X211161028Y-92595808D01*
X211161028Y-92595808D02*
X211303885Y-92595808D01*
X211303885Y-92595808D02*
X211399123Y-92643427D01*
X211875314Y-93262475D02*
X211875314Y-92262475D01*
X212303885Y-93262475D02*
X212303885Y-92738665D01*
X212303885Y-92738665D02*
X212256266Y-92643427D01*
X212256266Y-92643427D02*
X212161028Y-92595808D01*
X212161028Y-92595808D02*
X212018171Y-92595808D01*
X212018171Y-92595808D02*
X211922933Y-92643427D01*
X211922933Y-92643427D02*
X211875314Y-92691046D01*
X213161028Y-93214856D02*
X213065790Y-93262475D01*
X213065790Y-93262475D02*
X212875314Y-93262475D01*
X212875314Y-93262475D02*
X212780076Y-93214856D01*
X212780076Y-93214856D02*
X212732457Y-93119617D01*
X212732457Y-93119617D02*
X212732457Y-92738665D01*
X212732457Y-92738665D02*
X212780076Y-92643427D01*
X212780076Y-92643427D02*
X212875314Y-92595808D01*
X212875314Y-92595808D02*
X213065790Y-92595808D01*
X213065790Y-92595808D02*
X213161028Y-92643427D01*
X213161028Y-92643427D02*
X213208647Y-92738665D01*
X213208647Y-92738665D02*
X213208647Y-92833903D01*
X213208647Y-92833903D02*
X212732457Y-92929141D01*
X213637219Y-93262475D02*
X213637219Y-92595808D01*
X213637219Y-92786284D02*
X213684838Y-92691046D01*
X213684838Y-92691046D02*
X213732457Y-92643427D01*
X213732457Y-92643427D02*
X213827695Y-92595808D01*
X213827695Y-92595808D02*
X213922933Y-92595808D01*
X205875312Y-94777180D02*
X205827693Y-94824800D01*
X205827693Y-94824800D02*
X205684836Y-94872419D01*
X205684836Y-94872419D02*
X205589598Y-94872419D01*
X205589598Y-94872419D02*
X205446741Y-94824800D01*
X205446741Y-94824800D02*
X205351503Y-94729561D01*
X205351503Y-94729561D02*
X205303884Y-94634323D01*
X205303884Y-94634323D02*
X205256265Y-94443847D01*
X205256265Y-94443847D02*
X205256265Y-94300990D01*
X205256265Y-94300990D02*
X205303884Y-94110514D01*
X205303884Y-94110514D02*
X205351503Y-94015276D01*
X205351503Y-94015276D02*
X205446741Y-93920038D01*
X205446741Y-93920038D02*
X205589598Y-93872419D01*
X205589598Y-93872419D02*
X205684836Y-93872419D01*
X205684836Y-93872419D02*
X205827693Y-93920038D01*
X205827693Y-93920038D02*
X205875312Y-93967657D01*
X206732455Y-94872419D02*
X206732455Y-94348609D01*
X206732455Y-94348609D02*
X206684836Y-94253371D01*
X206684836Y-94253371D02*
X206589598Y-94205752D01*
X206589598Y-94205752D02*
X206399122Y-94205752D01*
X206399122Y-94205752D02*
X206303884Y-94253371D01*
X206732455Y-94824800D02*
X206637217Y-94872419D01*
X206637217Y-94872419D02*
X206399122Y-94872419D01*
X206399122Y-94872419D02*
X206303884Y-94824800D01*
X206303884Y-94824800D02*
X206256265Y-94729561D01*
X206256265Y-94729561D02*
X206256265Y-94634323D01*
X206256265Y-94634323D02*
X206303884Y-94539085D01*
X206303884Y-94539085D02*
X206399122Y-94491466D01*
X206399122Y-94491466D02*
X206637217Y-94491466D01*
X206637217Y-94491466D02*
X206732455Y-94443847D01*
X207065789Y-94205752D02*
X207446741Y-94205752D01*
X207208646Y-93872419D02*
X207208646Y-94729561D01*
X207208646Y-94729561D02*
X207256265Y-94824800D01*
X207256265Y-94824800D02*
X207351503Y-94872419D01*
X207351503Y-94872419D02*
X207446741Y-94872419D01*
X207780075Y-94872419D02*
X207780075Y-93872419D01*
X208208646Y-94872419D02*
X208208646Y-94348609D01*
X208208646Y-94348609D02*
X208161027Y-94253371D01*
X208161027Y-94253371D02*
X208065789Y-94205752D01*
X208065789Y-94205752D02*
X207922932Y-94205752D01*
X207922932Y-94205752D02*
X207827694Y-94253371D01*
X207827694Y-94253371D02*
X207780075Y-94300990D01*
X209113408Y-94872419D02*
X209113408Y-94348609D01*
X209113408Y-94348609D02*
X209065789Y-94253371D01*
X209065789Y-94253371D02*
X208970551Y-94205752D01*
X208970551Y-94205752D02*
X208780075Y-94205752D01*
X208780075Y-94205752D02*
X208684837Y-94253371D01*
X209113408Y-94824800D02*
X209018170Y-94872419D01*
X209018170Y-94872419D02*
X208780075Y-94872419D01*
X208780075Y-94872419D02*
X208684837Y-94824800D01*
X208684837Y-94824800D02*
X208637218Y-94729561D01*
X208637218Y-94729561D02*
X208637218Y-94634323D01*
X208637218Y-94634323D02*
X208684837Y-94539085D01*
X208684837Y-94539085D02*
X208780075Y-94491466D01*
X208780075Y-94491466D02*
X209018170Y-94491466D01*
X209018170Y-94491466D02*
X209113408Y-94443847D01*
X209589599Y-94872419D02*
X209589599Y-94205752D01*
X209589599Y-94396228D02*
X209637218Y-94300990D01*
X209637218Y-94300990D02*
X209684837Y-94253371D01*
X209684837Y-94253371D02*
X209780075Y-94205752D01*
X209780075Y-94205752D02*
X209875313Y-94205752D01*
X210208647Y-94872419D02*
X210208647Y-94205752D01*
X210208647Y-93872419D02*
X210161028Y-93920038D01*
X210161028Y-93920038D02*
X210208647Y-93967657D01*
X210208647Y-93967657D02*
X210256266Y-93920038D01*
X210256266Y-93920038D02*
X210208647Y-93872419D01*
X210208647Y-93872419D02*
X210208647Y-93967657D01*
X210684837Y-94205752D02*
X210684837Y-94872419D01*
X210684837Y-94300990D02*
X210732456Y-94253371D01*
X210732456Y-94253371D02*
X210827694Y-94205752D01*
X210827694Y-94205752D02*
X210970551Y-94205752D01*
X210970551Y-94205752D02*
X211065789Y-94253371D01*
X211065789Y-94253371D02*
X211113408Y-94348609D01*
X211113408Y-94348609D02*
X211113408Y-94872419D01*
X211970551Y-94824800D02*
X211875313Y-94872419D01*
X211875313Y-94872419D02*
X211684837Y-94872419D01*
X211684837Y-94872419D02*
X211589599Y-94824800D01*
X211589599Y-94824800D02*
X211541980Y-94729561D01*
X211541980Y-94729561D02*
X211541980Y-94348609D01*
X211541980Y-94348609D02*
X211589599Y-94253371D01*
X211589599Y-94253371D02*
X211684837Y-94205752D01*
X211684837Y-94205752D02*
X211875313Y-94205752D01*
X211875313Y-94205752D02*
X211970551Y-94253371D01*
X211970551Y-94253371D02*
X212018170Y-94348609D01*
X212018170Y-94348609D02*
X212018170Y-94443847D01*
X212018170Y-94443847D02*
X211541980Y-94539085D01*
X213113409Y-93872419D02*
X213780075Y-93872419D01*
X213780075Y-93872419D02*
X213113409Y-94872419D01*
X213113409Y-94872419D02*
X213780075Y-94872419D01*
X214161028Y-94872419D02*
X214161028Y-93872419D01*
X214589599Y-94872419D02*
X214589599Y-94348609D01*
X214589599Y-94348609D02*
X214541980Y-94253371D01*
X214541980Y-94253371D02*
X214446742Y-94205752D01*
X214446742Y-94205752D02*
X214303885Y-94205752D01*
X214303885Y-94205752D02*
X214208647Y-94253371D01*
X214208647Y-94253371D02*
X214161028Y-94300990D01*
X215208647Y-94872419D02*
X215113409Y-94824800D01*
X215113409Y-94824800D02*
X215065790Y-94777180D01*
X215065790Y-94777180D02*
X215018171Y-94681942D01*
X215018171Y-94681942D02*
X215018171Y-94396228D01*
X215018171Y-94396228D02*
X215065790Y-94300990D01*
X215065790Y-94300990D02*
X215113409Y-94253371D01*
X215113409Y-94253371D02*
X215208647Y-94205752D01*
X215208647Y-94205752D02*
X215351504Y-94205752D01*
X215351504Y-94205752D02*
X215446742Y-94253371D01*
X215446742Y-94253371D02*
X215494361Y-94300990D01*
X215494361Y-94300990D02*
X215541980Y-94396228D01*
X215541980Y-94396228D02*
X215541980Y-94681942D01*
X215541980Y-94681942D02*
X215494361Y-94777180D01*
X215494361Y-94777180D02*
X215446742Y-94824800D01*
X215446742Y-94824800D02*
X215351504Y-94872419D01*
X215351504Y-94872419D02*
X215208647Y-94872419D01*
X216399123Y-94205752D02*
X216399123Y-94872419D01*
X215970552Y-94205752D02*
X215970552Y-94729561D01*
X215970552Y-94729561D02*
X216018171Y-94824800D01*
X216018171Y-94824800D02*
X216113409Y-94872419D01*
X216113409Y-94872419D02*
X216256266Y-94872419D01*
X216256266Y-94872419D02*
X216351504Y-94824800D01*
X216351504Y-94824800D02*
X216399123Y-94777180D01*
D11*
X199824819Y-65246666D02*
X199348628Y-65579999D01*
X199824819Y-65818094D02*
X198824819Y-65818094D01*
X198824819Y-65818094D02*
X198824819Y-65437142D01*
X198824819Y-65437142D02*
X198872438Y-65341904D01*
X198872438Y-65341904D02*
X198920057Y-65294285D01*
X198920057Y-65294285D02*
X199015295Y-65246666D01*
X199015295Y-65246666D02*
X199158152Y-65246666D01*
X199158152Y-65246666D02*
X199253390Y-65294285D01*
X199253390Y-65294285D02*
X199301009Y-65341904D01*
X199301009Y-65341904D02*
X199348628Y-65437142D01*
X199348628Y-65437142D02*
X199348628Y-65818094D01*
X199824819Y-64294285D02*
X199824819Y-64865713D01*
X199824819Y-64579999D02*
X198824819Y-64579999D01*
X198824819Y-64579999D02*
X198967676Y-64675237D01*
X198967676Y-64675237D02*
X199062914Y-64770475D01*
X199062914Y-64770475D02*
X199110533Y-64865713D01*
X186824819Y-65246666D02*
X186348628Y-65579999D01*
X186824819Y-65818094D02*
X185824819Y-65818094D01*
X185824819Y-65818094D02*
X185824819Y-65437142D01*
X185824819Y-65437142D02*
X185872438Y-65341904D01*
X185872438Y-65341904D02*
X185920057Y-65294285D01*
X185920057Y-65294285D02*
X186015295Y-65246666D01*
X186015295Y-65246666D02*
X186158152Y-65246666D01*
X186158152Y-65246666D02*
X186253390Y-65294285D01*
X186253390Y-65294285D02*
X186301009Y-65341904D01*
X186301009Y-65341904D02*
X186348628Y-65437142D01*
X186348628Y-65437142D02*
X186348628Y-65818094D01*
X185920057Y-64865713D02*
X185872438Y-64818094D01*
X185872438Y-64818094D02*
X185824819Y-64722856D01*
X185824819Y-64722856D02*
X185824819Y-64484761D01*
X185824819Y-64484761D02*
X185872438Y-64389523D01*
X185872438Y-64389523D02*
X185920057Y-64341904D01*
X185920057Y-64341904D02*
X186015295Y-64294285D01*
X186015295Y-64294285D02*
X186110533Y-64294285D01*
X186110533Y-64294285D02*
X186253390Y-64341904D01*
X186253390Y-64341904D02*
X186824819Y-64913332D01*
X186824819Y-64913332D02*
X186824819Y-64294285D01*
X174824819Y-65166666D02*
X174348628Y-65499999D01*
X174824819Y-65738094D02*
X173824819Y-65738094D01*
X173824819Y-65738094D02*
X173824819Y-65357142D01*
X173824819Y-65357142D02*
X173872438Y-65261904D01*
X173872438Y-65261904D02*
X173920057Y-65214285D01*
X173920057Y-65214285D02*
X174015295Y-65166666D01*
X174015295Y-65166666D02*
X174158152Y-65166666D01*
X174158152Y-65166666D02*
X174253390Y-65214285D01*
X174253390Y-65214285D02*
X174301009Y-65261904D01*
X174301009Y-65261904D02*
X174348628Y-65357142D01*
X174348628Y-65357142D02*
X174348628Y-65738094D01*
X173824819Y-64833332D02*
X173824819Y-64214285D01*
X173824819Y-64214285D02*
X174205771Y-64547618D01*
X174205771Y-64547618D02*
X174205771Y-64404761D01*
X174205771Y-64404761D02*
X174253390Y-64309523D01*
X174253390Y-64309523D02*
X174301009Y-64261904D01*
X174301009Y-64261904D02*
X174396247Y-64214285D01*
X174396247Y-64214285D02*
X174634342Y-64214285D01*
X174634342Y-64214285D02*
X174729580Y-64261904D01*
X174729580Y-64261904D02*
X174777200Y-64309523D01*
X174777200Y-64309523D02*
X174824819Y-64404761D01*
X174824819Y-64404761D02*
X174824819Y-64690475D01*
X174824819Y-64690475D02*
X174777200Y-64785713D01*
X174777200Y-64785713D02*
X174729580Y-64833332D01*
X220707200Y-77333332D02*
X220754819Y-77190475D01*
X220754819Y-77190475D02*
X220754819Y-76952380D01*
X220754819Y-76952380D02*
X220707200Y-76857142D01*
X220707200Y-76857142D02*
X220659580Y-76809523D01*
X220659580Y-76809523D02*
X220564342Y-76761904D01*
X220564342Y-76761904D02*
X220469104Y-76761904D01*
X220469104Y-76761904D02*
X220373866Y-76809523D01*
X220373866Y-76809523D02*
X220326247Y-76857142D01*
X220326247Y-76857142D02*
X220278628Y-76952380D01*
X220278628Y-76952380D02*
X220231009Y-77142856D01*
X220231009Y-77142856D02*
X220183390Y-77238094D01*
X220183390Y-77238094D02*
X220135771Y-77285713D01*
X220135771Y-77285713D02*
X220040533Y-77333332D01*
X220040533Y-77333332D02*
X219945295Y-77333332D01*
X219945295Y-77333332D02*
X219850057Y-77285713D01*
X219850057Y-77285713D02*
X219802438Y-77238094D01*
X219802438Y-77238094D02*
X219754819Y-77142856D01*
X219754819Y-77142856D02*
X219754819Y-76904761D01*
X219754819Y-76904761D02*
X219802438Y-76761904D01*
X219754819Y-76428570D02*
X220754819Y-76190475D01*
X220754819Y-76190475D02*
X220040533Y-75999999D01*
X220040533Y-75999999D02*
X220754819Y-75809523D01*
X220754819Y-75809523D02*
X219754819Y-75571428D01*
X220754819Y-74666666D02*
X220754819Y-75238094D01*
X220754819Y-74952380D02*
X219754819Y-74952380D01*
X219754819Y-74952380D02*
X219897676Y-75047618D01*
X219897676Y-75047618D02*
X219992914Y-75142856D01*
X219992914Y-75142856D02*
X220040533Y-75238094D01*
X162824819Y-65246666D02*
X162348628Y-65579999D01*
X162824819Y-65818094D02*
X161824819Y-65818094D01*
X161824819Y-65818094D02*
X161824819Y-65437142D01*
X161824819Y-65437142D02*
X161872438Y-65341904D01*
X161872438Y-65341904D02*
X161920057Y-65294285D01*
X161920057Y-65294285D02*
X162015295Y-65246666D01*
X162015295Y-65246666D02*
X162158152Y-65246666D01*
X162158152Y-65246666D02*
X162253390Y-65294285D01*
X162253390Y-65294285D02*
X162301009Y-65341904D01*
X162301009Y-65341904D02*
X162348628Y-65437142D01*
X162348628Y-65437142D02*
X162348628Y-65818094D01*
X162158152Y-64389523D02*
X162824819Y-64389523D01*
X161777200Y-64627618D02*
X162491485Y-64865713D01*
X162491485Y-64865713D02*
X162491485Y-64246666D01*
X168990057Y-91365238D02*
X168942438Y-91460476D01*
X168942438Y-91460476D02*
X168847200Y-91555714D01*
X168847200Y-91555714D02*
X168704342Y-91698571D01*
X168704342Y-91698571D02*
X168656723Y-91793809D01*
X168656723Y-91793809D02*
X168656723Y-91889047D01*
X168894819Y-91841428D02*
X168847200Y-91936666D01*
X168847200Y-91936666D02*
X168751961Y-92031904D01*
X168751961Y-92031904D02*
X168561485Y-92079523D01*
X168561485Y-92079523D02*
X168228152Y-92079523D01*
X168228152Y-92079523D02*
X168037676Y-92031904D01*
X168037676Y-92031904D02*
X167942438Y-91936666D01*
X167942438Y-91936666D02*
X167894819Y-91841428D01*
X167894819Y-91841428D02*
X167894819Y-91650952D01*
X167894819Y-91650952D02*
X167942438Y-91555714D01*
X167942438Y-91555714D02*
X168037676Y-91460476D01*
X168037676Y-91460476D02*
X168228152Y-91412857D01*
X168228152Y-91412857D02*
X168561485Y-91412857D01*
X168561485Y-91412857D02*
X168751961Y-91460476D01*
X168751961Y-91460476D02*
X168847200Y-91555714D01*
X168847200Y-91555714D02*
X168894819Y-91650952D01*
X168894819Y-91650952D02*
X168894819Y-91841428D01*
X167990057Y-91031904D02*
X167942438Y-90984285D01*
X167942438Y-90984285D02*
X167894819Y-90889047D01*
X167894819Y-90889047D02*
X167894819Y-90650952D01*
X167894819Y-90650952D02*
X167942438Y-90555714D01*
X167942438Y-90555714D02*
X167990057Y-90508095D01*
X167990057Y-90508095D02*
X168085295Y-90460476D01*
X168085295Y-90460476D02*
X168180533Y-90460476D01*
X168180533Y-90460476D02*
X168323390Y-90508095D01*
X168323390Y-90508095D02*
X168894819Y-91079523D01*
X168894819Y-91079523D02*
X168894819Y-90460476D01*
X180990057Y-91365238D02*
X180942438Y-91460476D01*
X180942438Y-91460476D02*
X180847200Y-91555714D01*
X180847200Y-91555714D02*
X180704342Y-91698571D01*
X180704342Y-91698571D02*
X180656723Y-91793809D01*
X180656723Y-91793809D02*
X180656723Y-91889047D01*
X180894819Y-91841428D02*
X180847200Y-91936666D01*
X180847200Y-91936666D02*
X180751961Y-92031904D01*
X180751961Y-92031904D02*
X180561485Y-92079523D01*
X180561485Y-92079523D02*
X180228152Y-92079523D01*
X180228152Y-92079523D02*
X180037676Y-92031904D01*
X180037676Y-92031904D02*
X179942438Y-91936666D01*
X179942438Y-91936666D02*
X179894819Y-91841428D01*
X179894819Y-91841428D02*
X179894819Y-91650952D01*
X179894819Y-91650952D02*
X179942438Y-91555714D01*
X179942438Y-91555714D02*
X180037676Y-91460476D01*
X180037676Y-91460476D02*
X180228152Y-91412857D01*
X180228152Y-91412857D02*
X180561485Y-91412857D01*
X180561485Y-91412857D02*
X180751961Y-91460476D01*
X180751961Y-91460476D02*
X180847200Y-91555714D01*
X180847200Y-91555714D02*
X180894819Y-91650952D01*
X180894819Y-91650952D02*
X180894819Y-91841428D01*
X180894819Y-90460476D02*
X180894819Y-91031904D01*
X180894819Y-90746190D02*
X179894819Y-90746190D01*
X179894819Y-90746190D02*
X180037676Y-90841428D01*
X180037676Y-90841428D02*
X180132914Y-90936666D01*
X180132914Y-90936666D02*
X180180533Y-91031904D01*
X154238095Y-91304819D02*
X154238095Y-90304819D01*
X154238095Y-90781009D02*
X154809523Y-90781009D01*
X154809523Y-91304819D02*
X154809523Y-90304819D01*
X155714285Y-90638152D02*
X155714285Y-91304819D01*
X155476190Y-90257200D02*
X155238095Y-90971485D01*
X155238095Y-90971485D02*
X155857142Y-90971485D01*
X224238095Y-91304819D02*
X224238095Y-90304819D01*
X224238095Y-90781009D02*
X224809523Y-90781009D01*
X224809523Y-91304819D02*
X224809523Y-90304819D01*
X225190476Y-90304819D02*
X225809523Y-90304819D01*
X225809523Y-90304819D02*
X225476190Y-90685771D01*
X225476190Y-90685771D02*
X225619047Y-90685771D01*
X225619047Y-90685771D02*
X225714285Y-90733390D01*
X225714285Y-90733390D02*
X225761904Y-90781009D01*
X225761904Y-90781009D02*
X225809523Y-90876247D01*
X225809523Y-90876247D02*
X225809523Y-91114342D01*
X225809523Y-91114342D02*
X225761904Y-91209580D01*
X225761904Y-91209580D02*
X225714285Y-91257200D01*
X225714285Y-91257200D02*
X225619047Y-91304819D01*
X225619047Y-91304819D02*
X225333333Y-91304819D01*
X225333333Y-91304819D02*
X225238095Y-91257200D01*
X225238095Y-91257200D02*
X225190476Y-91209580D01*
X224238095Y-51304819D02*
X224238095Y-50304819D01*
X224238095Y-50781009D02*
X224809523Y-50781009D01*
X224809523Y-51304819D02*
X224809523Y-50304819D01*
X225238095Y-50400057D02*
X225285714Y-50352438D01*
X225285714Y-50352438D02*
X225380952Y-50304819D01*
X225380952Y-50304819D02*
X225619047Y-50304819D01*
X225619047Y-50304819D02*
X225714285Y-50352438D01*
X225714285Y-50352438D02*
X225761904Y-50400057D01*
X225761904Y-50400057D02*
X225809523Y-50495295D01*
X225809523Y-50495295D02*
X225809523Y-50590533D01*
X225809523Y-50590533D02*
X225761904Y-50733390D01*
X225761904Y-50733390D02*
X225190476Y-51304819D01*
X225190476Y-51304819D02*
X225809523Y-51304819D01*
X154238095Y-51304819D02*
X154238095Y-50304819D01*
X154238095Y-50781009D02*
X154809523Y-50781009D01*
X154809523Y-51304819D02*
X154809523Y-50304819D01*
X155809523Y-51304819D02*
X155238095Y-51304819D01*
X155523809Y-51304819D02*
X155523809Y-50304819D01*
X155523809Y-50304819D02*
X155428571Y-50447676D01*
X155428571Y-50447676D02*
X155333333Y-50542914D01*
X155333333Y-50542914D02*
X155238095Y-50590533D01*
X156494819Y-83008094D02*
X155494819Y-83008094D01*
X155494819Y-83008094D02*
X155494819Y-82769999D01*
X155494819Y-82769999D02*
X155542438Y-82627142D01*
X155542438Y-82627142D02*
X155637676Y-82531904D01*
X155637676Y-82531904D02*
X155732914Y-82484285D01*
X155732914Y-82484285D02*
X155923390Y-82436666D01*
X155923390Y-82436666D02*
X156066247Y-82436666D01*
X156066247Y-82436666D02*
X156256723Y-82484285D01*
X156256723Y-82484285D02*
X156351961Y-82531904D01*
X156351961Y-82531904D02*
X156447200Y-82627142D01*
X156447200Y-82627142D02*
X156494819Y-82769999D01*
X156494819Y-82769999D02*
X156494819Y-83008094D01*
X155590057Y-82055713D02*
X155542438Y-82008094D01*
X155542438Y-82008094D02*
X155494819Y-81912856D01*
X155494819Y-81912856D02*
X155494819Y-81674761D01*
X155494819Y-81674761D02*
X155542438Y-81579523D01*
X155542438Y-81579523D02*
X155590057Y-81531904D01*
X155590057Y-81531904D02*
X155685295Y-81484285D01*
X155685295Y-81484285D02*
X155780533Y-81484285D01*
X155780533Y-81484285D02*
X155923390Y-81531904D01*
X155923390Y-81531904D02*
X156494819Y-82103332D01*
X156494819Y-82103332D02*
X156494819Y-81484285D01*
X193494819Y-83008094D02*
X192494819Y-83008094D01*
X192494819Y-83008094D02*
X192494819Y-82769999D01*
X192494819Y-82769999D02*
X192542438Y-82627142D01*
X192542438Y-82627142D02*
X192637676Y-82531904D01*
X192637676Y-82531904D02*
X192732914Y-82484285D01*
X192732914Y-82484285D02*
X192923390Y-82436666D01*
X192923390Y-82436666D02*
X193066247Y-82436666D01*
X193066247Y-82436666D02*
X193256723Y-82484285D01*
X193256723Y-82484285D02*
X193351961Y-82531904D01*
X193351961Y-82531904D02*
X193447200Y-82627142D01*
X193447200Y-82627142D02*
X193494819Y-82769999D01*
X193494819Y-82769999D02*
X193494819Y-83008094D01*
X193494819Y-81484285D02*
X193494819Y-82055713D01*
X193494819Y-81769999D02*
X192494819Y-81769999D01*
X192494819Y-81769999D02*
X192637676Y-81865237D01*
X192637676Y-81865237D02*
X192732914Y-81960475D01*
X192732914Y-81960475D02*
X192780533Y-82055713D01*
X167959580Y-82416666D02*
X168007200Y-82464285D01*
X168007200Y-82464285D02*
X168054819Y-82607142D01*
X168054819Y-82607142D02*
X168054819Y-82702380D01*
X168054819Y-82702380D02*
X168007200Y-82845237D01*
X168007200Y-82845237D02*
X167911961Y-82940475D01*
X167911961Y-82940475D02*
X167816723Y-82988094D01*
X167816723Y-82988094D02*
X167626247Y-83035713D01*
X167626247Y-83035713D02*
X167483390Y-83035713D01*
X167483390Y-83035713D02*
X167292914Y-82988094D01*
X167292914Y-82988094D02*
X167197676Y-82940475D01*
X167197676Y-82940475D02*
X167102438Y-82845237D01*
X167102438Y-82845237D02*
X167054819Y-82702380D01*
X167054819Y-82702380D02*
X167054819Y-82607142D01*
X167054819Y-82607142D02*
X167102438Y-82464285D01*
X167102438Y-82464285D02*
X167150057Y-82416666D01*
X167150057Y-82035713D02*
X167102438Y-81988094D01*
X167102438Y-81988094D02*
X167054819Y-81892856D01*
X167054819Y-81892856D02*
X167054819Y-81654761D01*
X167054819Y-81654761D02*
X167102438Y-81559523D01*
X167102438Y-81559523D02*
X167150057Y-81511904D01*
X167150057Y-81511904D02*
X167245295Y-81464285D01*
X167245295Y-81464285D02*
X167340533Y-81464285D01*
X167340533Y-81464285D02*
X167483390Y-81511904D01*
X167483390Y-81511904D02*
X168054819Y-82083332D01*
X168054819Y-82083332D02*
X168054819Y-81464285D01*
X179959580Y-82416666D02*
X180007200Y-82464285D01*
X180007200Y-82464285D02*
X180054819Y-82607142D01*
X180054819Y-82607142D02*
X180054819Y-82702380D01*
X180054819Y-82702380D02*
X180007200Y-82845237D01*
X180007200Y-82845237D02*
X179911961Y-82940475D01*
X179911961Y-82940475D02*
X179816723Y-82988094D01*
X179816723Y-82988094D02*
X179626247Y-83035713D01*
X179626247Y-83035713D02*
X179483390Y-83035713D01*
X179483390Y-83035713D02*
X179292914Y-82988094D01*
X179292914Y-82988094D02*
X179197676Y-82940475D01*
X179197676Y-82940475D02*
X179102438Y-82845237D01*
X179102438Y-82845237D02*
X179054819Y-82702380D01*
X179054819Y-82702380D02*
X179054819Y-82607142D01*
X179054819Y-82607142D02*
X179102438Y-82464285D01*
X179102438Y-82464285D02*
X179150057Y-82416666D01*
X180054819Y-81464285D02*
X180054819Y-82035713D01*
X180054819Y-81749999D02*
X179054819Y-81749999D01*
X179054819Y-81749999D02*
X179197676Y-81845237D01*
X179197676Y-81845237D02*
X179292914Y-81940475D01*
X179292914Y-81940475D02*
X179340533Y-82035713D01*
D12*
%TO.C,G\u002A\u002A\u002A*%
G36*
X207308442Y-79833532D02*
G01*
X207645445Y-79878985D01*
X207876704Y-79958656D01*
X208142674Y-80128671D01*
X208451436Y-80376126D01*
X208766935Y-80665858D01*
X209053118Y-80962706D01*
X209273928Y-81231508D01*
X209393311Y-81437101D01*
X209393631Y-81438023D01*
X209477970Y-81444304D01*
X209679075Y-81397440D01*
X209956531Y-81307287D01*
X210010333Y-81287642D01*
X210760488Y-81088328D01*
X211576294Y-81010749D01*
X212403699Y-81056872D01*
X213016000Y-81178273D01*
X213443829Y-81304254D01*
X213900776Y-81455840D01*
X214294691Y-81602294D01*
X214328333Y-81615994D01*
X214921000Y-81860076D01*
X215046133Y-81665204D01*
X215197415Y-81466083D01*
X215427772Y-81204072D01*
X215702421Y-80914315D01*
X215986575Y-80631953D01*
X216245451Y-80392131D01*
X216444262Y-80229991D01*
X216504295Y-80192030D01*
X216774779Y-80111182D01*
X217133259Y-80078213D01*
X217505927Y-80093054D01*
X217818972Y-80155634D01*
X217909704Y-80193355D01*
X218172312Y-80379922D01*
X218461702Y-80658745D01*
X218724452Y-80972949D01*
X218896463Y-81243851D01*
X219012738Y-81575277D01*
X219082454Y-81984861D01*
X219106621Y-82428817D01*
X219086248Y-82863359D01*
X219022347Y-83244702D01*
X218915925Y-83529061D01*
X218841513Y-83626522D01*
X218736391Y-83739486D01*
X218710817Y-83848848D01*
X218759731Y-84020000D01*
X218802600Y-84129365D01*
X218878136Y-84425736D01*
X218929004Y-84848764D01*
X218954964Y-85357544D01*
X218955774Y-85911171D01*
X218931194Y-86468739D01*
X218880983Y-86989343D01*
X218821599Y-87354667D01*
X218684685Y-87984632D01*
X218551687Y-88494314D01*
X218407317Y-88931671D01*
X218236289Y-89344659D01*
X218089777Y-89650417D01*
X217834372Y-90107668D01*
X217563019Y-90463935D01*
X217241896Y-90745906D01*
X216837185Y-90980268D01*
X216315063Y-91193711D01*
X215997369Y-91301588D01*
X215533967Y-91446097D01*
X215167049Y-91541581D01*
X214834752Y-91599013D01*
X214475213Y-91629364D01*
X214074333Y-91642653D01*
X213568954Y-91639759D01*
X212988167Y-91615918D01*
X212423977Y-91575615D01*
X212169333Y-91549827D01*
X211049324Y-91397535D01*
X210038004Y-91212473D01*
X209150476Y-90998260D01*
X208401843Y-90758515D01*
X207833862Y-90510827D01*
X207449519Y-90274204D01*
X207038819Y-89959935D01*
X206640013Y-89603572D01*
X206291353Y-89240665D01*
X206031090Y-88906767D01*
X205941074Y-88751667D01*
X205838990Y-88427279D01*
X205772073Y-87972812D01*
X205753002Y-87651000D01*
X206328462Y-87651000D01*
X206355951Y-88132881D01*
X206455079Y-88512874D01*
X206650197Y-88841258D01*
X206965658Y-89168318D01*
X207132607Y-89311367D01*
X207491731Y-89583636D01*
X207858493Y-89802958D01*
X208273856Y-89987785D01*
X208778782Y-90156565D01*
X209357774Y-90313567D01*
X210383930Y-90542864D01*
X211374272Y-90697795D01*
X212395978Y-90786636D01*
X213446518Y-90817292D01*
X213954491Y-90819087D01*
X214336567Y-90813083D01*
X214636168Y-90793784D01*
X214896713Y-90755695D01*
X215161624Y-90693321D01*
X215474321Y-90601166D01*
X215690184Y-90533332D01*
X216115305Y-90392922D01*
X216417986Y-90274277D01*
X216639565Y-90156134D01*
X216821377Y-90017227D01*
X216965678Y-89877166D01*
X217352241Y-89376311D01*
X217687025Y-88740567D01*
X217961587Y-87998740D01*
X218167486Y-87179635D01*
X218296277Y-86312057D01*
X218339519Y-85424812D01*
X218335935Y-85202025D01*
X218321922Y-84787284D01*
X218302817Y-84502693D01*
X218269130Y-84309123D01*
X218211372Y-84167447D01*
X218120054Y-84038539D01*
X218027712Y-83931111D01*
X217827465Y-83638788D01*
X217784494Y-83398952D01*
X217898966Y-83215424D01*
X217993415Y-83156359D01*
X218200774Y-83021730D01*
X218332637Y-82841351D01*
X218404194Y-82577791D01*
X218430637Y-82193619D01*
X218431974Y-82075700D01*
X218429558Y-81737911D01*
X218408782Y-81518443D01*
X218354380Y-81366313D01*
X218251089Y-81230538D01*
X218146800Y-81123200D01*
X217934194Y-80938572D01*
X217732486Y-80854851D01*
X217458293Y-80835333D01*
X217053403Y-80889875D01*
X216786962Y-81002630D01*
X216546911Y-81191536D01*
X216261278Y-81474947D01*
X215970990Y-81805431D01*
X215716973Y-82135556D01*
X215540156Y-82417891D01*
X215509591Y-82483027D01*
X215414830Y-82675256D01*
X215336255Y-82777548D01*
X215322780Y-82782667D01*
X215222383Y-82747763D01*
X215011991Y-82655295D01*
X214732967Y-82523628D01*
X214667750Y-82491846D01*
X214303135Y-82331765D01*
X213854686Y-82161490D01*
X213403056Y-82011059D01*
X213275026Y-81973154D01*
X212853040Y-81860960D01*
X212517151Y-81797704D01*
X212194195Y-81774790D01*
X211811010Y-81783620D01*
X211708692Y-81789122D01*
X210988267Y-81874515D01*
X210393950Y-82032648D01*
X210100314Y-82146482D01*
X209925605Y-82243907D01*
X209827561Y-82360408D01*
X209763924Y-82531467D01*
X209752804Y-82571000D01*
X209659464Y-82810807D01*
X209518784Y-82940745D01*
X209390354Y-82990675D01*
X209207563Y-83063712D01*
X209122172Y-83133278D01*
X209121333Y-83138842D01*
X209186149Y-83198787D01*
X209339703Y-83188636D01*
X209520654Y-83116716D01*
X209582015Y-83076307D01*
X209768393Y-82999725D01*
X210042983Y-82956239D01*
X210157364Y-82952000D01*
X210452476Y-82974582D01*
X210656744Y-83059301D01*
X210781834Y-83165470D01*
X210936998Y-83387457D01*
X210968485Y-83567637D01*
X210933666Y-83681776D01*
X210841052Y-83731348D01*
X210643422Y-83734348D01*
X210547169Y-83728190D01*
X210163310Y-83748990D01*
X209930852Y-83845388D01*
X209672133Y-83932816D01*
X209318593Y-83945083D01*
X208924786Y-83886781D01*
X208545267Y-83762500D01*
X208458680Y-83721489D01*
X208147225Y-83562597D01*
X208176985Y-84217926D01*
X208184161Y-84593447D01*
X208158783Y-84862505D01*
X208091683Y-85086351D01*
X208025837Y-85227865D01*
X207927182Y-85451124D01*
X207883439Y-85612616D01*
X207887752Y-85651764D01*
X207877094Y-85765719D01*
X207812894Y-85881693D01*
X207725692Y-85982697D01*
X207639799Y-85987153D01*
X207492892Y-85892083D01*
X207455773Y-85864627D01*
X207251403Y-85636558D01*
X207194303Y-85356001D01*
X207283430Y-85008665D01*
X207378863Y-84812152D01*
X207506034Y-84526412D01*
X207584802Y-84249138D01*
X207597333Y-84133920D01*
X207590884Y-83950882D01*
X207549868Y-83913443D01*
X207441781Y-83997880D01*
X207428000Y-84010333D01*
X207299696Y-84177593D01*
X207258667Y-84310051D01*
X207193032Y-84457252D01*
X207039080Y-84600403D01*
X206814537Y-84840381D01*
X206629055Y-85233583D01*
X206485474Y-85767818D01*
X206386632Y-86430896D01*
X206335370Y-87210627D01*
X206328462Y-87651000D01*
X205753002Y-87651000D01*
X205739529Y-87423658D01*
X205740564Y-86815209D01*
X205774385Y-86182856D01*
X205840199Y-85561993D01*
X205937212Y-84988011D01*
X206034271Y-84594792D01*
X206037259Y-84455340D01*
X205921981Y-84353657D01*
X205824105Y-84308643D01*
X205464801Y-84080107D01*
X205237461Y-83760985D01*
X205186942Y-83539010D01*
X205782357Y-83539010D01*
X205893736Y-83623707D01*
X205954309Y-83629333D01*
X206033862Y-83601661D01*
X206004105Y-83490360D01*
X205982545Y-83448561D01*
X205896635Y-83332036D01*
X205826566Y-83364709D01*
X205815819Y-83381019D01*
X205782357Y-83539010D01*
X205186942Y-83539010D01*
X205149777Y-83375714D01*
X205209443Y-82948734D01*
X205214320Y-82936815D01*
X206379051Y-82936815D01*
X206391747Y-83046572D01*
X206476354Y-83233998D01*
X206510902Y-83293722D01*
X206685696Y-83581147D01*
X206887515Y-83346519D01*
X207022282Y-83158389D01*
X207088059Y-83004826D01*
X207089333Y-82989612D01*
X207026055Y-82902661D01*
X206823210Y-82868482D01*
X206755663Y-82867333D01*
X206532966Y-82883396D01*
X206393754Y-82923319D01*
X206379051Y-82936815D01*
X205214320Y-82936815D01*
X205314887Y-82691034D01*
X205397756Y-82507374D01*
X207940487Y-82507374D01*
X207993945Y-82528667D01*
X208100286Y-82507840D01*
X208319392Y-82453602D01*
X208565445Y-82388088D01*
X208836565Y-82311843D01*
X209032991Y-82252783D01*
X209107026Y-82226007D01*
X209094264Y-82145309D01*
X209040547Y-82027918D01*
X208878803Y-81883179D01*
X208640768Y-81858881D01*
X208367070Y-81952971D01*
X208196496Y-82070526D01*
X208032151Y-82241963D01*
X207940798Y-82401189D01*
X207940487Y-82507374D01*
X205397756Y-82507374D01*
X205409916Y-82480424D01*
X205445883Y-82297739D01*
X205431495Y-82105333D01*
X205988667Y-82105333D01*
X206575737Y-82105333D01*
X207162807Y-82105333D01*
X207403758Y-81745500D01*
X207615370Y-81491773D01*
X207865045Y-81275782D01*
X207959458Y-81216333D01*
X208153893Y-81097841D01*
X208264667Y-81003422D01*
X208274438Y-80982255D01*
X208209195Y-80900603D01*
X208047315Y-80779880D01*
X207999500Y-80749739D01*
X207710962Y-80637971D01*
X207336896Y-80578946D01*
X206934563Y-80572435D01*
X206561225Y-80618212D01*
X206274145Y-80716051D01*
X206211751Y-80756812D01*
X206092583Y-80866759D01*
X206025406Y-80993797D01*
X205995633Y-81187750D01*
X205988677Y-81498446D01*
X205988667Y-81518812D01*
X205988667Y-82105333D01*
X205431495Y-82105333D01*
X205429005Y-82072039D01*
X205388702Y-81848572D01*
X205344749Y-81518812D01*
X205339641Y-81480487D01*
X205323371Y-81094512D01*
X205331888Y-80905204D01*
X205376374Y-80621633D01*
X205469161Y-80415568D01*
X205649575Y-80209805D01*
X205720461Y-80142372D01*
X206066776Y-79819333D01*
X206836259Y-79819333D01*
X207308442Y-79833532D01*
G37*
G36*
X213786313Y-85477849D02*
G01*
X213989667Y-85522425D01*
X214623267Y-85759048D01*
X215161921Y-86096025D01*
X215589293Y-86515450D01*
X215889043Y-86999414D01*
X216044834Y-87530010D01*
X216063683Y-87795794D01*
X216009480Y-88234865D01*
X215839400Y-88605547D01*
X215541226Y-88919608D01*
X215102742Y-89188812D01*
X214511731Y-89424924D01*
X214303708Y-89490808D01*
X213852760Y-89603817D01*
X213340190Y-89695407D01*
X212812015Y-89760943D01*
X212314251Y-89795788D01*
X211892914Y-89795307D01*
X211619000Y-89761295D01*
X210940074Y-89554995D01*
X210413664Y-89290257D01*
X210029934Y-88956760D01*
X209779047Y-88544181D01*
X209651168Y-88042200D01*
X209645816Y-87951852D01*
X210229185Y-87951852D01*
X210254583Y-88261070D01*
X210338601Y-88474778D01*
X210566212Y-88680151D01*
X210901081Y-88826281D01*
X211359979Y-88917545D01*
X211959676Y-88958324D01*
X212202282Y-88961474D01*
X212677112Y-88956812D01*
X213044189Y-88935185D01*
X213364876Y-88888172D01*
X213700539Y-88807353D01*
X214025730Y-88711268D01*
X214626583Y-88483903D01*
X215068840Y-88223240D01*
X215350580Y-87932358D01*
X215469886Y-87614335D01*
X215424836Y-87272251D01*
X215213513Y-86909185D01*
X215176979Y-86864459D01*
X214829184Y-86573897D01*
X214354054Y-86360158D01*
X213777422Y-86227858D01*
X213125121Y-86181619D01*
X212422985Y-86226058D01*
X211998496Y-86296134D01*
X211472186Y-86420636D01*
X211080555Y-86562661D01*
X210789005Y-86744012D01*
X210562935Y-86986490D01*
X210367746Y-87311898D01*
X210358904Y-87329295D01*
X210264358Y-87618740D01*
X210229185Y-87951852D01*
X209645816Y-87951852D01*
X209629333Y-87673621D01*
X209697609Y-87056677D01*
X209900393Y-86538323D01*
X210234618Y-86123563D01*
X210697219Y-85817397D01*
X210793635Y-85774310D01*
X211314442Y-85607183D01*
X211930581Y-85489523D01*
X212585586Y-85425781D01*
X213222986Y-85420406D01*
X213786313Y-85477849D01*
G37*
G36*
X210254567Y-84366955D02*
G01*
X210454513Y-84513903D01*
X210629835Y-84696628D01*
X210725155Y-84864252D01*
X210730000Y-84898905D01*
X210757651Y-85035772D01*
X210777202Y-85093158D01*
X210760010Y-85251963D01*
X210626476Y-85397659D01*
X210426358Y-85484195D01*
X210346250Y-85492000D01*
X210138044Y-85431743D01*
X209979877Y-85315910D01*
X209823964Y-85071896D01*
X209760353Y-84805710D01*
X209784521Y-84560614D01*
X209891944Y-84379872D01*
X210078102Y-84306746D01*
X210085378Y-84306667D01*
X210254567Y-84366955D01*
G37*
G36*
X214066843Y-84162433D02*
G01*
X214123294Y-84215601D01*
X214301261Y-84460574D01*
X214376588Y-84708179D01*
X214359828Y-84925860D01*
X214261532Y-85081060D01*
X214092253Y-85141224D01*
X213862541Y-85073795D01*
X213847850Y-85065439D01*
X213712799Y-84911892D01*
X213604947Y-84665640D01*
X213550417Y-84403307D01*
X213563429Y-84231151D01*
X213677032Y-84052995D01*
X213848416Y-84029990D01*
X214066843Y-84162433D01*
G37*
G36*
X211714687Y-87247474D02*
G01*
X211850804Y-87403724D01*
X211945906Y-87622220D01*
X211986937Y-87855178D01*
X211960842Y-88054815D01*
X211854564Y-88173349D01*
X211819077Y-88183806D01*
X211677617Y-88140370D01*
X211515530Y-87999431D01*
X211497455Y-87977372D01*
X211367220Y-87733852D01*
X211333799Y-87491874D01*
X211393947Y-87298855D01*
X211544415Y-87202212D01*
X211550612Y-87201252D01*
X211714687Y-87247474D01*
G37*
G36*
X213661054Y-86998724D02*
G01*
X213853591Y-87171203D01*
X213987193Y-87414302D01*
X214020101Y-87650606D01*
X214018319Y-87661038D01*
X213922626Y-87802376D01*
X213750387Y-87841352D01*
X213565065Y-87770853D01*
X213508176Y-87718227D01*
X213343837Y-87448811D01*
X213322711Y-87195359D01*
X213382139Y-87064339D01*
X213506486Y-86959502D01*
X213661054Y-86998724D01*
G37*
%TO.C,R1*%
D13*
X198370000Y-61810000D02*
X195630000Y-61810000D01*
X195630000Y-68350000D01*
X198370000Y-68350000D01*
X198370000Y-61810000D01*
X197000000Y-69120000D02*
X197000000Y-68350000D01*
X197000000Y-61040000D02*
X197000000Y-61810000D01*
%TO.C,R2*%
X185370000Y-61810000D02*
X182630000Y-61810000D01*
X182630000Y-68350000D01*
X185370000Y-68350000D01*
X185370000Y-61810000D01*
X184000000Y-69120000D02*
X184000000Y-68350000D01*
X184000000Y-61040000D02*
X184000000Y-61810000D01*
%TO.C,R3*%
X173370000Y-61730000D02*
X170630000Y-61730000D01*
X170630000Y-68270000D01*
X173370000Y-68270000D01*
X173370000Y-61730000D01*
X172000000Y-69040000D02*
X172000000Y-68270000D01*
X172000000Y-60960000D02*
X172000000Y-61730000D01*
%TO.C,SW1*%
X220200000Y-83300000D02*
X220200000Y-82000000D01*
X221500000Y-83300000D02*
X220200000Y-83300000D01*
X227100000Y-83000000D02*
X221900000Y-83000000D01*
X221150000Y-80950000D02*
X221150000Y-71050000D01*
X227850000Y-71050000D02*
X227850000Y-80950000D01*
X221900000Y-69000000D02*
X227100000Y-69000000D01*
%TO.C,R4*%
X160000000Y-61040000D02*
X160000000Y-61810000D01*
X160000000Y-69120000D02*
X160000000Y-68350000D01*
X161370000Y-61810000D02*
X158630000Y-61810000D01*
X158630000Y-68350000D01*
X161370000Y-68350000D01*
X161370000Y-61810000D01*
%TO.C,Q2*%
X173850000Y-93070000D02*
X173850000Y-89470000D01*
X173838478Y-93108478D02*
G75*
G02*
X169399999Y-91270000I-1838478J1838478D01*
G01*
X169400000Y-91270000D02*
G75*
G02*
X173838478Y-89431522I2600000J0D01*
G01*
%TO.C,Q1*%
X185850000Y-93070000D02*
X185850000Y-89470000D01*
X185838478Y-93108478D02*
G75*
G02*
X181399999Y-91270000I-1838478J1838478D01*
G01*
X181400000Y-91270000D02*
G75*
G02*
X185838478Y-89431522I2600000J0D01*
G01*
%TO.C,D2*%
X158455000Y-84830000D02*
X161545000Y-84830000D01*
X158455170Y-84830000D02*
G75*
G02*
X160000000Y-79280000I1544830J2560000D01*
G01*
X160000000Y-79280000D02*
G75*
G02*
X161544830Y-84830000I0J-2990000D01*
G01*
X162500000Y-82270000D02*
G75*
G02*
X157500000Y-82270000I-2500000J0D01*
G01*
X157500000Y-82270000D02*
G75*
G02*
X162500000Y-82270000I2500000J0D01*
G01*
%TO.C,D1*%
X195455000Y-84830000D02*
X198545000Y-84830000D01*
X195455170Y-84830000D02*
G75*
G02*
X197000000Y-79280000I1544830J2560000D01*
G01*
X197000000Y-79280000D02*
G75*
G02*
X198544830Y-84830000I0J-2990000D01*
G01*
X199500000Y-82270000D02*
G75*
G02*
X194500000Y-82270000I-2500000J0D01*
G01*
X194500000Y-82270000D02*
G75*
G02*
X199500000Y-82270000I2500000J0D01*
G01*
%TO.C,C2*%
X170161000Y-85750241D02*
X170161000Y-85120241D01*
X169846000Y-85435241D02*
X170476000Y-85435241D01*
X168770000Y-82250000D02*
X175230000Y-82250000D01*
X168770000Y-82210000D02*
X175230000Y-82210000D01*
X168771000Y-82170000D02*
X175229000Y-82170000D01*
X168772000Y-82130000D02*
X175228000Y-82130000D01*
X168774000Y-82090000D02*
X175226000Y-82090000D01*
X168776000Y-82050000D02*
X175224000Y-82050000D01*
X168779000Y-82010000D02*
X170960000Y-82010000D01*
X173040000Y-82010000D02*
X175221000Y-82010000D01*
X168782000Y-81970000D02*
X170960000Y-81970000D01*
X173040000Y-81970000D02*
X175218000Y-81970000D01*
X168786000Y-81930000D02*
X170960000Y-81930000D01*
X173040000Y-81930000D02*
X175214000Y-81930000D01*
X168790000Y-81890000D02*
X170960000Y-81890000D01*
X173040000Y-81890000D02*
X175210000Y-81890000D01*
X168795000Y-81850000D02*
X170960000Y-81850000D01*
X173040000Y-81850000D02*
X175205000Y-81850000D01*
X168800000Y-81810000D02*
X170960000Y-81810000D01*
X173040000Y-81810000D02*
X175200000Y-81810000D01*
X168805000Y-81770000D02*
X170960000Y-81770000D01*
X173040000Y-81770000D02*
X175195000Y-81770000D01*
X168812000Y-81730000D02*
X170960000Y-81730000D01*
X173040000Y-81730000D02*
X175188000Y-81730000D01*
X168818000Y-81690000D02*
X170960000Y-81690000D01*
X173040000Y-81690000D02*
X175182000Y-81690000D01*
X168826000Y-81650000D02*
X170960000Y-81650000D01*
X173040000Y-81650000D02*
X175174000Y-81650000D01*
X168833000Y-81610000D02*
X170960000Y-81610000D01*
X173040000Y-81610000D02*
X175167000Y-81610000D01*
X168841000Y-81570000D02*
X170960000Y-81570000D01*
X173040000Y-81570000D02*
X175159000Y-81570000D01*
X168850000Y-81530000D02*
X170960000Y-81530000D01*
X173040000Y-81530000D02*
X175150000Y-81530000D01*
X168860000Y-81490000D02*
X170960000Y-81490000D01*
X173040000Y-81490000D02*
X175140000Y-81490000D01*
X168869000Y-81450000D02*
X170960000Y-81450000D01*
X173040000Y-81450000D02*
X175131000Y-81450000D01*
X168880000Y-81410000D02*
X170960000Y-81410000D01*
X173040000Y-81410000D02*
X175120000Y-81410000D01*
X168891000Y-81370000D02*
X170960000Y-81370000D01*
X173040000Y-81370000D02*
X175109000Y-81370000D01*
X168902000Y-81330000D02*
X170960000Y-81330000D01*
X173040000Y-81330000D02*
X175098000Y-81330000D01*
X168914000Y-81290000D02*
X170960000Y-81290000D01*
X173040000Y-81290000D02*
X175086000Y-81290000D01*
X168927000Y-81250000D02*
X170960000Y-81250000D01*
X173040000Y-81250000D02*
X175073000Y-81250000D01*
X168940000Y-81210000D02*
X170960000Y-81210000D01*
X173040000Y-81210000D02*
X175060000Y-81210000D01*
X168953000Y-81170000D02*
X170960000Y-81170000D01*
X173040000Y-81170000D02*
X175047000Y-81170000D01*
X168968000Y-81130000D02*
X170960000Y-81130000D01*
X173040000Y-81130000D02*
X175032000Y-81130000D01*
X168983000Y-81090000D02*
X170960000Y-81090000D01*
X173040000Y-81090000D02*
X175017000Y-81090000D01*
X168998000Y-81050000D02*
X170960000Y-81050000D01*
X173040000Y-81050000D02*
X175002000Y-81050000D01*
X169014000Y-81010000D02*
X170960000Y-81010000D01*
X173040000Y-81010000D02*
X174986000Y-81010000D01*
X169031000Y-80970000D02*
X170960000Y-80970000D01*
X173040000Y-80970000D02*
X174969000Y-80970000D01*
X169048000Y-80930000D02*
X170960000Y-80930000D01*
X173040000Y-80930000D02*
X174952000Y-80930000D01*
X169066000Y-80890000D02*
X170960000Y-80890000D01*
X173040000Y-80890000D02*
X174934000Y-80890000D01*
X169085000Y-80850000D02*
X170960000Y-80850000D01*
X173040000Y-80850000D02*
X174915000Y-80850000D01*
X169104000Y-80810000D02*
X170960000Y-80810000D01*
X173040000Y-80810000D02*
X174896000Y-80810000D01*
X169124000Y-80770000D02*
X170960000Y-80770000D01*
X173040000Y-80770000D02*
X174876000Y-80770000D01*
X169145000Y-80730000D02*
X170960000Y-80730000D01*
X173040000Y-80730000D02*
X174855000Y-80730000D01*
X169166000Y-80690000D02*
X170960000Y-80690000D01*
X173040000Y-80690000D02*
X174834000Y-80690000D01*
X169188000Y-80650000D02*
X170960000Y-80650000D01*
X173040000Y-80650000D02*
X174812000Y-80650000D01*
X169211000Y-80610000D02*
X170960000Y-80610000D01*
X173040000Y-80610000D02*
X174789000Y-80610000D01*
X169235000Y-80570000D02*
X170960000Y-80570000D01*
X173040000Y-80570000D02*
X174765000Y-80570000D01*
X169259000Y-80530000D02*
X170960000Y-80530000D01*
X173040000Y-80530000D02*
X174741000Y-80530000D01*
X169284000Y-80490000D02*
X170960000Y-80490000D01*
X173040000Y-80490000D02*
X174716000Y-80490000D01*
X169310000Y-80450000D02*
X170960000Y-80450000D01*
X173040000Y-80450000D02*
X174690000Y-80450000D01*
X169337000Y-80410000D02*
X170960000Y-80410000D01*
X173040000Y-80410000D02*
X174663000Y-80410000D01*
X169364000Y-80370000D02*
X170960000Y-80370000D01*
X173040000Y-80370000D02*
X174636000Y-80370000D01*
X169393000Y-80330000D02*
X170960000Y-80330000D01*
X173040000Y-80330000D02*
X174607000Y-80330000D01*
X169423000Y-80290000D02*
X170960000Y-80290000D01*
X173040000Y-80290000D02*
X174577000Y-80290000D01*
X169453000Y-80250000D02*
X170960000Y-80250000D01*
X173040000Y-80250000D02*
X174547000Y-80250000D01*
X169484000Y-80210000D02*
X170960000Y-80210000D01*
X173040000Y-80210000D02*
X174516000Y-80210000D01*
X169517000Y-80170000D02*
X170960000Y-80170000D01*
X173040000Y-80170000D02*
X174483000Y-80170000D01*
X169550000Y-80130000D02*
X170960000Y-80130000D01*
X173040000Y-80130000D02*
X174450000Y-80130000D01*
X169585000Y-80090000D02*
X170960000Y-80090000D01*
X173040000Y-80090000D02*
X174415000Y-80090000D01*
X169621000Y-80050000D02*
X170960000Y-80050000D01*
X173040000Y-80050000D02*
X174379000Y-80050000D01*
X169658000Y-80010000D02*
X170960000Y-80010000D01*
X173040000Y-80010000D02*
X174342000Y-80010000D01*
X169696000Y-79970000D02*
X170960000Y-79970000D01*
X173040000Y-79970000D02*
X174304000Y-79970000D01*
X169736000Y-79930000D02*
X174264000Y-79930000D01*
X169777000Y-79890000D02*
X174223000Y-79890000D01*
X169819000Y-79850000D02*
X174181000Y-79850000D01*
X169863000Y-79810000D02*
X174137000Y-79810000D01*
X169909000Y-79770000D02*
X174091000Y-79770000D01*
X169956000Y-79730000D02*
X174044000Y-79730000D01*
X170005000Y-79690000D02*
X173995000Y-79690000D01*
X170057000Y-79650000D02*
X173943000Y-79650000D01*
X170110000Y-79610000D02*
X173890000Y-79610000D01*
X170166000Y-79570000D02*
X173834000Y-79570000D01*
X170225000Y-79530000D02*
X173775000Y-79530000D01*
X170286000Y-79490000D02*
X173714000Y-79490000D01*
X170351000Y-79450000D02*
X173649000Y-79450000D01*
X170419000Y-79410000D02*
X173581000Y-79410000D01*
X170491000Y-79370000D02*
X173509000Y-79370000D01*
X170568000Y-79330000D02*
X173432000Y-79330000D01*
X170650000Y-79290000D02*
X173350000Y-79290000D01*
X170739000Y-79250000D02*
X173261000Y-79250000D01*
X170835000Y-79210000D02*
X173165000Y-79210000D01*
X170942000Y-79170000D02*
X173058000Y-79170000D01*
X171061000Y-79130000D02*
X172939000Y-79130000D01*
X171199000Y-79090000D02*
X172801000Y-79090000D01*
X171367000Y-79050000D02*
X172633000Y-79050000D01*
X171598000Y-79010000D02*
X172402000Y-79010000D01*
X175270000Y-82250000D02*
G75*
G02*
X168730000Y-82250000I-3270000J0D01*
G01*
X168730000Y-82250000D02*
G75*
G02*
X175270000Y-82250000I3270000J0D01*
G01*
%TO.C,C1*%
X182161000Y-85750241D02*
X182161000Y-85120241D01*
X181846000Y-85435241D02*
X182476000Y-85435241D01*
X180770000Y-82250000D02*
X187230000Y-82250000D01*
X180770000Y-82210000D02*
X187230000Y-82210000D01*
X180771000Y-82170000D02*
X187229000Y-82170000D01*
X180772000Y-82130000D02*
X187228000Y-82130000D01*
X180774000Y-82090000D02*
X187226000Y-82090000D01*
X180776000Y-82050000D02*
X187224000Y-82050000D01*
X180779000Y-82010000D02*
X182960000Y-82010000D01*
X185040000Y-82010000D02*
X187221000Y-82010000D01*
X180782000Y-81970000D02*
X182960000Y-81970000D01*
X185040000Y-81970000D02*
X187218000Y-81970000D01*
X180786000Y-81930000D02*
X182960000Y-81930000D01*
X185040000Y-81930000D02*
X187214000Y-81930000D01*
X180790000Y-81890000D02*
X182960000Y-81890000D01*
X185040000Y-81890000D02*
X187210000Y-81890000D01*
X180795000Y-81850000D02*
X182960000Y-81850000D01*
X185040000Y-81850000D02*
X187205000Y-81850000D01*
X180800000Y-81810000D02*
X182960000Y-81810000D01*
X185040000Y-81810000D02*
X187200000Y-81810000D01*
X180805000Y-81770000D02*
X182960000Y-81770000D01*
X185040000Y-81770000D02*
X187195000Y-81770000D01*
X180812000Y-81730000D02*
X182960000Y-81730000D01*
X185040000Y-81730000D02*
X187188000Y-81730000D01*
X180818000Y-81690000D02*
X182960000Y-81690000D01*
X185040000Y-81690000D02*
X187182000Y-81690000D01*
X180826000Y-81650000D02*
X182960000Y-81650000D01*
X185040000Y-81650000D02*
X187174000Y-81650000D01*
X180833000Y-81610000D02*
X182960000Y-81610000D01*
X185040000Y-81610000D02*
X187167000Y-81610000D01*
X180841000Y-81570000D02*
X182960000Y-81570000D01*
X185040000Y-81570000D02*
X187159000Y-81570000D01*
X180850000Y-81530000D02*
X182960000Y-81530000D01*
X185040000Y-81530000D02*
X187150000Y-81530000D01*
X180860000Y-81490000D02*
X182960000Y-81490000D01*
X185040000Y-81490000D02*
X187140000Y-81490000D01*
X180869000Y-81450000D02*
X182960000Y-81450000D01*
X185040000Y-81450000D02*
X187131000Y-81450000D01*
X180880000Y-81410000D02*
X182960000Y-81410000D01*
X185040000Y-81410000D02*
X187120000Y-81410000D01*
X180891000Y-81370000D02*
X182960000Y-81370000D01*
X185040000Y-81370000D02*
X187109000Y-81370000D01*
X180902000Y-81330000D02*
X182960000Y-81330000D01*
X185040000Y-81330000D02*
X187098000Y-81330000D01*
X180914000Y-81290000D02*
X182960000Y-81290000D01*
X185040000Y-81290000D02*
X187086000Y-81290000D01*
X180927000Y-81250000D02*
X182960000Y-81250000D01*
X185040000Y-81250000D02*
X187073000Y-81250000D01*
X180940000Y-81210000D02*
X182960000Y-81210000D01*
X185040000Y-81210000D02*
X187060000Y-81210000D01*
X180953000Y-81170000D02*
X182960000Y-81170000D01*
X185040000Y-81170000D02*
X187047000Y-81170000D01*
X180968000Y-81130000D02*
X182960000Y-81130000D01*
X185040000Y-81130000D02*
X187032000Y-81130000D01*
X180983000Y-81090000D02*
X182960000Y-81090000D01*
X185040000Y-81090000D02*
X187017000Y-81090000D01*
X180998000Y-81050000D02*
X182960000Y-81050000D01*
X185040000Y-81050000D02*
X187002000Y-81050000D01*
X181014000Y-81010000D02*
X182960000Y-81010000D01*
X185040000Y-81010000D02*
X186986000Y-81010000D01*
X181031000Y-80970000D02*
X182960000Y-80970000D01*
X185040000Y-80970000D02*
X186969000Y-80970000D01*
X181048000Y-80930000D02*
X182960000Y-80930000D01*
X185040000Y-80930000D02*
X186952000Y-80930000D01*
X181066000Y-80890000D02*
X182960000Y-80890000D01*
X185040000Y-80890000D02*
X186934000Y-80890000D01*
X181085000Y-80850000D02*
X182960000Y-80850000D01*
X185040000Y-80850000D02*
X186915000Y-80850000D01*
X181104000Y-80810000D02*
X182960000Y-80810000D01*
X185040000Y-80810000D02*
X186896000Y-80810000D01*
X181124000Y-80770000D02*
X182960000Y-80770000D01*
X185040000Y-80770000D02*
X186876000Y-80770000D01*
X181145000Y-80730000D02*
X182960000Y-80730000D01*
X185040000Y-80730000D02*
X186855000Y-80730000D01*
X181166000Y-80690000D02*
X182960000Y-80690000D01*
X185040000Y-80690000D02*
X186834000Y-80690000D01*
X181188000Y-80650000D02*
X182960000Y-80650000D01*
X185040000Y-80650000D02*
X186812000Y-80650000D01*
X181211000Y-80610000D02*
X182960000Y-80610000D01*
X185040000Y-80610000D02*
X186789000Y-80610000D01*
X181235000Y-80570000D02*
X182960000Y-80570000D01*
X185040000Y-80570000D02*
X186765000Y-80570000D01*
X181259000Y-80530000D02*
X182960000Y-80530000D01*
X185040000Y-80530000D02*
X186741000Y-80530000D01*
X181284000Y-80490000D02*
X182960000Y-80490000D01*
X185040000Y-80490000D02*
X186716000Y-80490000D01*
X181310000Y-80450000D02*
X182960000Y-80450000D01*
X185040000Y-80450000D02*
X186690000Y-80450000D01*
X181337000Y-80410000D02*
X182960000Y-80410000D01*
X185040000Y-80410000D02*
X186663000Y-80410000D01*
X181364000Y-80370000D02*
X182960000Y-80370000D01*
X185040000Y-80370000D02*
X186636000Y-80370000D01*
X181393000Y-80330000D02*
X182960000Y-80330000D01*
X185040000Y-80330000D02*
X186607000Y-80330000D01*
X181423000Y-80290000D02*
X182960000Y-80290000D01*
X185040000Y-80290000D02*
X186577000Y-80290000D01*
X181453000Y-80250000D02*
X182960000Y-80250000D01*
X185040000Y-80250000D02*
X186547000Y-80250000D01*
X181484000Y-80210000D02*
X182960000Y-80210000D01*
X185040000Y-80210000D02*
X186516000Y-80210000D01*
X181517000Y-80170000D02*
X182960000Y-80170000D01*
X185040000Y-80170000D02*
X186483000Y-80170000D01*
X181550000Y-80130000D02*
X182960000Y-80130000D01*
X185040000Y-80130000D02*
X186450000Y-80130000D01*
X181585000Y-80090000D02*
X182960000Y-80090000D01*
X185040000Y-80090000D02*
X186415000Y-80090000D01*
X181621000Y-80050000D02*
X182960000Y-80050000D01*
X185040000Y-80050000D02*
X186379000Y-80050000D01*
X181658000Y-80010000D02*
X182960000Y-80010000D01*
X185040000Y-80010000D02*
X186342000Y-80010000D01*
X181696000Y-79970000D02*
X182960000Y-79970000D01*
X185040000Y-79970000D02*
X186304000Y-79970000D01*
X181736000Y-79930000D02*
X186264000Y-79930000D01*
X181777000Y-79890000D02*
X186223000Y-79890000D01*
X181819000Y-79850000D02*
X186181000Y-79850000D01*
X181863000Y-79810000D02*
X186137000Y-79810000D01*
X181909000Y-79770000D02*
X186091000Y-79770000D01*
X181956000Y-79730000D02*
X186044000Y-79730000D01*
X182005000Y-79690000D02*
X185995000Y-79690000D01*
X182057000Y-79650000D02*
X185943000Y-79650000D01*
X182110000Y-79610000D02*
X185890000Y-79610000D01*
X182166000Y-79570000D02*
X185834000Y-79570000D01*
X182225000Y-79530000D02*
X185775000Y-79530000D01*
X182286000Y-79490000D02*
X185714000Y-79490000D01*
X182351000Y-79450000D02*
X185649000Y-79450000D01*
X182419000Y-79410000D02*
X185581000Y-79410000D01*
X182491000Y-79370000D02*
X185509000Y-79370000D01*
X182568000Y-79330000D02*
X185432000Y-79330000D01*
X182650000Y-79290000D02*
X185350000Y-79290000D01*
X182739000Y-79250000D02*
X185261000Y-79250000D01*
X182835000Y-79210000D02*
X185165000Y-79210000D01*
X182942000Y-79170000D02*
X185058000Y-79170000D01*
X183061000Y-79130000D02*
X184939000Y-79130000D01*
X183199000Y-79090000D02*
X184801000Y-79090000D01*
X183367000Y-79050000D02*
X184633000Y-79050000D01*
X183598000Y-79010000D02*
X184402000Y-79010000D01*
X187270000Y-82250000D02*
G75*
G02*
X180730000Y-82250000I-3270000J0D01*
G01*
X180730000Y-82250000D02*
G75*
G02*
X187270000Y-82250000I3270000J0D01*
G01*
%TD*%
M02*
