M48
; DRILL file {KiCad 9.0.4} date 2026-07-11T13:56:23-0400
; FORMAT={-:-/ absolute / metric / decimal}
; #@! TF.CreationDate,2026-07-11T13:56:23-04:00
; #@! TF.GenerationSoftware,Kicad,Pcbnew,9.0.4
; #@! TF.FileFunction,MixedPlating,1,2
FMAT,2
METRIC
; #@! TA.AperFunction,Plated,PTH,ComponentDrill
T1C0.750
; #@! TA.AperFunction,Plated,PTH,ComponentDrill
T2C0.800
; #@! TA.AperFunction,Plated,PTH,ComponentDrill
T3C0.900
; #@! TA.AperFunction,Plated,PTH,ComponentDrill
T4C1.100
; #@! TA.AperFunction,Plated,PTH,ComponentDrill
T5C1.200
; #@! TA.AperFunction,NonPlated,NPTH,ComponentDrill
T6C3.200
; #@! TA.AperFunction,NonPlated,NPTH,ComponentDrill
T7C3.450
%
G90
G05
T1
X172.0Y-90.0
X172.0Y-91.27
X172.0Y-92.54
X184.0Y-90.0
X184.0Y-91.27
X184.0Y-92.54
T2
X160.0Y-60.0
X160.0Y-70.16
X172.0Y-59.92
X172.0Y-70.08
X172.0Y-81.0
X172.0Y-83.5
X184.0Y-60.0
X184.0Y-70.16
X184.0Y-81.0
X184.0Y-83.5
X197.0Y-60.0
X197.0Y-70.16
T3
X160.0Y-81.0
X160.0Y-83.54
X197.0Y-81.0
X197.0Y-83.54
X223.25Y-72.0
X223.25Y-76.0
X223.25Y-80.0
T4
X215.0Y-65.0
X215.0Y-77.7
T5
X221.5Y-70.0
X221.5Y-82.0
X227.5Y-70.0
X227.5Y-82.0
T6
X155.0Y-55.0
X155.0Y-95.0
X225.0Y-55.0
X225.0Y-95.0
T7
X191.28Y-65.0
X191.28Y-89.0
M30
