%TF.GenerationSoftware,KiCad,Pcbnew,9.0.4*%
%TF.CreationDate,2026-07-11T13:55:09-04:00*%
%TF.ProjectId,led_flasher,6c65645f-666c-4617-9368-65722e6b6963,rev?*%
%TF.SameCoordinates,Original*%
%TF.FileFunction,Copper,L1,Top*%
%TF.FilePolarity,Positive*%
%FSLAX46Y46*%
G04 Gerber Fmt 4.6, Leading zero omitted, Abs format (unit mm)*
G04 Created by KiCad (PCBNEW 9.0.4) date 2026-07-11 13:55:09*
%MOMM*%
%LPD*%
G01*
G04 APERTURE LIST*
G04 Aperture macros list*
%AMRoundRect*
0 Rectangle with rounded corners*
0 $1 Rounding radius*
0 $2 $3 $4 $5 $6 $7 $8 $9 X,Y pos of 4 corners*
0 Add a 4 corners polygon primitive as box body*
4,1,4,$2,$3,$4,$5,$6,$7,$8,$9,$2,$3,0*
0 Add four circle primitives for the rounded corners*
1,1,$1+$1,$2,$3*
1,1,$1+$1,$4,$5*
1,1,$1+$1,$6,$7*
1,1,$1+$1,$8,$9*
0 Add four rect primitives between the rounded corners*
20,1,$1+$1,$2,$3,$4,$5,0*
20,1,$1+$1,$4,$5,$6,$7,0*
20,1,$1+$1,$6,$7,$8,$9,0*
20,1,$1+$1,$8,$9,$2,$3,0*%
G04 Aperture macros list end*
%TA.AperFunction,ComponentPad*%
%ADD10C,1.600000*%
%TD*%
%TA.AperFunction,ComponentPad*%
%ADD11C,2.000000*%
%TD*%
%TA.AperFunction,ComponentPad*%
%ADD12C,1.700000*%
%TD*%
%TA.AperFunction,ComponentPad*%
%ADD13R,1.500000X1.050000*%
%TD*%
%TA.AperFunction,ComponentPad*%
%ADD14O,1.500000X1.050000*%
%TD*%
%TA.AperFunction,ComponentPad*%
%ADD15R,1.800000X1.800000*%
%TD*%
%TA.AperFunction,ComponentPad*%
%ADD16C,1.800000*%
%TD*%
%TA.AperFunction,ComponentPad*%
%ADD17RoundRect,0.250000X0.550000X-0.550000X0.550000X0.550000X-0.550000X0.550000X-0.550000X-0.550000X0*%
%TD*%
%TA.AperFunction,ComponentPad*%
%ADD18RoundRect,0.249999X1.250001X1.250001X-1.250001X1.250001X-1.250001X-1.250001X1.250001X-1.250001X0*%
%TD*%
%TA.AperFunction,ComponentPad*%
%ADD19C,3.000000*%
%TD*%
%TA.AperFunction,Conductor*%
%ADD20C,0.200000*%
%TD*%
G04 APERTURE END LIST*
D10*
%TO.P,R1,2*%
%TO.N,Net-(D1-A)*%
X197000000Y-70160000D03*
%TO.P,R1,1*%
%TO.N,VCC*%
X197000000Y-60000000D03*
%TD*%
%TO.P,R2,2*%
%TO.N,Net-(Q2-B)*%
X184000000Y-70160000D03*
%TO.P,R2,1*%
%TO.N,VCC*%
X184000000Y-60000000D03*
%TD*%
%TO.P,R3,2*%
%TO.N,Net-(Q1-B)*%
X172000000Y-70080000D03*
%TO.P,R3,1*%
%TO.N,VCC*%
X172000000Y-59920000D03*
%TD*%
D11*
%TO.P,SW1,*%
%TO.N,*%
X221500000Y-82000000D03*
X227500000Y-82000000D03*
X221500000Y-70000000D03*
X227500000Y-70000000D03*
D12*
%TO.P,SW1,1,A*%
%TO.N,Net-(BT1-+)*%
X223250000Y-80000000D03*
%TO.P,SW1,2,B*%
%TO.N,VCC*%
X223250000Y-76000000D03*
%TO.P,SW1,3,C*%
%TO.N,unconnected-(SW1-C-Pad3)*%
X223250000Y-72000000D03*
%TD*%
D10*
%TO.P,R4,1*%
%TO.N,VCC*%
X160000000Y-60000000D03*
%TO.P,R4,2*%
%TO.N,Net-(D2-A)*%
X160000000Y-70160000D03*
%TD*%
D13*
%TO.P,Q2,1,E*%
%TO.N,GND*%
X172000000Y-92540000D03*
D14*
%TO.P,Q2,2,B*%
%TO.N,Net-(Q2-B)*%
X172000000Y-91270000D03*
%TO.P,Q2,3,C*%
%TO.N,Net-(D2-K)*%
X172000000Y-90000000D03*
%TD*%
D13*
%TO.P,Q1,1,E*%
%TO.N,GND*%
X184000000Y-92540000D03*
D14*
%TO.P,Q1,2,B*%
%TO.N,Net-(Q1-B)*%
X184000000Y-91270000D03*
%TO.P,Q1,3,C*%
%TO.N,Net-(D1-K)*%
X184000000Y-90000000D03*
%TD*%
D15*
%TO.P,D2,1,K*%
%TO.N,Net-(D2-K)*%
X160000000Y-83540000D03*
D16*
%TO.P,D2,2,A*%
%TO.N,Net-(D2-A)*%
X160000000Y-81000000D03*
%TD*%
D15*
%TO.P,D1,1,K*%
%TO.N,Net-(D1-K)*%
X197000000Y-83540000D03*
D16*
%TO.P,D1,2,A*%
%TO.N,Net-(D1-A)*%
X197000000Y-81000000D03*
%TD*%
D17*
%TO.P,C2,1*%
%TO.N,Net-(D2-K)*%
X172000000Y-83500000D03*
D10*
%TO.P,C2,2*%
%TO.N,Net-(Q1-B)*%
X172000000Y-81000000D03*
%TD*%
D17*
%TO.P,C1,1*%
%TO.N,Net-(D1-K)*%
X184000000Y-83500000D03*
D10*
%TO.P,C1,2*%
%TO.N,Net-(Q2-B)*%
X184000000Y-81000000D03*
%TD*%
D18*
%TO.P,BT1,1,+*%
%TO.N,Net-(BT1-+)*%
X215000000Y-65000000D03*
D19*
%TO.P,BT1,2,-*%
%TO.N,GND*%
X215000000Y-77700000D03*
%TD*%
D20*
%TO.N,Net-(Q1-B)*%
X193730000Y-91270000D02*
X200000000Y-85000000D01*
X184000000Y-91270000D02*
X193730000Y-91270000D01*
X200000000Y-85000000D02*
X200000000Y-70000000D01*
X173021000Y-69059000D02*
X172000000Y-70080000D01*
X200000000Y-70000000D02*
X199059000Y-69059000D01*
X199059000Y-69059000D02*
X173021000Y-69059000D01*
%TO.N,VCC*%
X223250000Y-76000000D02*
X220000000Y-72750000D01*
X220000000Y-72750000D02*
X220000000Y-66713840D01*
X213286160Y-60000000D02*
X197000000Y-60000000D01*
X220000000Y-66713840D02*
X213286160Y-60000000D01*
%TO.N,Net-(BT1-+)*%
X215000000Y-65000000D02*
X215000000Y-71750000D01*
X215000000Y-71750000D02*
X223250000Y-80000000D01*
%TO.N,Net-(Q1-B)*%
X183556000Y-91270000D02*
X184000000Y-91270000D01*
%TO.N,Net-(D1-A)*%
X197000000Y-70160000D02*
X197000000Y-81000000D01*
%TO.N,Net-(Q2-B)*%
X184000000Y-70160000D02*
X184000000Y-81000000D01*
%TO.N,Net-(Q1-B)*%
X172000000Y-70080000D02*
X172000000Y-81000000D01*
%TO.N,Net-(D1-K)*%
X184000000Y-83500000D02*
X188500000Y-83500000D01*
X188540000Y-83540000D02*
X197000000Y-83540000D01*
X188500000Y-83500000D02*
X188540000Y-83540000D01*
X184000000Y-83500000D02*
X184000000Y-90000000D01*
%TO.N,Net-(Q2-B)*%
X172000000Y-91270000D02*
X173730000Y-91270000D01*
X173730000Y-91270000D02*
X184000000Y-81000000D01*
%TO.N,Net-(D2-K)*%
X172000000Y-83500000D02*
X172000000Y-90000000D01*
X160000000Y-83540000D02*
X171960000Y-83540000D01*
X171960000Y-83540000D02*
X172000000Y-83500000D01*
%TO.N,VCC*%
X184000000Y-60000000D02*
X197000000Y-60000000D01*
X172000000Y-59920000D02*
X174920000Y-59920000D01*
X174920000Y-59920000D02*
X175000000Y-60000000D01*
X175000000Y-60000000D02*
X184000000Y-60000000D01*
X160000000Y-60000000D02*
X165000000Y-60000000D01*
X165000000Y-60000000D02*
X165080000Y-59920000D01*
X165080000Y-59920000D02*
X172000000Y-59920000D01*
%TO.N,Net-(D2-A)*%
X160000000Y-70160000D02*
X160000000Y-81000000D01*
%TD*%
%TA.AperFunction,Conductor*%
%TO.N,GND*%
G36*
X225002702Y-50500617D02*
G01*
X225386771Y-50517386D01*
X225397506Y-50518326D01*
X225775971Y-50568152D01*
X225786597Y-50570025D01*
X226159284Y-50652648D01*
X226169710Y-50655442D01*
X226533765Y-50770227D01*
X226543911Y-50773920D01*
X226896578Y-50920000D01*
X226906369Y-50924566D01*
X227244942Y-51100816D01*
X227254310Y-51106224D01*
X227576244Y-51311318D01*
X227585105Y-51317523D01*
X227887930Y-51549889D01*
X227896217Y-51556843D01*
X228177635Y-51814715D01*
X228185284Y-51822364D01*
X228443156Y-52103782D01*
X228450110Y-52112069D01*
X228682476Y-52414894D01*
X228688681Y-52423755D01*
X228893775Y-52745689D01*
X228899183Y-52755057D01*
X229075430Y-53093623D01*
X229080002Y-53103427D01*
X229226075Y-53456078D01*
X229229775Y-53466244D01*
X229344554Y-53830278D01*
X229347354Y-53840727D01*
X229429971Y-54213389D01*
X229431849Y-54224042D01*
X229481671Y-54602473D01*
X229482614Y-54613249D01*
X229499382Y-54997297D01*
X229499500Y-55002706D01*
X229499500Y-94997293D01*
X229499382Y-95002702D01*
X229482614Y-95386750D01*
X229481671Y-95397526D01*
X229431849Y-95775957D01*
X229429971Y-95786610D01*
X229347354Y-96159272D01*
X229344554Y-96169721D01*
X229229775Y-96533755D01*
X229226075Y-96543921D01*
X229080002Y-96896572D01*
X229075430Y-96906376D01*
X228899183Y-97244942D01*
X228893775Y-97254310D01*
X228688681Y-97576244D01*
X228682476Y-97585105D01*
X228450110Y-97887930D01*
X228443156Y-97896217D01*
X228185284Y-98177635D01*
X228177635Y-98185284D01*
X227896217Y-98443156D01*
X227887930Y-98450110D01*
X227585105Y-98682476D01*
X227576244Y-98688681D01*
X227254310Y-98893775D01*
X227244942Y-98899183D01*
X226906376Y-99075430D01*
X226896572Y-99080002D01*
X226543921Y-99226075D01*
X226533755Y-99229775D01*
X226169721Y-99344554D01*
X226159272Y-99347354D01*
X225786610Y-99429971D01*
X225775957Y-99431849D01*
X225397526Y-99481671D01*
X225386750Y-99482614D01*
X225002703Y-99499382D01*
X224997294Y-99499500D01*
X155002706Y-99499500D01*
X154997297Y-99499382D01*
X154613249Y-99482614D01*
X154602473Y-99481671D01*
X154224042Y-99431849D01*
X154213389Y-99429971D01*
X153840727Y-99347354D01*
X153830278Y-99344554D01*
X153466244Y-99229775D01*
X153456078Y-99226075D01*
X153103427Y-99080002D01*
X153093623Y-99075430D01*
X152755057Y-98899183D01*
X152745689Y-98893775D01*
X152423755Y-98688681D01*
X152414894Y-98682476D01*
X152112069Y-98450110D01*
X152103782Y-98443156D01*
X151822364Y-98185284D01*
X151814715Y-98177635D01*
X151556843Y-97896217D01*
X151549889Y-97887930D01*
X151317523Y-97585105D01*
X151311318Y-97576244D01*
X151106224Y-97254310D01*
X151100816Y-97244942D01*
X150924569Y-96906376D01*
X150919997Y-96896572D01*
X150773920Y-96543911D01*
X150770224Y-96533755D01*
X150655442Y-96169710D01*
X150652648Y-96159284D01*
X150570025Y-95786597D01*
X150568152Y-95775971D01*
X150518326Y-95397506D01*
X150517386Y-95386771D01*
X150500618Y-95002702D01*
X150500500Y-94997293D01*
X150500500Y-94878711D01*
X153149500Y-94878711D01*
X153149500Y-95121288D01*
X153181161Y-95361785D01*
X153243947Y-95596104D01*
X153336773Y-95820205D01*
X153336776Y-95820212D01*
X153458064Y-96030289D01*
X153458066Y-96030292D01*
X153458067Y-96030293D01*
X153605733Y-96222736D01*
X153605739Y-96222743D01*
X153777256Y-96394260D01*
X153777262Y-96394265D01*
X153969711Y-96541936D01*
X154179788Y-96663224D01*
X154403900Y-96756054D01*
X154638211Y-96818838D01*
X154818586Y-96842584D01*
X154878711Y-96850500D01*
X154878712Y-96850500D01*
X155121289Y-96850500D01*
X155169388Y-96844167D01*
X155361789Y-96818838D01*
X155596100Y-96756054D01*
X155820212Y-96663224D01*
X156030289Y-96541936D01*
X156222738Y-96394265D01*
X156394265Y-96222738D01*
X156541936Y-96030289D01*
X156663224Y-95820212D01*
X156756054Y-95596100D01*
X156818838Y-95361789D01*
X156850500Y-95121288D01*
X156850500Y-94878712D01*
X156850500Y-94878711D01*
X223149500Y-94878711D01*
X223149500Y-95121288D01*
X223181161Y-95361785D01*
X223243947Y-95596104D01*
X223336773Y-95820205D01*
X223336776Y-95820212D01*
X223458064Y-96030289D01*
X223458066Y-96030292D01*
X223458067Y-96030293D01*
X223605733Y-96222736D01*
X223605739Y-96222743D01*
X223777256Y-96394260D01*
X223777262Y-96394265D01*
X223969711Y-96541936D01*
X224179788Y-96663224D01*
X224403900Y-96756054D01*
X224638211Y-96818838D01*
X224818586Y-96842584D01*
X224878711Y-96850500D01*
X224878712Y-96850500D01*
X225121289Y-96850500D01*
X225169388Y-96844167D01*
X225361789Y-96818838D01*
X225596100Y-96756054D01*
X225820212Y-96663224D01*
X226030289Y-96541936D01*
X226222738Y-96394265D01*
X226394265Y-96222738D01*
X226541936Y-96030289D01*
X226663224Y-95820212D01*
X226756054Y-95596100D01*
X226818838Y-95361789D01*
X226850500Y-95121288D01*
X226850500Y-94878712D01*
X226818838Y-94638211D01*
X226756054Y-94403900D01*
X226663224Y-94179788D01*
X226541936Y-93969711D01*
X226394265Y-93777262D01*
X226394260Y-93777256D01*
X226222743Y-93605739D01*
X226222736Y-93605733D01*
X226030293Y-93458067D01*
X226030292Y-93458066D01*
X226030289Y-93458064D01*
X225820212Y-93336776D01*
X225748534Y-93307086D01*
X225596104Y-93243947D01*
X225361785Y-93181161D01*
X225121289Y-93149500D01*
X225121288Y-93149500D01*
X224878712Y-93149500D01*
X224878711Y-93149500D01*
X224638214Y-93181161D01*
X224403895Y-93243947D01*
X224179794Y-93336773D01*
X224179785Y-93336777D01*
X223969706Y-93458067D01*
X223777263Y-93605733D01*
X223777256Y-93605739D01*
X223605739Y-93777256D01*
X223605733Y-93777263D01*
X223458067Y-93969706D01*
X223336777Y-94179785D01*
X223336773Y-94179794D01*
X223243947Y-94403895D01*
X223181161Y-94638214D01*
X223149500Y-94878711D01*
X156850500Y-94878711D01*
X156818838Y-94638211D01*
X156756054Y-94403900D01*
X156663224Y-94179788D01*
X156541936Y-93969711D01*
X156394265Y-93777262D01*
X156394260Y-93777256D01*
X156222743Y-93605739D01*
X156222736Y-93605733D01*
X156030293Y-93458067D01*
X156030292Y-93458066D01*
X156030289Y-93458064D01*
X155820212Y-93336776D01*
X155748534Y-93307086D01*
X155596104Y-93243947D01*
X155361785Y-93181161D01*
X155121289Y-93149500D01*
X155121288Y-93149500D01*
X154878712Y-93149500D01*
X154878711Y-93149500D01*
X154638214Y-93181161D01*
X154403895Y-93243947D01*
X154179794Y-93336773D01*
X154179785Y-93336777D01*
X153969706Y-93458067D01*
X153777263Y-93605733D01*
X153777256Y-93605739D01*
X153605739Y-93777256D01*
X153605733Y-93777263D01*
X153458067Y-93969706D01*
X153336777Y-94179785D01*
X153336773Y-94179794D01*
X153243947Y-94403895D01*
X153181161Y-94638214D01*
X153149500Y-94878711D01*
X150500500Y-94878711D01*
X150500500Y-80889778D01*
X158599500Y-80889778D01*
X158599500Y-81110221D01*
X158633985Y-81327952D01*
X158702103Y-81537603D01*
X158702104Y-81537606D01*
X158758676Y-81648632D01*
X158775479Y-81681610D01*
X158802187Y-81734025D01*
X158931752Y-81912358D01*
X158931756Y-81912363D01*
X158981928Y-81962535D01*
X159015413Y-82023858D01*
X159010429Y-82093550D01*
X158968557Y-82149483D01*
X158937581Y-82166398D01*
X158857669Y-82196203D01*
X158857664Y-82196206D01*
X158742455Y-82282452D01*
X158742452Y-82282455D01*
X158656206Y-82397664D01*
X158656202Y-82397671D01*
X158605908Y-82532517D01*
X158601234Y-82575996D01*
X158599501Y-82592123D01*
X158599500Y-82592135D01*
X158599500Y-84487870D01*
X158599501Y-84487876D01*
X158605908Y-84547483D01*
X158656202Y-84682328D01*
X158656206Y-84682335D01*
X158742452Y-84797544D01*
X158742455Y-84797547D01*
X158857664Y-84883793D01*
X158857671Y-84883797D01*
X158992517Y-84934091D01*
X158992516Y-84934091D01*
X158999444Y-84934835D01*
X159052127Y-84940500D01*
X160947872Y-84940499D01*
X161007483Y-84934091D01*
X161142331Y-84883796D01*
X161257546Y-84797546D01*
X161343796Y-84682331D01*
X161394091Y-84547483D01*
X161400500Y-84487873D01*
X161400500Y-84264500D01*
X161420185Y-84197461D01*
X161472989Y-84151706D01*
X161524500Y-84140500D01*
X170599817Y-84140500D01*
X170666856Y-84160185D01*
X170712611Y-84212989D01*
X170717521Y-84225491D01*
X170765186Y-84369334D01*
X170857288Y-84518656D01*
X170981344Y-84642712D01*
X171130666Y-84734814D01*
X171297203Y-84789999D01*
X171297209Y-84789999D01*
X171301448Y-84790907D01*
X171362884Y-84824185D01*
X171396576Y-84885394D01*
X171399500Y-84912162D01*
X171399500Y-88962689D01*
X171379815Y-89029728D01*
X171327011Y-89075483D01*
X171322955Y-89077249D01*
X171289249Y-89091211D01*
X171289237Y-89091217D01*
X171121281Y-89203441D01*
X170978441Y-89346281D01*
X170866217Y-89514237D01*
X170866212Y-89514247D01*
X170788909Y-89700872D01*
X170788907Y-89700880D01*
X170749500Y-89898992D01*
X170749500Y-90101007D01*
X170788907Y-90299119D01*
X170788909Y-90299127D01*
X170866213Y-90485755D01*
X170919904Y-90566109D01*
X170940782Y-90632787D01*
X170922297Y-90700167D01*
X170919904Y-90703891D01*
X170866213Y-90784244D01*
X170788909Y-90970872D01*
X170788907Y-90970880D01*
X170749500Y-91168992D01*
X170749500Y-91371007D01*
X170788907Y-91569119D01*
X170788910Y-91569131D01*
X170822547Y-91650338D01*
X170830016Y-91719807D01*
X170810405Y-91764864D01*
X170810895Y-91765132D01*
X170807910Y-91770596D01*
X170807260Y-91772092D01*
X170806646Y-91772911D01*
X170806645Y-91772913D01*
X170756403Y-91907620D01*
X170756401Y-91907627D01*
X170750000Y-91967155D01*
X170750000Y-92290000D01*
X171634134Y-92290000D01*
X171658326Y-92292383D01*
X171661123Y-92292939D01*
X171673995Y-92295499D01*
X171673996Y-92295500D01*
X171673997Y-92295500D01*
X171714170Y-92295500D01*
X171699925Y-92309745D01*
X171650556Y-92395255D01*
X171625000Y-92490630D01*
X171625000Y-92589370D01*
X171650556Y-92684745D01*
X171699925Y-92770255D01*
X171719670Y-92790000D01*
X170750000Y-92790000D01*
X170750000Y-93112844D01*
X170756401Y-93172372D01*
X170756403Y-93172379D01*
X170806645Y-93307086D01*
X170806649Y-93307093D01*
X170892809Y-93422187D01*
X170892812Y-93422190D01*
X171007906Y-93508350D01*
X171007913Y-93508354D01*
X171142620Y-93558596D01*
X171142627Y-93558598D01*
X171202155Y-93564999D01*
X171202172Y-93565000D01*
X171750000Y-93565000D01*
X171750000Y-92820330D01*
X171769745Y-92840075D01*
X171855255Y-92889444D01*
X171950630Y-92915000D01*
X172049370Y-92915000D01*
X172144745Y-92889444D01*
X172230255Y-92840075D01*
X172250000Y-92820330D01*
X172250000Y-93565000D01*
X172797828Y-93565000D01*
X172797844Y-93564999D01*
X172857372Y-93558598D01*
X172857379Y-93558596D01*
X172992086Y-93508354D01*
X172992093Y-93508350D01*
X173107187Y-93422190D01*
X173107190Y-93422187D01*
X173193350Y-93307093D01*
X173193354Y-93307086D01*
X173243596Y-93172379D01*
X173243598Y-93172372D01*
X173249999Y-93112844D01*
X173250000Y-93112827D01*
X173250000Y-92790000D01*
X172280330Y-92790000D01*
X172300075Y-92770255D01*
X172349444Y-92684745D01*
X172375000Y-92589370D01*
X172375000Y-92490630D01*
X172349444Y-92395255D01*
X172300075Y-92309745D01*
X172285830Y-92295500D01*
X172326004Y-92295500D01*
X172326004Y-92295499D01*
X172339473Y-92292820D01*
X172341674Y-92292383D01*
X172365866Y-92290000D01*
X173250000Y-92290000D01*
X173250000Y-91994500D01*
X173269685Y-91927461D01*
X173322489Y-91881706D01*
X173374000Y-91870500D01*
X173643331Y-91870500D01*
X173643347Y-91870501D01*
X173650943Y-91870501D01*
X173809054Y-91870501D01*
X173809057Y-91870501D01*
X173961785Y-91829577D01*
X174011904Y-91800639D01*
X174098716Y-91750520D01*
X174210520Y-91638716D01*
X174210520Y-91638714D01*
X174220728Y-91628507D01*
X174220730Y-91628504D01*
X182487821Y-83361412D01*
X182549142Y-83327929D01*
X182618834Y-83332913D01*
X182674767Y-83374785D01*
X182699184Y-83440249D01*
X182699500Y-83449095D01*
X182699500Y-84100001D01*
X182699501Y-84100019D01*
X182710000Y-84202796D01*
X182710001Y-84202799D01*
X182730447Y-84264500D01*
X182765186Y-84369334D01*
X182857288Y-84518656D01*
X182981344Y-84642712D01*
X183130666Y-84734814D01*
X183297203Y-84789999D01*
X183297209Y-84789999D01*
X183301448Y-84790907D01*
X183362884Y-84824185D01*
X183396576Y-84885394D01*
X183399500Y-84912162D01*
X183399500Y-88962689D01*
X183379815Y-89029728D01*
X183327011Y-89075483D01*
X183322955Y-89077249D01*
X183289249Y-89091211D01*
X183289237Y-89091217D01*
X183121281Y-89203441D01*
X182978441Y-89346281D01*
X182866217Y-89514237D01*
X182866212Y-89514247D01*
X182788909Y-89700872D01*
X182788907Y-89700880D01*
X182749500Y-89898992D01*
X182749500Y-90101007D01*
X182788907Y-90299119D01*
X182788909Y-90299127D01*
X182866213Y-90485755D01*
X182919904Y-90566109D01*
X182940782Y-90632787D01*
X182922297Y-90700167D01*
X182919904Y-90703891D01*
X182866213Y-90784244D01*
X182788909Y-90970872D01*
X182788907Y-90970880D01*
X182749500Y-91168992D01*
X182749500Y-91371007D01*
X182788907Y-91569119D01*
X182788910Y-91569131D01*
X182822547Y-91650338D01*
X182830016Y-91719807D01*
X182810405Y-91764864D01*
X182810895Y-91765132D01*
X182807910Y-91770596D01*
X182807260Y-91772092D01*
X182806646Y-91772911D01*
X182806645Y-91772913D01*
X182756403Y-91907620D01*
X182756401Y-91907627D01*
X182750000Y-91967155D01*
X182750000Y-92290000D01*
X183634134Y-92290000D01*
X183658326Y-92292383D01*
X183661123Y-92292939D01*
X183673995Y-92295499D01*
X183673996Y-92295500D01*
X183673997Y-92295500D01*
X183714170Y-92295500D01*
X183699925Y-92309745D01*
X183650556Y-92395255D01*
X183625000Y-92490630D01*
X183625000Y-92589370D01*
X183650556Y-92684745D01*
X183699925Y-92770255D01*
X183719670Y-92790000D01*
X182750000Y-92790000D01*
X182750000Y-93112844D01*
X182756401Y-93172372D01*
X182756403Y-93172379D01*
X182806645Y-93307086D01*
X182806649Y-93307093D01*
X182892809Y-93422187D01*
X182892812Y-93422190D01*
X183007906Y-93508350D01*
X183007913Y-93508354D01*
X183142620Y-93558596D01*
X183142627Y-93558598D01*
X183202155Y-93564999D01*
X183202172Y-93565000D01*
X183750000Y-93565000D01*
X183750000Y-92820330D01*
X183769745Y-92840075D01*
X183855255Y-92889444D01*
X183950630Y-92915000D01*
X184049370Y-92915000D01*
X184144745Y-92889444D01*
X184230255Y-92840075D01*
X184250000Y-92820330D01*
X184250000Y-93565000D01*
X184797828Y-93565000D01*
X184797844Y-93564999D01*
X184857372Y-93558598D01*
X184857379Y-93558596D01*
X184992086Y-93508354D01*
X184992093Y-93508350D01*
X185107187Y-93422190D01*
X185107190Y-93422187D01*
X185193350Y-93307093D01*
X185193354Y-93307086D01*
X185243596Y-93172379D01*
X185243598Y-93172372D01*
X185249999Y-93112844D01*
X185250000Y-93112827D01*
X185250000Y-92790000D01*
X184280330Y-92790000D01*
X184300075Y-92770255D01*
X184349444Y-92684745D01*
X184375000Y-92589370D01*
X184375000Y-92490630D01*
X184349444Y-92395255D01*
X184300075Y-92309745D01*
X184285830Y-92295500D01*
X184326004Y-92295500D01*
X184326004Y-92295499D01*
X184339473Y-92292820D01*
X184341674Y-92292383D01*
X184365866Y-92290000D01*
X185250000Y-92290000D01*
X185250000Y-91994500D01*
X185269685Y-91927461D01*
X185322489Y-91881706D01*
X185374000Y-91870500D01*
X193643331Y-91870500D01*
X193643347Y-91870501D01*
X193650943Y-91870501D01*
X193809054Y-91870501D01*
X193809057Y-91870501D01*
X193961785Y-91829577D01*
X194011904Y-91800639D01*
X194098716Y-91750520D01*
X194210520Y-91638716D01*
X194210520Y-91638714D01*
X194220728Y-91628507D01*
X194220730Y-91628504D01*
X200368713Y-85480521D01*
X200368716Y-85480520D01*
X200480520Y-85368716D01*
X200530639Y-85281904D01*
X200559577Y-85231785D01*
X200600501Y-85079057D01*
X200600501Y-84920943D01*
X200600501Y-84913348D01*
X200600500Y-84913330D01*
X200600500Y-77568905D01*
X213000000Y-77568905D01*
X213000000Y-77831094D01*
X213034220Y-78091009D01*
X213034222Y-78091020D01*
X213102075Y-78344255D01*
X213202404Y-78586471D01*
X213202409Y-78586482D01*
X213333488Y-78813516D01*
X213333494Y-78813524D01*
X213420080Y-78926365D01*
X214476212Y-77870233D01*
X214487482Y-77912292D01*
X214559890Y-78037708D01*
X214662292Y-78140110D01*
X214787708Y-78212518D01*
X214829765Y-78223787D01*
X213773633Y-79279917D01*
X213773633Y-79279918D01*
X213886475Y-79366505D01*
X213886483Y-79366511D01*
X214113517Y-79497590D01*
X214113528Y-79497595D01*
X214355744Y-79597924D01*
X214608979Y-79665777D01*
X214608990Y-79665779D01*
X214868905Y-79699999D01*
X214868920Y-79700000D01*
X215131080Y-79700000D01*
X215131094Y-79699999D01*
X215391009Y-79665779D01*
X215391020Y-79665777D01*
X215644255Y-79597924D01*
X215886471Y-79497595D01*
X215886482Y-79497590D01*
X216113516Y-79366511D01*
X216113534Y-79366499D01*
X216226365Y-79279919D01*
X216226365Y-79279917D01*
X215170234Y-78223787D01*
X215212292Y-78212518D01*
X215337708Y-78140110D01*
X215440110Y-78037708D01*
X215512518Y-77912292D01*
X215523787Y-77870235D01*
X216579917Y-78926365D01*
X216579919Y-78926365D01*
X216666499Y-78813534D01*
X216666511Y-78813516D01*
X216797590Y-78586482D01*
X216797595Y-78586471D01*
X216897924Y-78344255D01*
X216965777Y-78091020D01*
X216965779Y-78091009D01*
X216999999Y-77831094D01*
X217000000Y-77831080D01*
X217000000Y-77568919D01*
X216999999Y-77568905D01*
X216965779Y-77308990D01*
X216965777Y-77308979D01*
X216897924Y-77055744D01*
X216797595Y-76813528D01*
X216797590Y-76813517D01*
X216666511Y-76586483D01*
X216666505Y-76586475D01*
X216579918Y-76473633D01*
X216579917Y-76473633D01*
X215523786Y-77529763D01*
X215512518Y-77487708D01*
X215440110Y-77362292D01*
X215337708Y-77259890D01*
X215212292Y-77187482D01*
X215170232Y-77176212D01*
X216226365Y-76120080D01*
X216113524Y-76033494D01*
X216113516Y-76033488D01*
X215886482Y-75902409D01*
X215886471Y-75902404D01*
X215644255Y-75802075D01*
X215391020Y-75734222D01*
X215391009Y-75734220D01*
X215131094Y-75700000D01*
X214868905Y-75700000D01*
X214608990Y-75734220D01*
X214608979Y-75734222D01*
X214355744Y-75802075D01*
X214113528Y-75902404D01*
X214113517Y-75902409D01*
X213886471Y-76033496D01*
X213773633Y-76120079D01*
X213773633Y-76120080D01*
X214829765Y-77176212D01*
X214787708Y-77187482D01*
X214662292Y-77259890D01*
X214559890Y-77362292D01*
X214487482Y-77487708D01*
X214476212Y-77529765D01*
X213420080Y-76473633D01*
X213420079Y-76473633D01*
X213333496Y-76586471D01*
X213202409Y-76813517D01*
X213202404Y-76813528D01*
X213102075Y-77055744D01*
X213034222Y-77308979D01*
X213034220Y-77308990D01*
X213000000Y-77568905D01*
X200600500Y-77568905D01*
X200600500Y-70089059D01*
X200600501Y-70089046D01*
X200600501Y-69920945D01*
X200600501Y-69920943D01*
X200559577Y-69768215D01*
X200526708Y-69711284D01*
X200480520Y-69631284D01*
X200368716Y-69519480D01*
X200368715Y-69519479D01*
X200364385Y-69515149D01*
X200364374Y-69515139D01*
X199546590Y-68697355D01*
X199546588Y-68697352D01*
X199427717Y-68578481D01*
X199427716Y-68578480D01*
X199340904Y-68528360D01*
X199340904Y-68528359D01*
X199340900Y-68528358D01*
X199290785Y-68499423D01*
X199138057Y-68458499D01*
X198979943Y-68458499D01*
X198972347Y-68458499D01*
X198972331Y-68458500D01*
X173107669Y-68458500D01*
X173107653Y-68458499D01*
X173100057Y-68458499D01*
X172941943Y-68458499D01*
X172834587Y-68487265D01*
X172789210Y-68499424D01*
X172789209Y-68499425D01*
X172739096Y-68528359D01*
X172739095Y-68528360D01*
X172725090Y-68536446D01*
X172652285Y-68578479D01*
X172652282Y-68578481D01*
X172540480Y-68690283D01*
X172540480Y-68690284D01*
X172540478Y-68690286D01*
X172451264Y-68779500D01*
X172444842Y-68785922D01*
X172383518Y-68819406D01*
X172318848Y-68816173D01*
X172304534Y-68811522D01*
X172129995Y-68783878D01*
X172102352Y-68779500D01*
X171897648Y-68779500D01*
X171873329Y-68783351D01*
X171695465Y-68811522D01*
X171500776Y-68874781D01*
X171318386Y-68967715D01*
X171152786Y-69088028D01*
X171008028Y-69232786D01*
X170887715Y-69398386D01*
X170794781Y-69580776D01*
X170731522Y-69775465D01*
X170699500Y-69977648D01*
X170699500Y-70182351D01*
X170731522Y-70384534D01*
X170794781Y-70579223D01*
X170887715Y-70761613D01*
X171008028Y-70927213D01*
X171008034Y-70927219D01*
X171152781Y-71071966D01*
X171318390Y-71192287D01*
X171331793Y-71199116D01*
X171382589Y-71247088D01*
X171399500Y-71309601D01*
X171399500Y-79770397D01*
X171379815Y-79837436D01*
X171331800Y-79880879D01*
X171318389Y-79887712D01*
X171152786Y-80008028D01*
X171008028Y-80152786D01*
X170887715Y-80318386D01*
X170794781Y-80500776D01*
X170731522Y-80695465D01*
X170699500Y-80897648D01*
X170699500Y-81102351D01*
X170731522Y-81304534D01*
X170794781Y-81499223D01*
X170858691Y-81624653D01*
X170870909Y-81648631D01*
X170887715Y-81681613D01*
X171008028Y-81847213D01*
X171152782Y-81991967D01*
X171152787Y-81991971D01*
X171208640Y-82032551D01*
X171251306Y-82087881D01*
X171257285Y-82157494D01*
X171224679Y-82219289D01*
X171174761Y-82250574D01*
X171130669Y-82265185D01*
X171130666Y-82265186D01*
X171130663Y-82265187D01*
X170981342Y-82357289D01*
X170857289Y-82481342D01*
X170765187Y-82630663D01*
X170765185Y-82630668D01*
X170710001Y-82797204D01*
X170710000Y-82797205D01*
X170706844Y-82828103D01*
X170680447Y-82892795D01*
X170623266Y-82932946D01*
X170583486Y-82939500D01*
X161524499Y-82939500D01*
X161457460Y-82919815D01*
X161411705Y-82867011D01*
X161400499Y-82815500D01*
X161400499Y-82592129D01*
X161400498Y-82592123D01*
X161400497Y-82592116D01*
X161394091Y-82532517D01*
X161343796Y-82397669D01*
X161343795Y-82397668D01*
X161343793Y-82397664D01*
X161257547Y-82282455D01*
X161257544Y-82282452D01*
X161142335Y-82196206D01*
X161142328Y-82196202D01*
X161062419Y-82166398D01*
X161006485Y-82124527D01*
X160982068Y-82059062D01*
X160996920Y-81990789D01*
X161018069Y-81962537D01*
X161068242Y-81912365D01*
X161197815Y-81734022D01*
X161297895Y-81537606D01*
X161366015Y-81327951D01*
X161400500Y-81110222D01*
X161400500Y-80889778D01*
X161366015Y-80672049D01*
X161310366Y-80500776D01*
X161297896Y-80462396D01*
X161297895Y-80462393D01*
X161250582Y-80369538D01*
X161197815Y-80265978D01*
X161115573Y-80152781D01*
X161068247Y-80087641D01*
X161068243Y-80087636D01*
X160912363Y-79931756D01*
X160912358Y-79931752D01*
X160734023Y-79802185D01*
X160668204Y-79768648D01*
X160617409Y-79720674D01*
X160600500Y-79658164D01*
X160600500Y-71389601D01*
X160620185Y-71322562D01*
X160668206Y-71279116D01*
X160681610Y-71272287D01*
X160847219Y-71151966D01*
X160991966Y-71007219D01*
X160991968Y-71007215D01*
X160991971Y-71007213D01*
X161050093Y-70927213D01*
X161112287Y-70841610D01*
X161205220Y-70659219D01*
X161268477Y-70464534D01*
X161300500Y-70262352D01*
X161300500Y-70057648D01*
X161268477Y-69855466D01*
X161268476Y-69855464D01*
X161221629Y-69711284D01*
X161205220Y-69660781D01*
X161205218Y-69660778D01*
X161205218Y-69660776D01*
X161133222Y-69519478D01*
X161112287Y-69478390D01*
X161104556Y-69467749D01*
X160991971Y-69312786D01*
X160847213Y-69168028D01*
X160681613Y-69047715D01*
X160681612Y-69047714D01*
X160681610Y-69047713D01*
X160624653Y-69018691D01*
X160499223Y-68954781D01*
X160304534Y-68891522D01*
X160129995Y-68863878D01*
X160102352Y-68859500D01*
X159897648Y-68859500D01*
X159873329Y-68863351D01*
X159695465Y-68891522D01*
X159500776Y-68954781D01*
X159318386Y-69047715D01*
X159152786Y-69168028D01*
X159008028Y-69312786D01*
X158887715Y-69478386D01*
X158794781Y-69660776D01*
X158731522Y-69855465D01*
X158699500Y-70057648D01*
X158699500Y-70262351D01*
X158731522Y-70464534D01*
X158794781Y-70659223D01*
X158887715Y-70841613D01*
X159008028Y-71007213D01*
X159008034Y-71007219D01*
X159152781Y-71151966D01*
X159318390Y-71272287D01*
X159331793Y-71279116D01*
X159382589Y-71327088D01*
X159399500Y-71389601D01*
X159399500Y-79658164D01*
X159379815Y-79725203D01*
X159331796Y-79768648D01*
X159265976Y-79802185D01*
X159087641Y-79931752D01*
X159087636Y-79931756D01*
X158931756Y-80087636D01*
X158931752Y-80087641D01*
X158802187Y-80265974D01*
X158702104Y-80462393D01*
X158702103Y-80462396D01*
X158633985Y-80672047D01*
X158599500Y-80889778D01*
X150500500Y-80889778D01*
X150500500Y-64870525D01*
X189304500Y-64870525D01*
X189304500Y-65129474D01*
X189304501Y-65129491D01*
X189338299Y-65386217D01*
X189338300Y-65386222D01*
X189338301Y-65386228D01*
X189338302Y-65386230D01*
X189405324Y-65636364D01*
X189504423Y-65875609D01*
X189504427Y-65875619D01*
X189633906Y-66099883D01*
X189791551Y-66305331D01*
X189791557Y-66305338D01*
X189974661Y-66488442D01*
X189974668Y-66488448D01*
X190180116Y-66646093D01*
X190404380Y-66775572D01*
X190404381Y-66775572D01*
X190404384Y-66775574D01*
X190643634Y-66874675D01*
X190893772Y-66941699D01*
X191150519Y-66975500D01*
X191150526Y-66975500D01*
X191409474Y-66975500D01*
X191409481Y-66975500D01*
X191666228Y-66941699D01*
X191916366Y-66874675D01*
X192155616Y-66775574D01*
X192379884Y-66646093D01*
X192585333Y-66488447D01*
X192768447Y-66305333D01*
X192926093Y-66099884D01*
X193055574Y-65875616D01*
X193154675Y-65636366D01*
X193221699Y-65386228D01*
X193255500Y-65129481D01*
X193255500Y-64870519D01*
X193221699Y-64613772D01*
X193154675Y-64363634D01*
X193055574Y-64124384D01*
X192926093Y-63900116D01*
X192768448Y-63694668D01*
X192768442Y-63694661D01*
X192585338Y-63511557D01*
X192585331Y-63511551D01*
X192379883Y-63353906D01*
X192155619Y-63224427D01*
X192155609Y-63224423D01*
X191916364Y-63125324D01*
X191791297Y-63091813D01*
X191666228Y-63058301D01*
X191666222Y-63058300D01*
X191666217Y-63058299D01*
X191409491Y-63024501D01*
X191409486Y-63024500D01*
X191409481Y-63024500D01*
X191150519Y-63024500D01*
X191150513Y-63024500D01*
X191150508Y-63024501D01*
X190893782Y-63058299D01*
X190893775Y-63058300D01*
X190893772Y-63058301D01*
X190868077Y-63065186D01*
X190643635Y-63125324D01*
X190404390Y-63224423D01*
X190404380Y-63224427D01*
X190180116Y-63353906D01*
X189974668Y-63511551D01*
X189974661Y-63511557D01*
X189791557Y-63694661D01*
X189791551Y-63694668D01*
X189633906Y-63900116D01*
X189504427Y-64124380D01*
X189504423Y-64124390D01*
X189405324Y-64363635D01*
X189338302Y-64613769D01*
X189338299Y-64613782D01*
X189304501Y-64870508D01*
X189304500Y-64870525D01*
X150500500Y-64870525D01*
X150500500Y-59897648D01*
X158699500Y-59897648D01*
X158699500Y-60102351D01*
X158731522Y-60304534D01*
X158794781Y-60499223D01*
X158887715Y-60681613D01*
X159008028Y-60847213D01*
X159152786Y-60991971D01*
X159307749Y-61104556D01*
X159318390Y-61112287D01*
X159434607Y-61171503D01*
X159500776Y-61205218D01*
X159500778Y-61205218D01*
X159500781Y-61205220D01*
X159605137Y-61239127D01*
X159695465Y-61268477D01*
X159796557Y-61284488D01*
X159897648Y-61300500D01*
X159897649Y-61300500D01*
X160102351Y-61300500D01*
X160102352Y-61300500D01*
X160304534Y-61268477D01*
X160499219Y-61205220D01*
X160681610Y-61112287D01*
X160774590Y-61044732D01*
X160847213Y-60991971D01*
X160847215Y-60991968D01*
X160847219Y-60991966D01*
X160991966Y-60847219D01*
X160991968Y-60847215D01*
X160991971Y-60847213D01*
X161112284Y-60681614D01*
X161112285Y-60681613D01*
X161112287Y-60681610D01*
X161119117Y-60668204D01*
X161167091Y-60617409D01*
X161229602Y-60600500D01*
X164913331Y-60600500D01*
X164913347Y-60600501D01*
X164920943Y-60600501D01*
X165079054Y-60600501D01*
X165079057Y-60600501D01*
X165231785Y-60559577D01*
X165270694Y-60537112D01*
X165332694Y-60520500D01*
X170770398Y-60520500D01*
X170837437Y-60540185D01*
X170880883Y-60588205D01*
X170887715Y-60601614D01*
X171008028Y-60767213D01*
X171152786Y-60911971D01*
X171262892Y-60991966D01*
X171318390Y-61032287D01*
X171434607Y-61091503D01*
X171500776Y-61125218D01*
X171500778Y-61125218D01*
X171500781Y-61125220D01*
X171605137Y-61159127D01*
X171695465Y-61188477D01*
X171796557Y-61204488D01*
X171897648Y-61220500D01*
X171897649Y-61220500D01*
X172102351Y-61220500D01*
X172102352Y-61220500D01*
X172304534Y-61188477D01*
X172499219Y-61125220D01*
X172681610Y-61032287D01*
X172774590Y-60964732D01*
X172847213Y-60911971D01*
X172847215Y-60911968D01*
X172847219Y-60911966D01*
X172991966Y-60767219D01*
X172991968Y-60767215D01*
X172991971Y-60767213D01*
X173112284Y-60601614D01*
X173112283Y-60601614D01*
X173112287Y-60601610D01*
X173119117Y-60588204D01*
X173167091Y-60537409D01*
X173229602Y-60520500D01*
X174667306Y-60520500D01*
X174729305Y-60537112D01*
X174768215Y-60559577D01*
X174920943Y-60600500D01*
X182770398Y-60600500D01*
X182837437Y-60620185D01*
X182880883Y-60668205D01*
X182887715Y-60681614D01*
X183008028Y-60847213D01*
X183152786Y-60991971D01*
X183307749Y-61104556D01*
X183318390Y-61112287D01*
X183434607Y-61171503D01*
X183500776Y-61205218D01*
X183500778Y-61205218D01*
X183500781Y-61205220D01*
X183605137Y-61239127D01*
X183695465Y-61268477D01*
X183796557Y-61284488D01*
X183897648Y-61300500D01*
X183897649Y-61300500D01*
X184102351Y-61300500D01*
X184102352Y-61300500D01*
X184304534Y-61268477D01*
X184499219Y-61205220D01*
X184681610Y-61112287D01*
X184774590Y-61044732D01*
X184847213Y-60991971D01*
X184847215Y-60991968D01*
X184847219Y-60991966D01*
X184991966Y-60847219D01*
X184991968Y-60847215D01*
X184991971Y-60847213D01*
X185112284Y-60681614D01*
X185112285Y-60681613D01*
X185112287Y-60681610D01*
X185119117Y-60668204D01*
X185167091Y-60617409D01*
X185229602Y-60600500D01*
X195770398Y-60600500D01*
X195837437Y-60620185D01*
X195880883Y-60668205D01*
X195887715Y-60681614D01*
X196008028Y-60847213D01*
X196152786Y-60991971D01*
X196307749Y-61104556D01*
X196318390Y-61112287D01*
X196434607Y-61171503D01*
X196500776Y-61205218D01*
X196500778Y-61205218D01*
X196500781Y-61205220D01*
X196605137Y-61239127D01*
X196695465Y-61268477D01*
X196796557Y-61284488D01*
X196897648Y-61300500D01*
X196897649Y-61300500D01*
X197102351Y-61300500D01*
X197102352Y-61300500D01*
X197304534Y-61268477D01*
X197499219Y-61205220D01*
X197681610Y-61112287D01*
X197774590Y-61044732D01*
X197847213Y-60991971D01*
X197847215Y-60991968D01*
X197847219Y-60991966D01*
X197991966Y-60847219D01*
X197991968Y-60847215D01*
X197991971Y-60847213D01*
X198112284Y-60681614D01*
X198112285Y-60681613D01*
X198112287Y-60681610D01*
X198119117Y-60668204D01*
X198167091Y-60617409D01*
X198229602Y-60600500D01*
X212986063Y-60600500D01*
X213053102Y-60620185D01*
X213073744Y-60636819D01*
X215224744Y-62787819D01*
X215258229Y-62849142D01*
X215253245Y-62918834D01*
X215211373Y-62974767D01*
X215145909Y-62999184D01*
X215137063Y-62999500D01*
X213699982Y-62999500D01*
X213597203Y-63010000D01*
X213597202Y-63010001D01*
X213553447Y-63024500D01*
X213430667Y-63065185D01*
X213430662Y-63065187D01*
X213281342Y-63157289D01*
X213157289Y-63281342D01*
X213065187Y-63430662D01*
X213065186Y-63430665D01*
X213010001Y-63597202D01*
X213010001Y-63597203D01*
X213010000Y-63597203D01*
X212999500Y-63699982D01*
X212999500Y-66300017D01*
X213010000Y-66402796D01*
X213065185Y-66569332D01*
X213065186Y-66569335D01*
X213157288Y-66718656D01*
X213281344Y-66842712D01*
X213430665Y-66934814D01*
X213597202Y-66989999D01*
X213699990Y-67000500D01*
X214275500Y-67000500D01*
X214342539Y-67020185D01*
X214388294Y-67072989D01*
X214399500Y-67124500D01*
X214399500Y-71663330D01*
X214399499Y-71663348D01*
X214399499Y-71829054D01*
X214399498Y-71829054D01*
X214440423Y-71981785D01*
X214469358Y-72031900D01*
X214469359Y-72031904D01*
X214469360Y-72031904D01*
X214519479Y-72118714D01*
X214519481Y-72118717D01*
X214638349Y-72237585D01*
X214638355Y-72237590D01*
X221916241Y-79515476D01*
X221949726Y-79576799D01*
X221946492Y-79641473D01*
X221932753Y-79683757D01*
X221909131Y-79832903D01*
X221899500Y-79893713D01*
X221899500Y-80106287D01*
X221932754Y-80316243D01*
X221933450Y-80318386D01*
X221950071Y-80369538D01*
X221952066Y-80439379D01*
X221915986Y-80499212D01*
X221853285Y-80530040D01*
X221812742Y-80530329D01*
X221618097Y-80499500D01*
X221618092Y-80499500D01*
X221381908Y-80499500D01*
X221381903Y-80499500D01*
X221148631Y-80536446D01*
X220924003Y-80609433D01*
X220713566Y-80716657D01*
X220604550Y-80795862D01*
X220522490Y-80855483D01*
X220522488Y-80855485D01*
X220522487Y-80855485D01*
X220355485Y-81022487D01*
X220355485Y-81022488D01*
X220355483Y-81022490D01*
X220297460Y-81102351D01*
X220216657Y-81213566D01*
X220109433Y-81424003D01*
X220036446Y-81648631D01*
X219999500Y-81881902D01*
X219999500Y-82118097D01*
X220036446Y-82351368D01*
X220109433Y-82575996D01*
X220216657Y-82786433D01*
X220355483Y-82977510D01*
X220522490Y-83144517D01*
X220713567Y-83283343D01*
X220801072Y-83327929D01*
X220924003Y-83390566D01*
X220924005Y-83390566D01*
X220924008Y-83390568D01*
X221044412Y-83429689D01*
X221148631Y-83463553D01*
X221381903Y-83500500D01*
X221381908Y-83500500D01*
X221618097Y-83500500D01*
X221851368Y-83463553D01*
X221895865Y-83449095D01*
X222075992Y-83390568D01*
X222286433Y-83283343D01*
X222477510Y-83144517D01*
X222644517Y-82977510D01*
X222783343Y-82786433D01*
X222890568Y-82575992D01*
X222963553Y-82351368D01*
X222979517Y-82250575D01*
X223000500Y-82118097D01*
X223000500Y-81881902D01*
X225999500Y-81881902D01*
X225999500Y-82118097D01*
X226036446Y-82351368D01*
X226109433Y-82575996D01*
X226216657Y-82786433D01*
X226355483Y-82977510D01*
X226522490Y-83144517D01*
X226713567Y-83283343D01*
X226801072Y-83327929D01*
X226924003Y-83390566D01*
X226924005Y-83390566D01*
X226924008Y-83390568D01*
X227044412Y-83429689D01*
X227148631Y-83463553D01*
X227381903Y-83500500D01*
X227381908Y-83500500D01*
X227618097Y-83500500D01*
X227851368Y-83463553D01*
X227895865Y-83449095D01*
X228075992Y-83390568D01*
X228286433Y-83283343D01*
X228477510Y-83144517D01*
X228644517Y-82977510D01*
X228783343Y-82786433D01*
X228890568Y-82575992D01*
X228963553Y-82351368D01*
X228979517Y-82250575D01*
X229000500Y-82118097D01*
X229000500Y-81881902D01*
X228963553Y-81648631D01*
X228915007Y-81499223D01*
X228890568Y-81424008D01*
X228890566Y-81424005D01*
X228890566Y-81424003D01*
X228783342Y-81213566D01*
X228644517Y-81022490D01*
X228477510Y-80855483D01*
X228286433Y-80716657D01*
X228075996Y-80609433D01*
X227851368Y-80536446D01*
X227618097Y-80499500D01*
X227618092Y-80499500D01*
X227381908Y-80499500D01*
X227381903Y-80499500D01*
X227148631Y-80536446D01*
X226924003Y-80609433D01*
X226713566Y-80716657D01*
X226604550Y-80795862D01*
X226522490Y-80855483D01*
X226522488Y-80855485D01*
X226522487Y-80855485D01*
X226355485Y-81022487D01*
X226355485Y-81022488D01*
X226355483Y-81022490D01*
X226297460Y-81102351D01*
X226216657Y-81213566D01*
X226109433Y-81424003D01*
X226036446Y-81648631D01*
X225999500Y-81881902D01*
X223000500Y-81881902D01*
X222963553Y-81648631D01*
X222915007Y-81499223D01*
X222914182Y-81496687D01*
X222912188Y-81426846D01*
X222948268Y-81367013D01*
X223010969Y-81336185D01*
X223051507Y-81335896D01*
X223143713Y-81350500D01*
X223143715Y-81350500D01*
X223356286Y-81350500D01*
X223356287Y-81350500D01*
X223566243Y-81317246D01*
X223768412Y-81251557D01*
X223957816Y-81155051D01*
X224019520Y-81110221D01*
X224129786Y-81030109D01*
X224129788Y-81030106D01*
X224129792Y-81030104D01*
X224280104Y-80879792D01*
X224280106Y-80879788D01*
X224280109Y-80879786D01*
X224405048Y-80707820D01*
X224405047Y-80707820D01*
X224405051Y-80707816D01*
X224501557Y-80518412D01*
X224567246Y-80316243D01*
X224600500Y-80106287D01*
X224600500Y-79893713D01*
X224567246Y-79683757D01*
X224501557Y-79481588D01*
X224405051Y-79292184D01*
X224405049Y-79292181D01*
X224405048Y-79292179D01*
X224280109Y-79120213D01*
X224129786Y-78969890D01*
X223957820Y-78844951D01*
X223768414Y-78748444D01*
X223768413Y-78748443D01*
X223768412Y-78748443D01*
X223566243Y-78682754D01*
X223566241Y-78682753D01*
X223566240Y-78682753D01*
X223404957Y-78657208D01*
X223356287Y-78649500D01*
X223143713Y-78649500D01*
X223115006Y-78654046D01*
X222933757Y-78682753D01*
X222891473Y-78696492D01*
X222821632Y-78698486D01*
X222765476Y-78666241D01*
X215636819Y-71537584D01*
X215603334Y-71476261D01*
X215600500Y-71449903D01*
X215600500Y-67124500D01*
X215620185Y-67057461D01*
X215672989Y-67011706D01*
X215724500Y-67000500D01*
X216300005Y-67000500D01*
X216300010Y-67000500D01*
X216402798Y-66989999D01*
X216569335Y-66934814D01*
X216718656Y-66842712D01*
X216842712Y-66718656D01*
X216934814Y-66569335D01*
X216989999Y-66402798D01*
X217000500Y-66300010D01*
X217000500Y-64862937D01*
X217020185Y-64795898D01*
X217072989Y-64750143D01*
X217142147Y-64740199D01*
X217205703Y-64769224D01*
X217212181Y-64775256D01*
X219363181Y-66926256D01*
X219396666Y-66987579D01*
X219399500Y-67013937D01*
X219399500Y-72663330D01*
X219399499Y-72663348D01*
X219399499Y-72829054D01*
X219399498Y-72829054D01*
X219399499Y-72829057D01*
X219440423Y-72981785D01*
X219468320Y-73030104D01*
X219519477Y-73118712D01*
X219519481Y-73118717D01*
X219638349Y-73237585D01*
X219638355Y-73237590D01*
X221916241Y-75515476D01*
X221949726Y-75576799D01*
X221946492Y-75641473D01*
X221932753Y-75683757D01*
X221914014Y-75802075D01*
X221899500Y-75893713D01*
X221899500Y-76106287D01*
X221932754Y-76316243D01*
X221983893Y-76473633D01*
X221998444Y-76518414D01*
X222094951Y-76707820D01*
X222219890Y-76879786D01*
X222370213Y-77030109D01*
X222542179Y-77155048D01*
X222542181Y-77155049D01*
X222542184Y-77155051D01*
X222731588Y-77251557D01*
X222933757Y-77317246D01*
X223143713Y-77350500D01*
X223143714Y-77350500D01*
X223356286Y-77350500D01*
X223356287Y-77350500D01*
X223566243Y-77317246D01*
X223768412Y-77251557D01*
X223957816Y-77155051D01*
X223979789Y-77139086D01*
X224129786Y-77030109D01*
X224129788Y-77030106D01*
X224129792Y-77030104D01*
X224280104Y-76879792D01*
X224280106Y-76879788D01*
X224280109Y-76879786D01*
X224405048Y-76707820D01*
X224405047Y-76707820D01*
X224405051Y-76707816D01*
X224501557Y-76518412D01*
X224567246Y-76316243D01*
X224600500Y-76106287D01*
X224600500Y-75893713D01*
X224567246Y-75683757D01*
X224501557Y-75481588D01*
X224405051Y-75292184D01*
X224405049Y-75292181D01*
X224405048Y-75292179D01*
X224280109Y-75120213D01*
X224129786Y-74969890D01*
X223957820Y-74844951D01*
X223768414Y-74748444D01*
X223768413Y-74748443D01*
X223768412Y-74748443D01*
X223566243Y-74682754D01*
X223566241Y-74682753D01*
X223566240Y-74682753D01*
X223404957Y-74657208D01*
X223356287Y-74649500D01*
X223143713Y-74649500D01*
X223115006Y-74654046D01*
X222933757Y-74682753D01*
X222891473Y-74696492D01*
X222821632Y-74698486D01*
X222765476Y-74666241D01*
X220636819Y-72537584D01*
X220603334Y-72476261D01*
X220600500Y-72449903D01*
X220600500Y-71428082D01*
X220620185Y-71361043D01*
X220672989Y-71315288D01*
X220742147Y-71305344D01*
X220780793Y-71317596D01*
X220837834Y-71346660D01*
X220924003Y-71390566D01*
X220924005Y-71390566D01*
X220924008Y-71390568D01*
X221039464Y-71428082D01*
X221148631Y-71463553D01*
X221381903Y-71500500D01*
X221381908Y-71500500D01*
X221618097Y-71500500D01*
X221812741Y-71469671D01*
X221882034Y-71478625D01*
X221935486Y-71523622D01*
X221956126Y-71590373D01*
X221950071Y-71630460D01*
X221932753Y-71683761D01*
X221899500Y-71893713D01*
X221899500Y-72106286D01*
X221920296Y-72237590D01*
X221932754Y-72316243D01*
X221984747Y-72476261D01*
X221998444Y-72518414D01*
X222094951Y-72707820D01*
X222219890Y-72879786D01*
X222370213Y-73030109D01*
X222542179Y-73155048D01*
X222542181Y-73155049D01*
X222542184Y-73155051D01*
X222731588Y-73251557D01*
X222933757Y-73317246D01*
X223143713Y-73350500D01*
X223143714Y-73350500D01*
X223356286Y-73350500D01*
X223356287Y-73350500D01*
X223566243Y-73317246D01*
X223768412Y-73251557D01*
X223957816Y-73155051D01*
X224007833Y-73118712D01*
X224129786Y-73030109D01*
X224129793Y-73030103D01*
X224178111Y-72981785D01*
X224280104Y-72879792D01*
X224280106Y-72879788D01*
X224280109Y-72879786D01*
X224405048Y-72707820D01*
X224405047Y-72707820D01*
X224405051Y-72707816D01*
X224501557Y-72518412D01*
X224567246Y-72316243D01*
X224600500Y-72106287D01*
X224600500Y-71893713D01*
X224567246Y-71683757D01*
X224501557Y-71481588D01*
X224405051Y-71292184D01*
X224405049Y-71292181D01*
X224405048Y-71292179D01*
X224280109Y-71120213D01*
X224129786Y-70969890D01*
X223957820Y-70844951D01*
X223768414Y-70748444D01*
X223768413Y-70748443D01*
X223768412Y-70748443D01*
X223566243Y-70682754D01*
X223566241Y-70682753D01*
X223566240Y-70682753D01*
X223391947Y-70655148D01*
X223356287Y-70649500D01*
X223143713Y-70649500D01*
X223051511Y-70664103D01*
X222982218Y-70655148D01*
X222928766Y-70610152D01*
X222908127Y-70543400D01*
X222914182Y-70503314D01*
X222963553Y-70351368D01*
X223000500Y-70118097D01*
X223000500Y-69881902D01*
X225999500Y-69881902D01*
X225999500Y-70118097D01*
X226036446Y-70351368D01*
X226109433Y-70575996D01*
X226216657Y-70786433D01*
X226355483Y-70977510D01*
X226522490Y-71144517D01*
X226713567Y-71283343D01*
X226812991Y-71334002D01*
X226924003Y-71390566D01*
X226924005Y-71390566D01*
X226924008Y-71390568D01*
X227039464Y-71428082D01*
X227148631Y-71463553D01*
X227381903Y-71500500D01*
X227381908Y-71500500D01*
X227618097Y-71500500D01*
X227851368Y-71463553D01*
X227893378Y-71449903D01*
X228075992Y-71390568D01*
X228286433Y-71283343D01*
X228477510Y-71144517D01*
X228644517Y-70977510D01*
X228783343Y-70786433D01*
X228890568Y-70575992D01*
X228963553Y-70351368D01*
X229000500Y-70118097D01*
X229000500Y-69881902D01*
X228963553Y-69648631D01*
X228908238Y-69478390D01*
X228890568Y-69424008D01*
X228890566Y-69424005D01*
X228890566Y-69424003D01*
X228833895Y-69312781D01*
X228783343Y-69213567D01*
X228644517Y-69022490D01*
X228477510Y-68855483D01*
X228286433Y-68716657D01*
X228234677Y-68690286D01*
X228075996Y-68609433D01*
X227851368Y-68536446D01*
X227618097Y-68499500D01*
X227618092Y-68499500D01*
X227381908Y-68499500D01*
X227381903Y-68499500D01*
X227148631Y-68536446D01*
X226924003Y-68609433D01*
X226713566Y-68716657D01*
X226627071Y-68779500D01*
X226522490Y-68855483D01*
X226522488Y-68855485D01*
X226522487Y-68855485D01*
X226355485Y-69022487D01*
X226355485Y-69022488D01*
X226355483Y-69022490D01*
X226337156Y-69047715D01*
X226216657Y-69213566D01*
X226109433Y-69424003D01*
X226036446Y-69648631D01*
X225999500Y-69881902D01*
X223000500Y-69881902D01*
X222963553Y-69648631D01*
X222908238Y-69478390D01*
X222890568Y-69424008D01*
X222890566Y-69424005D01*
X222890566Y-69424003D01*
X222833895Y-69312781D01*
X222783343Y-69213567D01*
X222644517Y-69022490D01*
X222477510Y-68855483D01*
X222286433Y-68716657D01*
X222234677Y-68690286D01*
X222075996Y-68609433D01*
X221851368Y-68536446D01*
X221618097Y-68499500D01*
X221618092Y-68499500D01*
X221381908Y-68499500D01*
X221381903Y-68499500D01*
X221148631Y-68536446D01*
X220973596Y-68593319D01*
X220924008Y-68609432D01*
X220924005Y-68609433D01*
X220924003Y-68609434D01*
X220780795Y-68682402D01*
X220712125Y-68695298D01*
X220647385Y-68669021D01*
X220607128Y-68611915D01*
X220600500Y-68571917D01*
X220600500Y-66802900D01*
X220600501Y-66802887D01*
X220600501Y-66634784D01*
X220582963Y-66569332D01*
X220559577Y-66482056D01*
X220513817Y-66402796D01*
X220480524Y-66345130D01*
X220480518Y-66345122D01*
X213773750Y-59638355D01*
X213773748Y-59638352D01*
X213654877Y-59519481D01*
X213654876Y-59519480D01*
X213568064Y-59469360D01*
X213568064Y-59469359D01*
X213568060Y-59469358D01*
X213517945Y-59440423D01*
X213365217Y-59399499D01*
X213207103Y-59399499D01*
X213199507Y-59399499D01*
X213199491Y-59399500D01*
X198229602Y-59399500D01*
X198162563Y-59379815D01*
X198119117Y-59331795D01*
X198112287Y-59318390D01*
X198112285Y-59318387D01*
X198112284Y-59318385D01*
X197991971Y-59152786D01*
X197847213Y-59008028D01*
X197681613Y-58887715D01*
X197681612Y-58887714D01*
X197681610Y-58887713D01*
X197624653Y-58858691D01*
X197499223Y-58794781D01*
X197304534Y-58731522D01*
X197129995Y-58703878D01*
X197102352Y-58699500D01*
X196897648Y-58699500D01*
X196873329Y-58703351D01*
X196695465Y-58731522D01*
X196500776Y-58794781D01*
X196318386Y-58887715D01*
X196152786Y-59008028D01*
X196008028Y-59152786D01*
X195887715Y-59318385D01*
X195880883Y-59331795D01*
X195832909Y-59382591D01*
X195770398Y-59399500D01*
X185229602Y-59399500D01*
X185162563Y-59379815D01*
X185119117Y-59331795D01*
X185112287Y-59318390D01*
X185112285Y-59318387D01*
X185112284Y-59318385D01*
X184991971Y-59152786D01*
X184847213Y-59008028D01*
X184681613Y-58887715D01*
X184681612Y-58887714D01*
X184681610Y-58887713D01*
X184624653Y-58858691D01*
X184499223Y-58794781D01*
X184304534Y-58731522D01*
X184129995Y-58703878D01*
X184102352Y-58699500D01*
X183897648Y-58699500D01*
X183873329Y-58703351D01*
X183695465Y-58731522D01*
X183500776Y-58794781D01*
X183318386Y-58887715D01*
X183152786Y-59008028D01*
X183008028Y-59152786D01*
X182887715Y-59318385D01*
X182880883Y-59331795D01*
X182832909Y-59382591D01*
X182770398Y-59399500D01*
X175252692Y-59399500D01*
X175190691Y-59382886D01*
X175151785Y-59360423D01*
X174999057Y-59319499D01*
X174840943Y-59319499D01*
X174833347Y-59319499D01*
X174833331Y-59319500D01*
X173229602Y-59319500D01*
X173162563Y-59299815D01*
X173119117Y-59251795D01*
X173112284Y-59238385D01*
X172991971Y-59072786D01*
X172847213Y-58928028D01*
X172681613Y-58807715D01*
X172681612Y-58807714D01*
X172681610Y-58807713D01*
X172624653Y-58778691D01*
X172499223Y-58714781D01*
X172304534Y-58651522D01*
X172129995Y-58623878D01*
X172102352Y-58619500D01*
X171897648Y-58619500D01*
X171873329Y-58623351D01*
X171695465Y-58651522D01*
X171500776Y-58714781D01*
X171318386Y-58807715D01*
X171152786Y-58928028D01*
X171008028Y-59072786D01*
X170887715Y-59238385D01*
X170880883Y-59251795D01*
X170832909Y-59302591D01*
X170770398Y-59319500D01*
X165000943Y-59319500D01*
X164848214Y-59360423D01*
X164822521Y-59375257D01*
X164809306Y-59382887D01*
X164747306Y-59399500D01*
X161229602Y-59399500D01*
X161162563Y-59379815D01*
X161119117Y-59331795D01*
X161112287Y-59318390D01*
X161112285Y-59318387D01*
X161112284Y-59318385D01*
X160991971Y-59152786D01*
X160847213Y-59008028D01*
X160681613Y-58887715D01*
X160681612Y-58887714D01*
X160681610Y-58887713D01*
X160624653Y-58858691D01*
X160499223Y-58794781D01*
X160304534Y-58731522D01*
X160129995Y-58703878D01*
X160102352Y-58699500D01*
X159897648Y-58699500D01*
X159873329Y-58703351D01*
X159695465Y-58731522D01*
X159500776Y-58794781D01*
X159318386Y-58887715D01*
X159152786Y-59008028D01*
X159008028Y-59152786D01*
X158887715Y-59318386D01*
X158794781Y-59500776D01*
X158731522Y-59695465D01*
X158699500Y-59897648D01*
X150500500Y-59897648D01*
X150500500Y-55002706D01*
X150500618Y-54997297D01*
X150505796Y-54878711D01*
X153149500Y-54878711D01*
X153149500Y-55121288D01*
X153181161Y-55361785D01*
X153243947Y-55596104D01*
X153336773Y-55820205D01*
X153336776Y-55820212D01*
X153458064Y-56030289D01*
X153458066Y-56030292D01*
X153458067Y-56030293D01*
X153605733Y-56222736D01*
X153605739Y-56222743D01*
X153777256Y-56394260D01*
X153777262Y-56394265D01*
X153969711Y-56541936D01*
X154179788Y-56663224D01*
X154403900Y-56756054D01*
X154638211Y-56818838D01*
X154818586Y-56842584D01*
X154878711Y-56850500D01*
X154878712Y-56850500D01*
X155121289Y-56850500D01*
X155169388Y-56844167D01*
X155361789Y-56818838D01*
X155596100Y-56756054D01*
X155820212Y-56663224D01*
X156030289Y-56541936D01*
X156222738Y-56394265D01*
X156394265Y-56222738D01*
X156541936Y-56030289D01*
X156663224Y-55820212D01*
X156756054Y-55596100D01*
X156818838Y-55361789D01*
X156850500Y-55121288D01*
X156850500Y-54878712D01*
X156850500Y-54878711D01*
X223149500Y-54878711D01*
X223149500Y-55121288D01*
X223181161Y-55361785D01*
X223243947Y-55596104D01*
X223336773Y-55820205D01*
X223336776Y-55820212D01*
X223458064Y-56030289D01*
X223458066Y-56030292D01*
X223458067Y-56030293D01*
X223605733Y-56222736D01*
X223605739Y-56222743D01*
X223777256Y-56394260D01*
X223777262Y-56394265D01*
X223969711Y-56541936D01*
X224179788Y-56663224D01*
X224403900Y-56756054D01*
X224638211Y-56818838D01*
X224818586Y-56842584D01*
X224878711Y-56850500D01*
X224878712Y-56850500D01*
X225121289Y-56850500D01*
X225169388Y-56844167D01*
X225361789Y-56818838D01*
X225596100Y-56756054D01*
X225820212Y-56663224D01*
X226030289Y-56541936D01*
X226222738Y-56394265D01*
X226394265Y-56222738D01*
X226541936Y-56030289D01*
X226663224Y-55820212D01*
X226756054Y-55596100D01*
X226818838Y-55361789D01*
X226850500Y-55121288D01*
X226850500Y-54878712D01*
X226849253Y-54869243D01*
X226818838Y-54638214D01*
X226818838Y-54638211D01*
X226756054Y-54403900D01*
X226663224Y-54179788D01*
X226541936Y-53969711D01*
X226394265Y-53777262D01*
X226394260Y-53777256D01*
X226222743Y-53605739D01*
X226222736Y-53605733D01*
X226030293Y-53458067D01*
X226030292Y-53458066D01*
X226030289Y-53458064D01*
X225820212Y-53336776D01*
X225820205Y-53336773D01*
X225596104Y-53243947D01*
X225361785Y-53181161D01*
X225121289Y-53149500D01*
X225121288Y-53149500D01*
X224878712Y-53149500D01*
X224878711Y-53149500D01*
X224638214Y-53181161D01*
X224403895Y-53243947D01*
X224179794Y-53336773D01*
X224179785Y-53336777D01*
X223969706Y-53458067D01*
X223777263Y-53605733D01*
X223777256Y-53605739D01*
X223605739Y-53777256D01*
X223605733Y-53777263D01*
X223458067Y-53969706D01*
X223336777Y-54179785D01*
X223336773Y-54179794D01*
X223243947Y-54403895D01*
X223181161Y-54638214D01*
X223149500Y-54878711D01*
X156850500Y-54878711D01*
X156849253Y-54869243D01*
X156818838Y-54638214D01*
X156818838Y-54638211D01*
X156756054Y-54403900D01*
X156663224Y-54179788D01*
X156541936Y-53969711D01*
X156394265Y-53777262D01*
X156394260Y-53777256D01*
X156222743Y-53605739D01*
X156222736Y-53605733D01*
X156030293Y-53458067D01*
X156030292Y-53458066D01*
X156030289Y-53458064D01*
X155820212Y-53336776D01*
X155820205Y-53336773D01*
X155596104Y-53243947D01*
X155361785Y-53181161D01*
X155121289Y-53149500D01*
X155121288Y-53149500D01*
X154878712Y-53149500D01*
X154878711Y-53149500D01*
X154638214Y-53181161D01*
X154403895Y-53243947D01*
X154179794Y-53336773D01*
X154179785Y-53336777D01*
X153969706Y-53458067D01*
X153777263Y-53605733D01*
X153777256Y-53605739D01*
X153605739Y-53777256D01*
X153605733Y-53777263D01*
X153458067Y-53969706D01*
X153336777Y-54179785D01*
X153336773Y-54179794D01*
X153243947Y-54403895D01*
X153181161Y-54638214D01*
X153149500Y-54878711D01*
X150505796Y-54878711D01*
X150506209Y-54869244D01*
X150506209Y-54869243D01*
X150510433Y-54772498D01*
X150517386Y-54613228D01*
X150518326Y-54602495D01*
X150568152Y-54224025D01*
X150570025Y-54213405D01*
X150652649Y-53840709D01*
X150655440Y-53830295D01*
X150770230Y-53466227D01*
X150773917Y-53456095D01*
X150920003Y-53103412D01*
X150924561Y-53093638D01*
X151100822Y-52755045D01*
X151106217Y-52745700D01*
X151311325Y-52423744D01*
X151317515Y-52414905D01*
X151549896Y-52112060D01*
X151556834Y-52103791D01*
X151814726Y-51822352D01*
X151822352Y-51814726D01*
X152103791Y-51556834D01*
X152112060Y-51549896D01*
X152414905Y-51317515D01*
X152423744Y-51311325D01*
X152745700Y-51106217D01*
X152755045Y-51100822D01*
X153093638Y-50924561D01*
X153103412Y-50920003D01*
X153456095Y-50773917D01*
X153466227Y-50770230D01*
X153830295Y-50655440D01*
X153840709Y-50652649D01*
X154213405Y-50570025D01*
X154224025Y-50568152D01*
X154602495Y-50518326D01*
X154613226Y-50517386D01*
X154997297Y-50500617D01*
X155002706Y-50500500D01*
X155065892Y-50500500D01*
X224934108Y-50500500D01*
X224997294Y-50500500D01*
X225002702Y-50500617D01*
G37*
%TD.AperFunction*%
%TD*%
M02*
