%TF.GenerationSoftware,KiCad,Pcbnew,9.0.4*%
%TF.CreationDate,2026-07-11T13:55:09-04:00*%
%TF.ProjectId,led_flasher,6c65645f-666c-4617-9368-65722e6b6963,rev?*%
%TF.SameCoordinates,Original*%
%TF.FileFunction,Legend,Bot*%
%TF.FilePolarity,Positive*%
%FSLAX46Y46*%
G04 Gerber Fmt 4.6, Leading zero omitted, Abs format (unit mm)*
G04 Created by KiCad (PCBNEW 9.0.4) date 2026-07-11 13:55:09*
%MOMM*%
%LPD*%
G01*
G04 APERTURE LIST*
%ADD10C,0.150000*%
%ADD11C,0.120000*%
G04 APERTURE END LIST*
D10*
X192125714Y-56981009D02*
X191982857Y-57028628D01*
X191982857Y-57028628D02*
X191935238Y-57076247D01*
X191935238Y-57076247D02*
X191887619Y-57171485D01*
X191887619Y-57171485D02*
X191887619Y-57314342D01*
X191887619Y-57314342D02*
X191935238Y-57409580D01*
X191935238Y-57409580D02*
X191982857Y-57457200D01*
X191982857Y-57457200D02*
X192078095Y-57504819D01*
X192078095Y-57504819D02*
X192459047Y-57504819D01*
X192459047Y-57504819D02*
X192459047Y-56504819D01*
X192459047Y-56504819D02*
X192125714Y-56504819D01*
X192125714Y-56504819D02*
X192030476Y-56552438D01*
X192030476Y-56552438D02*
X191982857Y-56600057D01*
X191982857Y-56600057D02*
X191935238Y-56695295D01*
X191935238Y-56695295D02*
X191935238Y-56790533D01*
X191935238Y-56790533D02*
X191982857Y-56885771D01*
X191982857Y-56885771D02*
X192030476Y-56933390D01*
X192030476Y-56933390D02*
X192125714Y-56981009D01*
X192125714Y-56981009D02*
X192459047Y-56981009D01*
X191601904Y-56504819D02*
X191030476Y-56504819D01*
X191316190Y-57504819D02*
X191316190Y-56504819D01*
X190173333Y-57504819D02*
X190744761Y-57504819D01*
X190459047Y-57504819D02*
X190459047Y-56504819D01*
X190459047Y-56504819D02*
X190554285Y-56647676D01*
X190554285Y-56647676D02*
X190649523Y-56742914D01*
X190649523Y-56742914D02*
X190744761Y-56790533D01*
X220642857Y-65287200D02*
X218357143Y-65287200D01*
X219500000Y-66430057D02*
X219500000Y-64144342D01*
D11*
%TO.C,BT1*%
X217950000Y-57890000D02*
X164730000Y-57890000D01*
X217950000Y-96110000D02*
X217950000Y-57890000D01*
X164730000Y-57890000D02*
X164730000Y-96110000D01*
X164730000Y-96110000D02*
X217950000Y-96110000D01*
%TD*%
M02*
